<?xml version="1.0" standalone="no"?>
<!DOCTYPE svg PUBLIC "-//W3C//DTD SVG 1.1//EN" "http://www.w3.org/Graphics/SVG/1.1/DTD/svg11.dtd" >
<svg>
<metadata>
Created by FontForge 20110222 at Tue Dec 17 21:30:34 2013
 By Orthosie Webhosting
Copyright (URW)++,Copyright 2005 by (URW)++ Design &#38; Development
</metadata>
<defs>
<font id="CorporateSOT-Demi" horiz-adv-x="500" >
  <font-face 
    font-family="Corporate S OT"
    font-weight="600"
    font-stretch="normal"
    units-per-em="1000"
    panose-1="2 2 7 0 0 0 0 0 0 0"
    ascent="800"
    descent="-200"
    x-height="475"
    cap-height="667"
    bbox="-174 -274 1000 905"
    underline-thickness="89"
    underline-position="-13"
    stemh="79"
    stemv="100"
    unicode-range="U+0020-FB04"
  />
<missing-glyph horiz-adv-x="250" 
 />
    <glyph glyph-name="fi" unicode="fi" horiz-adv-x="545" 
d="M180 475h115v-78h-114v-397h-100v397h-65v78h65v30c0 66 6 97 23 124c23 35 63 55 114 55c31 0 61 -6 93 -18v-83c-33 12 -53 16 -75 16c-26 0 -44 -13 -51 -37c-3 -11 -5 -34 -5 -66v-21zM374 475h100v-475h-100v475zM426 678c35 0 60 -26 60 -63c0 -36 -25 -61 -62 -61
s-62 25 -62 60c0 38 26 64 64 64z" />
    <glyph glyph-name="fl" unicode="fl" horiz-adv-x="545" 
d="M180 475h115v-78h-114v-397h-100v397h-65v78h65v30c0 66 6 97 23 124c23 35 63 55 114 55c31 0 61 -6 93 -18v-83c-33 12 -53 16 -75 16c-26 0 -44 -13 -51 -37c-3 -11 -5 -34 -5 -66v-21zM374 671h100v-671h-100v671z" />
    <glyph glyph-name="ff" unicode="ff" horiz-adv-x="600" 
d="M374 475v30c0 66 5 96 22 122c23 36 65 57 115 57c31 0 59 -6 93 -18v-83c-33 12 -53 16 -74 16c-27 0 -45 -13 -52 -37c-4 -12 -5 -33 -5 -66v-21h115v-78h-114v-397h-100v397h-193v-397h-100v397h-65v78h65v30c0 65 6 96 22 122c23 36 65 57 115 57c31 0 57 -5 93 -18
v-83c-37 12 -53 16 -75 16c-26 0 -44 -13 -51 -37c-4 -12 -5 -33 -5 -66v-21h194z" />
    <glyph glyph-name="ffi" unicode="ffi" horiz-adv-x="838" 
d="M374 475v30c0 66 5 96 22 122c23 36 65 57 115 57c31 0 59 -6 93 -18v-83c-33 12 -53 16 -74 16c-27 0 -45 -13 -52 -37c-4 -12 -5 -33 -5 -66v-21h115v-78h-114v-397h-100v397h-193v-397h-100v397h-65v78h65v30c0 65 6 96 22 122c23 36 65 57 115 57c31 0 57 -5 93 -18
v-83c-37 12 -53 16 -75 16c-26 0 -44 -13 -51 -37c-4 -12 -5 -33 -5 -66v-21h194zM667 475h100v-475h-100v475zM719 678c35 0 60 -26 60 -63c0 -36 -25 -61 -62 -61s-62 25 -62 60c0 38 26 64 64 64z" />
    <glyph glyph-name="ffl" unicode="ffl" horiz-adv-x="838" 
d="M374 475v30c0 66 5 96 22 122c23 36 65 57 115 57c31 0 59 -6 93 -18v-83c-33 12 -53 16 -74 16c-27 0 -45 -13 -52 -37c-4 -12 -5 -33 -5 -66v-21h115v-78h-114v-397h-100v397h-193v-397h-100v397h-65v78h65v30c0 65 6 96 22 122c23 36 65 57 115 57c31 0 57 -5 93 -18
v-83c-37 12 -53 16 -75 16c-26 0 -44 -13 -51 -37c-4 -12 -5 -33 -5 -66v-21h194zM667 671h100v-671h-100v671z" />
    <glyph glyph-name=".notdef" horiz-adv-x="250" 
 />
    <glyph glyph-name="space" unicode=" " horiz-adv-x="250" 
 />
    <glyph glyph-name="exclam" unicode="!" horiz-adv-x="250" 
d="M72 652h106l-13 -447h-83zM125 126c37 0 67 -31 67 -68s-30 -67 -68 -67c-37 0 -67 30 -67 67c0 38 30 68 68 68z" />
    <glyph glyph-name="quotedbl" unicode="&#x22;" horiz-adv-x="431" 
d="M171 399h-64l-17 268h99zM324 399h-64l-18 268h99z" />
    <glyph glyph-name="numbersign" unicode="#" horiz-adv-x="600" 
d="M555 275l-11 -70h-116l-32 -205h-81l32 205h-134l-32 -205h-81l32 205h-114l11 70h114l21 130h-114l11 70h114l30 192h81l-30 -192h134l30 192h81l-30 -192h116l-11 -70h-116l-21 -130h116zM379 405h-134l-21 -130h134z" />
    <glyph glyph-name="dollar" unicode="$" horiz-adv-x="553" 
d="M302 589v-199c72 -24 95 -34 123 -51c59 -35 88 -87 88 -154c0 -110 -83 -188 -211 -196v-82h-51v82c-135 9 -213 90 -211 219h97c4 -77 40 -120 114 -132v225c-74 25 -96 34 -120 49c-50 31 -76 79 -76 141c0 106 75 178 196 187v71h51v-72c112 -10 188 -83 187 -182
h-97c-6 51 -37 84 -90 94zM251 407v183c-64 -12 -97 -42 -97 -90c0 -30 15 -55 42 -71c11 -6 22 -10 55 -22zM302 284v-209c68 6 109 44 109 100c0 33 -16 62 -43 80c-13 9 -27 15 -66 29z" />
    <glyph glyph-name="percent" unicode="%" horiz-adv-x="647" 
d="M475 667h85l-389 -667h-84zM486 316c74 0 133 -71 133 -160c0 -90 -59 -161 -134 -161c-76 0 -135 70 -135 161c0 90 59 160 136 160zM485 256c-40 0 -67 -41 -67 -100c0 -60 27 -101 67 -101c39 0 66 41 66 101c0 58 -27 100 -66 100zM163 672c74 0 133 -71 133 -160
c0 -91 -59 -161 -134 -161s-134 71 -134 161s59 160 135 160zM163 612c-40 0 -67 -41 -67 -100c0 -60 27 -101 66 -101s66 41 66 101c0 58 -27 100 -65 100z" />
    <glyph glyph-name="ampersand" unicode="&#x26;" horiz-adv-x="586" 
d="M431 321h79c1 -12 1 -25 1 -29c0 -77 -14 -128 -49 -177l85 -115h-105l-36 53c-46 -44 -91 -62 -161 -62c-125 0 -211 76 -211 187c0 72 30 118 127 197c-61 79 -72 101 -72 147c0 79 64 135 155 135c87 0 145 -53 145 -133c0 -61 -27 -104 -103 -167l124 -168
c16 31 21 57 21 112v20zM234 419c51 41 71 71 71 108c0 32 -25 55 -61 55s-64 -25 -64 -57c0 -29 8 -45 54 -106zM355 117l-139 185c-66 -51 -89 -85 -89 -130c0 -59 50 -101 121 -101c43 0 79 16 107 46z" />
    <glyph glyph-name="quoteright" unicode="&#x2019;" horiz-adv-x="216" 
d="M100 444h-59c32 34 57 83 60 116c-40 2 -63 23 -63 57c0 35 28 62 64 62c41 0 68 -33 68 -82c0 -47 -23 -98 -70 -153z" />
    <glyph glyph-name="parenleft" unicode="(" horiz-adv-x="294" 
d="M186 672h75c-69 -100 -106 -251 -106 -432c0 -187 36 -335 106 -440h-75c-80 106 -121 255 -121 436s42 332 121 436z" />
    <glyph glyph-name="parenright" unicode=")" horiz-adv-x="295" 
d="M108 -200h-75c70 103 106 251 106 433c0 187 -37 340 -106 439h75c80 -104 122 -254 122 -436c0 -180 -41 -329 -122 -436z" />
    <glyph glyph-name="asterisk" unicode="*" 
d="M224 530v120h51v-120l115 37l15 -49l-114 -37l71 -97l-42 -30l-70 97l-71 -97l-41 30l70 97l-114 37l16 49z" />
    <glyph glyph-name="plus" unicode="+" horiz-adv-x="553" 
d="M315 371h188v-74h-188v-195h-77v195h-188v74h188v195h77v-195z" />
    <glyph glyph-name="comma" unicode="," horiz-adv-x="245" 
d="M91 -189h-63c46 54 82 136 85 190c-43 2 -68 25 -68 62s31 67 71 67c44 0 73 -37 73 -93c0 -68 -27 -130 -98 -226z" />
    <glyph glyph-name="hyphen" unicode="-" horiz-adv-x="267" 
d="M0 288h267v-73h-267v73z" />
    <glyph glyph-name="period" unicode="." horiz-adv-x="253" 
d="M127 126c37 0 67 -31 67 -68s-30 -67 -68 -67c-37 0 -67 30 -67 67c0 38 30 68 68 68z" />
    <glyph glyph-name="slash" unicode="/" horiz-adv-x="563" 
d="M37 -173l408 840h82l-408 -840h-82z" />
    <glyph glyph-name="zero" unicode="0" horiz-adv-x="553" 
d="M280 663c138 0 223 -128 223 -336c0 -210 -85 -336 -226 -336c-142 0 -227 126 -227 334c0 214 84 338 230 338zM278 579c-38 0 -66 -16 -84 -48c-28 -48 -43 -120 -43 -206c0 -82 15 -155 43 -202c17 -31 47 -48 83 -48c35 0 65 17 82 48c28 48 43 120 43 204
c0 83 -16 158 -43 204c-18 31 -47 48 -81 48z" />
    <glyph glyph-name="one" unicode="1" horiz-adv-x="553" 
d="M169 486v58c87 3 132 36 147 110h69v-654h-100v486h-116z" />
    <glyph glyph-name="two" unicode="2" horiz-adv-x="553" 
d="M169 465h-87c1 124 75 198 199 198c115 0 190 -66 190 -167c0 -77 -27 -118 -267 -405h274v-91h-403v80c9 11 35 43 79 96c184 223 214 267 214 318c0 48 -38 81 -92 81c-63 0 -101 -39 -107 -110z" />
    <glyph glyph-name="three" unicode="3" horiz-adv-x="553" 
d="M177 480h-87c5 116 78 183 199 183c114 0 188 -67 188 -169c0 -69 -33 -115 -102 -144c80 -25 117 -75 117 -158c0 -121 -87 -202 -216 -202c-135 0 -215 75 -214 201h91c1 -72 45 -113 121 -113c73 0 118 43 118 113c0 49 -25 85 -69 100c-19 6 -52 10 -91 10
c-3 0 -11 0 -20 -1v84c13 -1 19 -1 25 -1c89 0 139 37 139 103c0 55 -38 90 -96 90c-60 0 -94 -32 -103 -96z" />
    <glyph glyph-name="four" unicode="4" horiz-adv-x="553" 
d="M402 227h116v-82h-114v-152h-101v152h-268v79l256 430h111v-427zM308 227l1 310l-179 -310h178z" />
    <glyph glyph-name="five" unicode="5" horiz-adv-x="553" 
d="M136 650h313l-7 -89h-231l-27 -156c37 27 64 36 106 36c118 0 198 -86 198 -213c0 -136 -93 -237 -220 -237c-116 0 -195 70 -202 181h94c10 -61 46 -94 105 -94c71 0 118 58 118 145c0 81 -43 135 -109 135c-45 0 -78 -19 -107 -61l-87 12z" />
    <glyph glyph-name="six" unicode="6" horiz-adv-x="553" 
d="M301 662h110c-69 -80 -135 -168 -171 -228c20 7 36 10 59 10c112 0 191 -91 191 -220c0 -138 -86 -233 -210 -233c-126 0 -217 98 -217 232c0 86 31 170 98 268c37 54 59 81 140 171zM276 365c-66 0 -112 -59 -112 -144c0 -84 47 -145 113 -145c67 0 111 57 111 145
c0 85 -46 144 -112 144z" />
    <glyph glyph-name="seven" unicode="7" horiz-adv-x="553" 
d="M64 650h425v-78l-313 -572h-111l305 555h-306v95z" />
    <glyph glyph-name="eight" unicode="8" horiz-adv-x="553" 
d="M152 343c-51 29 -75 73 -75 134c0 106 86 186 200 186c113 0 199 -80 199 -186c0 -61 -24 -105 -75 -134c60 -34 90 -85 90 -154c0 -115 -90 -198 -215 -198c-124 0 -214 83 -214 198c0 69 30 120 90 154zM278 581c-60 0 -100 -40 -100 -100c0 -59 40 -100 99 -100
c58 0 98 41 98 100s-40 100 -97 100zM277 300c-67 0 -114 -47 -114 -114c0 -66 47 -113 113 -113s113 47 113 113s-47 114 -112 114z" />
    <glyph glyph-name="nine" unicode="9" horiz-adv-x="553" 
d="M250 -12h-110c60 66 138 171 173 230c-19 -7 -36 -10 -59 -10c-110 0 -191 92 -191 218c0 139 90 237 217 237c126 0 210 -93 210 -233c0 -131 -69 -259 -240 -442zM279 578c-68 0 -115 -60 -115 -147c0 -85 46 -144 112 -144c67 0 112 59 112 145c0 87 -44 146 -109 146
z" />
    <glyph glyph-name="colon" unicode=":" horiz-adv-x="253" 
d="M127 126c37 0 67 -31 67 -68s-30 -67 -68 -67c-37 0 -67 30 -67 67c0 38 30 68 68 68zM127 475c37 0 67 -31 67 -68s-30 -67 -68 -67c-37 0 -67 30 -67 67c0 38 30 68 68 68z" />
    <glyph glyph-name="semicolon" unicode=";" horiz-adv-x="245" 
d="M115 475c37 0 67 -31 67 -67c0 -38 -30 -68 -68 -68c-37 0 -67 30 -67 67c0 38 30 68 68 68zM91 -189h-63c46 54 82 136 85 190c-43 2 -68 25 -68 62s31 67 71 67c44 0 73 -37 73 -93c0 -68 -27 -130 -98 -226z" />
    <glyph glyph-name="less" unicode="&#x3c;" 
d="M466 591v-98l-329 -155l329 -155v-97l-433 211v83z" />
    <glyph glyph-name="equal" unicode="=" horiz-adv-x="553" 
d="M50 447h453v-75h-453v75zM50 296h453v-75h-453v75z" />
    <glyph glyph-name="greater" unicode="&#x3e;" 
d="M34 85v98l329 155l-329 156v97l433 -211v-84z" />
    <glyph glyph-name="question" unicode="?" horiz-adv-x="415" 
d="M202 126c37 0 67 -31 67 -68s-30 -67 -68 -67c-37 0 -67 30 -67 67c0 38 30 68 68 68zM248 204h-93c-1 128 1 134 66 204c49 51 60 70 60 102c0 39 -27 64 -69 64c-51 0 -78 -29 -83 -88h-80c2 60 13 94 39 123c32 35 78 53 136 53c101 0 162 -56 162 -147
c0 -54 -15 -81 -82 -152c-56 -60 -57 -62 -56 -159z" />
    <glyph glyph-name="at" unicode="@" horiz-adv-x="733" 
d="M485 493h70l-39 -202c-5 -27 -7 -38 -7 -46c0 -26 12 -44 30 -44c50 0 98 90 98 181c0 140 -102 235 -253 235c-163 0 -282 -122 -282 -289c0 -78 28 -151 77 -201c51 -53 120 -78 215 -78c71 0 131 12 194 40l17 -63c-63 -26 -134 -39 -211 -39c-108 0 -196 31 -260 92
c-65 62 -102 154 -102 250c0 200 150 350 351 350c185 0 318 -124 318 -297c0 -126 -78 -239 -165 -239c-39 0 -66 24 -75 66c-31 -45 -70 -67 -121 -67c-85 0 -145 67 -145 161c0 109 80 201 175 201c50 0 83 -20 105 -63zM380 434c-58 0 -105 -59 -105 -131
c0 -58 31 -94 80 -94c57 0 99 58 99 136c0 56 -28 89 -74 89z" />
    <glyph glyph-name="A" unicode="A" horiz-adv-x="585" 
d="M242 669h100l228 -669h-107l-49 156h-243l-50 -156h-106zM387 245l-95 300l-94 -300h189z" />
    <glyph glyph-name="B" unicode="B" horiz-adv-x="570" 
d="M83 667h152c84 0 122 -4 159 -16c64 -23 103 -79 103 -151c0 -76 -34 -120 -110 -144c99 -23 146 -77 146 -167c0 -81 -47 -149 -118 -172c-45 -14 -78 -17 -194 -17h-138v667zM184 389h59c54 0 83 4 107 16c28 14 45 45 45 83s-19 69 -49 82c-23 9 -48 12 -109 12h-53
v-193zM184 85h62c75 0 103 3 129 15c32 14 51 50 51 95c0 48 -23 84 -62 99c-27 10 -51 12 -116 12h-64v-221z" />
    <glyph glyph-name="C" unicode="C" horiz-adv-x="600" 
d="M556 465h-91c-16 82 -63 124 -138 124c-108 0 -176 -99 -176 -256s68 -255 178 -255c84 0 133 54 143 160h94c-10 -162 -92 -250 -234 -250c-176 0 -289 135 -289 344c0 120 35 216 102 278c49 44 114 69 183 69c133 0 216 -77 228 -214z" />
    <glyph glyph-name="D" unicode="D" horiz-adv-x="637" 
d="M83 667h135c113 0 170 -9 221 -36c95 -51 155 -164 155 -297c0 -132 -56 -244 -149 -295c-56 -32 -102 -39 -241 -39h-121v667zM186 89h54c87 0 121 7 159 32c56 37 88 115 88 214s-34 176 -95 214c-40 25 -68 29 -177 29h-29v-489z" />
    <glyph glyph-name="E" unicode="E" horiz-adv-x="520" 
d="M186 390h268v-89h-268v-212h300v-89h-403v667h395v-89h-292v-188z" />
    <glyph glyph-name="F" unicode="F" horiz-adv-x="504" 
d="M186 390h268v-89h-268v-301h-103v667h395v-89h-292v-188z" />
    <glyph glyph-name="G" unicode="G" horiz-adv-x="632" 
d="M352 338h223v-276c-71 -50 -148 -74 -234 -74c-184 0 -298 132 -298 346c0 209 114 345 288 345c81 0 150 -31 191 -84c26 -35 38 -71 44 -129h-92c-15 82 -61 123 -141 123c-114 0 -182 -96 -182 -255c0 -162 70 -256 190 -256c49 0 101 15 146 43v136h-135v81z" />
    <glyph glyph-name="H" unicode="H" horiz-adv-x="659" 
d="M186 391h288v276h103v-667h-103v306h-288v-306h-103v667h103v-276z" />
    <glyph glyph-name="I" unicode="I" horiz-adv-x="269" 
d="M186 0h-104v667h104v-667z" />
    <glyph glyph-name="J" unicode="J" horiz-adv-x="313" 
d="M129 667h104v-532c0 -110 -3 -133 -21 -167c-27 -54 -88 -80 -184 -80c-7 0 -17 0 -31 1v86c68 0 99 8 116 31c14 17 16 33 16 128v533z" />
    <glyph glyph-name="K" unicode="K" horiz-adv-x="593" 
d="M444 667h121l-260 -312l281 -355h-135l-263 352zM83 667h103v-667h-103v667z" />
    <glyph glyph-name="L" unicode="L" horiz-adv-x="496" 
d="M83 667h106v-578h287v-89h-393v667z" />
    <glyph glyph-name="M" unicode="M" horiz-adv-x="791" 
d="M83 667h148l164 -555l166 555h147v-667h-95v553l-165 -553h-106l-164 553v-553h-95v667z" />
    <glyph glyph-name="N" unicode="N" horiz-adv-x="668" 
d="M83 667h111l293 -510v510h98v-667h-107l-297 509v-509h-98v667z" />
    <glyph glyph-name="O" unicode="O" horiz-adv-x="660" 
d="M331 679c172 0 287 -139 287 -345c0 -207 -115 -346 -287 -346c-174 0 -288 138 -288 350c0 202 118 341 288 341zM331 590c-110 0 -180 -99 -180 -253c0 -161 68 -260 180 -260c110 0 179 99 179 257c0 157 -69 256 -179 256z" />
    <glyph glyph-name="P" unicode="P" horiz-adv-x="547" 
d="M83 667h134c100 0 144 -4 187 -19c75 -25 121 -97 121 -188c0 -88 -45 -158 -118 -183c-40 -14 -82 -18 -177 -18h-44v-259h-103v667zM186 348h44c70 0 91 2 119 10c43 12 69 51 69 103c0 48 -21 85 -56 101c-28 12 -58 16 -133 16h-43v-230z" />
    <glyph glyph-name="Q" unicode="Q" horiz-adv-x="676" 
d="M579 146l135 -150h-122l-66 73c-51 -52 -120 -81 -196 -81c-171 0 -287 140 -287 346s116 345 288 345c170 0 287 -139 287 -344c0 -72 -11 -127 -39 -189zM331 590c-108 0 -180 -101 -180 -253c0 -160 69 -260 180 -260c108 0 179 101 179 256c0 156 -71 257 -179 257z
" />
    <glyph glyph-name="R" unicode="R" horiz-adv-x="577" 
d="M83 667h143c111 0 153 -6 198 -27c63 -30 101 -94 101 -171c0 -87 -43 -150 -127 -184l164 -285h-122l-151 268h-103v-268h-103v667zM186 357h46c72 0 94 2 121 12c41 15 65 52 65 101c0 42 -19 75 -52 91c-28 14 -50 17 -139 17h-41v-221z" />
    <glyph glyph-name="S" unicode="S" horiz-adv-x="557" 
d="M493 482h-99c-6 68 -50 107 -119 107c-62 0 -109 -37 -109 -86c0 -24 13 -45 37 -59c20 -13 32 -18 114 -53c99 -41 129 -59 155 -88c26 -31 40 -71 40 -117c0 -120 -90 -198 -229 -198c-151 0 -235 79 -242 228h100c8 -91 57 -138 144 -138c71 0 121 38 121 91
c0 30 -14 53 -43 73c-21 14 -33 20 -110 53c-73 31 -115 55 -139 78c-34 33 -51 74 -51 121c0 108 89 185 215 185c80 0 146 -31 183 -87c21 -30 29 -60 32 -110z" />
    <glyph glyph-name="T" unicode="T" horiz-adv-x="484" 
d="M16 667h453v-89h-176v-578h-103v578h-174v89z" />
    <glyph glyph-name="U" unicode="U" horiz-adv-x="651" 
d="M75 667h103v-387c0 -82 3 -107 18 -135c21 -42 69 -67 130 -67c71 0 122 32 139 88c7 23 9 46 9 114v387h103v-389c0 -99 -4 -128 -21 -166c-36 -78 -121 -124 -230 -124s-194 46 -230 124c-17 39 -21 67 -21 166v389z" />
    <glyph glyph-name="V" unicode="V" horiz-adv-x="587" 
d="M10 667h110l174 -549l173 549h108l-230 -669h-107z" />
    <glyph glyph-name="W" unicode="W" horiz-adv-x="826" 
d="M13 667h97l128 -543l131 543h89l130 -543l130 543h95l-166 -669h-115l-120 475l-119 -475h-115z" />
    <glyph glyph-name="X" unicode="X" horiz-adv-x="565" 
d="M30 667h118l136 -230l138 230h118l-197 -319l208 -348h-118l-149 254l-152 -254h-117l208 348z" />
    <glyph glyph-name="Y" unicode="Y" horiz-adv-x="539" 
d="M5 667h116l150 -287l147 287h115l-213 -396l1 -271h-104l1 271z" />
    <glyph glyph-name="Z" unicode="Z" horiz-adv-x="497" 
d="M52 667h420v-72l-324 -506h315v-89h-437v81l321 499h-295v87z" />
    <glyph glyph-name="bracketleft" unicode="[" horiz-adv-x="294" 
d="M83 667h177v-78h-90v-704h90v-79h-177v861z" />
    <glyph glyph-name="backslash" unicode="\" horiz-adv-x="563" 
d="M527 -173h-82l-408 840h82z" />
    <glyph glyph-name="bracketright" unicode="]" horiz-adv-x="294" 
d="M212 -194h-177v78h90v704h-90v79h177v-861z" />
    <glyph glyph-name="asciicircum" unicode="^" 
d="M120 352h-104l169 318h130l169 -318h-104l-130 240z" />
    <glyph glyph-name="underscore" unicode="_" 
d="M0 -57h500v-89h-500v89z" />
    <glyph glyph-name="quoteleft" unicode="&#x2018;" horiz-adv-x="209" 
d="M116 679h59c-31 -31 -57 -83 -60 -116c40 -2 63 -23 63 -56c0 -35 -29 -62 -64 -62c-41 0 -68 33 -68 82c0 47 23 97 70 152z" />
    <glyph glyph-name="a" unicode="a" horiz-adv-x="495" 
d="M155 341h-95c6 49 21 79 52 103c33 27 84 42 142 42c80 0 137 -27 157 -74c12 -27 15 -52 15 -112v-185c0 -64 3 -87 15 -115h-91c-6 22 -8 33 -8 59c-26 -47 -71 -70 -136 -70c-100 0 -162 52 -162 136c0 66 38 115 109 142c44 17 72 23 178 42v13c0 61 -23 84 -83 84
c-54 0 -84 -21 -93 -65zM331 204v37c-138 -21 -186 -48 -186 -105c0 -41 33 -69 81 -69c41 0 76 20 92 52c9 18 13 44 13 85z" />
    <glyph glyph-name="b" unicode="b" horiz-adv-x="530" 
d="M70 671h98v-261c38 54 76 76 133 76c111 0 189 -103 189 -248c0 -147 -82 -249 -200 -249c-59 0 -100 24 -129 76c-1 -27 -3 -45 -9 -65h-87c5 36 5 47 5 129v542zM282 402c-71 0 -115 -64 -115 -167c0 -99 43 -163 110 -163c69 0 112 65 112 167c0 100 -41 163 -107 163
z" />
    <glyph glyph-name="c" unicode="c" horiz-adv-x="482" 
d="M440 318h-97c-10 63 -37 90 -89 90c-70 0 -114 -67 -114 -172c0 -106 43 -169 115 -169c56 0 84 30 92 99h96c-7 -111 -79 -179 -188 -179c-130 0 -216 100 -216 249c0 153 85 252 217 252c106 0 171 -60 184 -170z" />
    <glyph glyph-name="d" unicode="d" horiz-adv-x="529" 
d="M459 671v-525c0 -83 2 -114 9 -146h-93c-5 20 -6 31 -6 46c0 6 0 11 1 21c-32 -55 -71 -78 -134 -78c-118 0 -196 97 -196 244c0 148 80 253 193 253c58 0 92 -19 128 -70v255h98zM254 403c-70 0 -113 -63 -113 -168c0 -101 42 -163 110 -163c69 0 112 64 112 166
s-42 165 -109 165z" />
    <glyph glyph-name="e" unicode="e" horiz-adv-x="501" 
d="M462 216h-324c4 -96 48 -148 126 -148c48 0 79 19 100 62l88 -6c-26 -88 -94 -137 -191 -137c-134 0 -222 97 -222 245c0 154 87 256 219 256c125 0 205 -97 205 -251c0 -3 0 -12 -1 -21zM141 289h221c-9 80 -45 120 -107 120c-61 0 -98 -39 -114 -120z" />
    <glyph glyph-name="f" unicode="f" horiz-adv-x="307" 
d="M180 475h115v-78h-114v-397h-100v397h-65v78h65v30c0 66 6 97 23 124c23 35 63 55 114 55c31 0 61 -6 93 -18v-83c-33 12 -53 16 -75 16c-26 0 -44 -13 -51 -37c-3 -11 -5 -34 -5 -66v-21z" />
    <glyph glyph-name="g" unicode="g" horiz-adv-x="508" 
d="M488 475v-72l-97 1c20 -23 32 -59 32 -96c0 -54 -25 -97 -68 -118c-33 -15 -45 -18 -139 -32c-29 -4 -50 -19 -50 -34c0 -19 9 -22 100 -31c88 -9 121 -15 150 -32c38 -22 60 -62 60 -110c0 -96 -84 -153 -226 -153c-138 0 -226 54 -226 138c0 56 30 90 98 114
c-37 15 -52 31 -52 56c0 32 23 53 84 77c-60 27 -87 70 -87 136c0 100 73 165 187 165c28 0 49 -3 83 -13zM248 408c-56 0 -93 -35 -93 -88c0 -50 36 -83 90 -83c56 0 92 33 92 83c0 52 -37 88 -89 88zM239 13c-81 0 -129 -26 -129 -69c0 -44 55 -71 142 -71
c80 0 129 27 129 70c0 45 -51 70 -142 70z" />
    <glyph glyph-name="h" unicode="h" horiz-adv-x="530" 
d="M71 671h98v-250c35 44 80 65 137 65c59 0 111 -26 135 -68c17 -29 22 -60 22 -145v-273h-98v257c0 54 -4 80 -14 100c-14 27 -41 42 -75 42c-39 0 -73 -21 -91 -55c-11 -22 -16 -50 -16 -92v-252h-98v671z" />
    <glyph glyph-name="i" unicode="i" horiz-adv-x="242" 
d="M71 475h100v-475h-100v475zM123 678c35 0 60 -26 60 -63c0 -36 -25 -61 -62 -61s-62 25 -62 60c0 38 26 64 64 64z" />
    <glyph glyph-name="j" unicode="j" horiz-adv-x="262" 
d="M93 475h100v-419c0 -104 -6 -135 -32 -172c-33 -48 -86 -69 -171 -69h-24v85h15c54 0 86 14 101 42c10 20 10 27 11 113v420zM146 678c36 0 60 -25 60 -62s-25 -62 -62 -62s-62 25 -62 61c0 37 26 63 64 63z" />
    <glyph glyph-name="k" unicode="k" horiz-adv-x="511" 
d="M357 475h119l-188 -217l203 -258h-133l-187 256zM71 671h98v-671h-98v671z" />
    <glyph glyph-name="l" unicode="l" horiz-adv-x="242" 
d="M71 671h100v-671h-100v671z" />
    <glyph glyph-name="m" unicode="m" horiz-adv-x="802" 
d="M59 475h95c7 -18 10 -38 10 -64c33 52 78 75 141 75c65 0 108 -25 134 -80c38 55 84 80 150 80c61 0 107 -24 128 -66c15 -30 17 -43 17 -137v-283h-98v282c0 51 -3 69 -13 85c-13 21 -38 32 -71 32c-67 0 -100 -41 -100 -125v-274h-98v271c0 62 -2 75 -11 92
c-12 23 -39 36 -72 36c-42 0 -76 -20 -90 -54c-9 -20 -12 -41 -12 -75v-270h-98v346c0 82 -1 94 -12 129z" />
    <glyph glyph-name="n" unicode="n" horiz-adv-x="527" 
d="M58 475h95c7 -19 9 -35 10 -65c33 51 81 76 143 76c61 0 112 -28 135 -73c16 -31 19 -52 19 -140v-273h-98v257c0 58 -3 81 -13 101c-13 27 -39 41 -73 41c-39 0 -73 -20 -91 -54c-11 -21 -16 -49 -16 -92v-253h-98v309c0 116 0 120 -13 166z" />
    <glyph glyph-name="o" unicode="o" horiz-adv-x="521" 
d="M261 488c129 0 221 -105 221 -251s-92 -250 -221 -250c-131 0 -222 104 -222 254c0 142 94 247 222 247zM261 408c-71 0 -121 -69 -121 -169c0 -104 48 -172 121 -172c71 0 120 69 120 170s-49 171 -120 171z" />
    <glyph glyph-name="p" unicode="p" horiz-adv-x="529" 
d="M71 -197v525c0 84 -2 115 -9 147h93c5 -15 9 -40 9 -62c32 51 72 73 132 73c116 0 194 -99 194 -247c0 -147 -78 -250 -190 -250c-56 0 -94 20 -131 69v-255h-98zM281 403c-70 0 -114 -65 -114 -167c0 -98 45 -163 114 -163c68 0 108 61 108 165c0 102 -41 165 -108 165z
" />
    <glyph glyph-name="q" unicode="q" horiz-adv-x="529" 
d="M361 -197v254c-37 -50 -70 -68 -124 -68c-116 0 -197 100 -197 245c0 151 79 252 198 252c59 0 101 -24 128 -73c0 22 4 48 9 62h93c-7 -32 -9 -63 -9 -147v-525h-98zM251 403c-67 0 -110 -65 -110 -167c0 -100 43 -163 110 -163c69 0 112 62 112 165
c0 99 -44 165 -112 165z" />
    <glyph glyph-name="r" unicode="r" horiz-adv-x="353" 
d="M64 475h94c4 -23 7 -48 7 -73c0 -7 0 -15 -1 -27c35 76 76 111 130 111c14 0 27 -3 47 -10v-99c-27 15 -46 21 -69 21c-38 0 -68 -23 -86 -65c-12 -27 -17 -63 -17 -116v-217h-99v321c0 103 -1 112 -6 154z" />
    <glyph glyph-name="s" unicode="s" horiz-adv-x="463" 
d="M415 336h-95c-7 51 -34 75 -86 75c-46 0 -78 -25 -78 -60s16 -45 113 -73c74 -22 104 -36 124 -60c18 -21 27 -49 27 -81c0 -93 -69 -150 -183 -150c-127 0 -196 58 -196 166h93c5 -61 37 -89 100 -89c54 0 87 26 87 66c0 22 -9 35 -33 46c-15 8 -27 12 -101 35
c-95 28 -129 63 -129 131c0 87 72 146 178 146c108 0 173 -55 179 -152z" />
    <glyph glyph-name="t" unicode="t" horiz-adv-x="337" 
d="M197 475h104l-1 -78h-105l-3 -210c-1 -32 -1 -32 -1 -40c0 -55 12 -71 51 -71c22 0 45 5 70 16l-1 -83c-34 -13 -63 -19 -96 -19c-51 0 -90 19 -110 53c-11 20 -15 40 -15 85c0 10 0 11 2 59l6 210h-73l1 78h75l3 136h95z" />
    <glyph glyph-name="u" unicode="u" horiz-adv-x="528" 
d="M68 475h98v-280c0 -44 6 -72 18 -88c15 -20 41 -31 71 -31c39 0 70 18 88 51c11 20 16 46 16 87v261h98v-329c0 -107 0 -107 12 -146h-94c-5 14 -9 36 -10 59c-32 -49 -70 -70 -130 -70c-64 0 -118 28 -145 76c-15 27 -22 66 -22 127v283z" />
    <glyph glyph-name="v" unicode="v" horiz-adv-x="469" 
d="M10 475h103l121 -368l120 368h103l-169 -479h-109z" />
    <glyph glyph-name="w" unicode="w" horiz-adv-x="708" 
d="M14 475h100l94 -355l105 355h81l104 -355l96 355h99l-140 -479h-102l-99 325l-98 -325h-102z" />
    <glyph glyph-name="x" unicode="x" horiz-adv-x="473" 
d="M27 475h117l92 -150l94 150h118l-151 -222l172 -253h-119l-114 175l-114 -175h-119l174 253z" />
    <glyph glyph-name="y" unicode="y" horiz-adv-x="471" 
d="M16 475h104l117 -378l120 378h103l-159 -452c-43 -123 -55 -146 -95 -179c-37 -30 -85 -44 -147 -44c-8 0 -18 0 -32 1v85l18 1h7c78 3 103 22 130 99z" />
    <glyph glyph-name="z" unicode="z" horiz-adv-x="412" 
d="M45 475h342v-73l-249 -321h248v-81h-364v76l245 318h-222v81z" />
    <glyph glyph-name="braceleft" unicode="{" horiz-adv-x="294" 
d="M187 504v-141c0 -70 -12 -97 -59 -127c47 -30 59 -56 59 -126v-141c0 -83 10 -92 95 -92v-76c-14 -1 -19 -1 -31 -1c-114 0 -151 38 -151 157v156c0 57 -15 82 -55 91v64c40 10 55 34 55 91v156c0 119 37 157 151 157h31v-77c-88 -2 -95 -9 -95 -91z" />
    <glyph glyph-name="bar" unicode="|" 
d="M201 667h98v-834h-98v834z" />
    <glyph glyph-name="braceright" unicode="}" horiz-adv-x="294" 
d="M107 -31v141c0 70 12 96 59 126c-47 30 -59 56 -59 127v141c0 82 -7 89 -95 91v77h31c114 0 151 -38 151 -157v-156c0 -57 15 -82 55 -91v-64c-40 -9 -55 -34 -55 -91v-156c0 -67 -9 -98 -34 -124c-25 -24 -58 -33 -117 -33c-12 0 -18 0 -31 1v76h14c41 0 66 9 74 28
c6 12 7 25 7 64z" />
    <glyph glyph-name="asciitilde" unicode="~" horiz-adv-x="667" 
d="M148 573l-56 36c22 46 26 54 38 71c28 37 62 55 105 55c26 0 58 -9 109 -30c56 -24 70 -28 92 -28c35 0 54 14 82 60l57 -34c-25 -51 -40 -73 -66 -92c-25 -19 -55 -29 -86 -29c-25 0 -50 8 -142 45c-19 8 -39 13 -54 13c-32 0 -53 -18 -79 -67z" />
    <glyph glyph-name="exclamdown" unicode="&#xa1;" horiz-adv-x="250" 
d="M178 -186h-106l13 447h83zM124 475c38 0 68 -30 68 -67c0 -38 -30 -68 -68 -68c-37 0 -67 31 -67 68s30 67 67 67z" />
    <glyph glyph-name="cent" unicode="&#xa2;" horiz-adv-x="553" 
d="M310 509v-332c43 11 66 41 72 95h97c-4 -95 -75 -169 -169 -176v-96h-52v97c-116 19 -184 108 -184 242c0 140 69 233 186 252v83h51v-83c94 -8 156 -71 166 -167h-99c-6 49 -25 73 -68 85zM260 178v329c-56 -22 -86 -82 -86 -169c0 -85 31 -142 86 -160z" />
    <glyph glyph-name="sterling" unicode="&#xa3;" horiz-adv-x="553" 
d="M252 382h152v-74h-166c-14 -100 -36 -174 -70 -229c42 11 64 14 105 14c14 0 31 -1 63 -2c13 -1 29 -1 34 -1c46 0 59 18 61 82h82c0 -60 -8 -94 -28 -127c-23 -35 -56 -49 -115 -49c-18 0 -18 0 -98 5c-27 2 -53 3 -75 3c-50 0 -99 -3 -158 -10c38 45 72 155 96 313h-87
v75h101c22 120 26 135 42 180c29 81 76 115 157 115c59 0 106 -22 129 -61c14 -22 21 -52 24 -96h-88c-5 50 -23 71 -63 71c-34 0 -56 -19 -68 -57c-11 -35 -16 -60 -28 -138z" />
    <glyph glyph-name="fraction" unicode="&#x2044;" horiz-adv-x="111" 
d="M204 650h80l-378 -650h-80z" />
    <glyph glyph-name="yen" unicode="&#xa5;" horiz-adv-x="553" 
d="M417 437h91v-64h-124l-38 -73h162v-64h-178v-236h-103v236h-181v64h164l-38 73h-126v64h93l-120 230h116l143 -288l143 288h114z" />
    <glyph glyph-name="florin" unicode="&#x192;" horiz-adv-x="553" 
d="M372 475h108v-74h-121l-50 -284c-21 -121 -28 -147 -46 -181c-26 -47 -68 -72 -121 -72c-42 0 -82 13 -130 40l15 81c45 -26 75 -37 105 -37c45 0 55 21 81 169l50 284h-95v74h108l11 57c12 72 24 108 44 135c25 34 63 52 109 52c33 0 66 -9 101 -28l-14 -78
c-42 18 -59 23 -78 23c-38 0 -53 -26 -70 -121z" />
    <glyph glyph-name="section" unicode="&#xa7;" 
d="M430 486h-81c-9 67 -38 97 -96 97c-50 0 -85 -28 -85 -68c0 -18 7 -34 20 -45c14 -13 22 -17 91 -54c72 -39 105 -59 125 -76c29 -26 43 -55 43 -93c0 -56 -28 -99 -88 -132c48 -36 67 -71 67 -124c0 -97 -69 -155 -183 -155c-125 0 -192 63 -193 182h83
c10 -73 41 -102 109 -102c58 0 93 29 93 77c0 29 -13 46 -51 70c-20 13 -24 15 -109 60c-86 45 -124 92 -124 150c0 51 29 93 88 129c-46 37 -62 66 -62 112c0 86 74 149 174 149c111 0 174 -62 179 -177zM207 361c-44 -25 -66 -52 -66 -83c0 -40 24 -60 152 -126
c44 26 65 54 65 85c0 26 -12 44 -42 62c-33 21 -75 45 -109 62z" />
    <glyph glyph-name="currency" unicode="&#xa4;" horiz-adv-x="667" 
d="M39 130l97 99c-31 42 -47 88 -47 139s14 92 48 140l-100 99l55 55l99 -99c47 33 90 47 143 47c51 0 94 -14 140 -46l98 98l55 -55l-98 -98c34 -48 48 -89 48 -140c0 -52 -14 -94 -47 -140l99 -99l-54 -55l-99 99c-46 -33 -91 -48 -142 -48c-50 0 -92 14 -143 48l-98 -98z
M335 522c-87 0 -155 -68 -155 -154c0 -84 69 -154 153 -154s153 69 153 154c0 84 -68 154 -151 154z" />
    <glyph glyph-name="quotesingle" unicode="'" horiz-adv-x="250" 
d="M157 399h-63l-18 268h99z" />
    <glyph glyph-name="quotedblleft" unicode="&#x201c;" horiz-adv-x="374" 
d="M280 679h59c-31 -32 -57 -83 -59 -116c40 -2 63 -23 63 -56c0 -35 -29 -62 -65 -62c-40 0 -68 33 -68 82c0 46 24 97 70 152zM116 679h59c-31 -31 -57 -83 -60 -116c40 -2 63 -23 63 -56c0 -35 -29 -62 -64 -62c-41 0 -68 33 -68 82c0 47 23 97 70 152z" />
    <glyph glyph-name="guillemotleft" unicode="&#xab;" horiz-adv-x="438" 
d="M375 0h-80l-100 233l100 243h80l-84 -243zM214 0h-80l-100 233l100 243h80l-84 -243z" />
    <glyph glyph-name="guilsinglleft" unicode="&#x2039;" horiz-adv-x="274" 
d="M214 0h-84l-100 233l100 243h84l-84 -243z" />
    <glyph glyph-name="guilsinglright" unicode="&#x203a;" horiz-adv-x="274" 
d="M60 476h84l100 -232l-100 -244h-84l84 244z" />
    <glyph glyph-name="endash" unicode="&#x2013;" 
d="M56 288h387v-73h-387v73z" />
    <glyph glyph-name="dagger" unicode="&#x2020;" 
d="M204 650h94v-181h158v-78h-158v-523h-94v523h-159v78h159v181z" />
    <glyph glyph-name="daggerdbl" unicode="&#x2021;" 
d="M203 650h92v-101h161v-78h-161v-400h161v-78h-161v-125h-92v125h-159v78h159v400h-159v78h159v101z" />
    <glyph glyph-name="periodcentered" unicode="&#xb7;" horiz-adv-x="253" 
d="M127 318c37 0 67 -31 67 -68s-30 -67 -67 -67c-38 0 -68 30 -68 67c0 38 30 68 68 68z" />
    <glyph glyph-name="paragraph" unicode="&#xb6;" horiz-adv-x="621" 
d="M218 -95v413h-13c-107 0 -181 70 -181 172c0 68 33 124 87 152c33 16 82 25 144 25h294v-77h-66v-685h-85v685h-95v-685h-85z" />
    <glyph glyph-name="bullet" unicode="&#x2022;" horiz-adv-x="667" 
d="M337 478c74 0 136 -63 136 -138c0 -77 -62 -139 -138 -139s-139 62 -139 138c0 78 62 139 141 139z" />
    <glyph glyph-name="quotesinglbase" unicode="&#x201a;" horiz-adv-x="216" 
d="M100 -115h-59c33 34 57 83 60 116c-40 2 -63 23 -63 57c0 35 28 62 64 62c41 0 68 -33 68 -82c0 -47 -23 -98 -70 -153z" />
    <glyph glyph-name="quotedblbase" unicode="&#x201e;" horiz-adv-x="378" 
d="M93 -115h-59c32 34 57 82 60 116c-40 2 -63 23 -63 57c0 35 28 62 64 62c41 0 68 -33 68 -83c0 -46 -23 -96 -70 -152zM262 -115h-58c31 34 56 83 59 116c-40 2 -63 23 -63 57c0 35 29 62 64 62c41 0 68 -33 68 -82c0 -47 -22 -96 -70 -153z" />
    <glyph glyph-name="quotedblright" unicode="&#x201d;" horiz-adv-x="378" 
d="M93 444h-59c32 34 57 82 60 116c-40 2 -63 23 -63 57c0 35 28 62 64 62c41 0 68 -33 68 -83c0 -46 -23 -96 -70 -152zM262 444h-58c31 34 56 83 59 116c-40 2 -63 23 -63 57c0 35 28 62 64 62c41 0 68 -33 68 -82c0 -47 -23 -97 -70 -153z" />
    <glyph glyph-name="guillemotright" unicode="&#xbb;" horiz-adv-x="438" 
d="M64 476h80l100 -232l-100 -244h-80l84 244zM225 476h80l100 -232l-100 -244h-80l84 244z" />
    <glyph glyph-name="ellipsis" unicode="&#x2026;" horiz-adv-x="704" 
d="M127 126c37 0 67 -31 67 -68s-30 -67 -68 -67c-37 0 -67 30 -67 67c0 38 30 68 68 68zM352 126c37 0 67 -31 67 -68s-30 -67 -68 -67c-37 0 -67 30 -67 67c0 38 30 68 68 68zM578 126c37 0 67 -31 67 -68s-30 -67 -68 -67c-37 0 -67 30 -67 67c0 38 30 68 68 68z" />
    <glyph glyph-name="perthousand" unicode="&#x2030;" horiz-adv-x="962" 
d="M475 667h85l-389 -667h-84zM486 316c74 0 133 -71 133 -160c0 -90 -59 -161 -134 -161c-76 0 -135 70 -135 161c0 90 59 160 136 160zM485 256c-40 0 -67 -41 -67 -100c0 -60 27 -101 67 -101c39 0 66 41 66 101c0 58 -27 100 -66 100zM800 316c74 0 133 -71 133 -160
c0 -91 -59 -161 -134 -161s-134 71 -134 161s59 160 135 160zM800 256c-40 0 -67 -41 -67 -100c0 -60 27 -101 66 -101s66 41 66 101c0 58 -27 100 -65 100zM163 672c74 0 133 -71 133 -160c0 -91 -59 -161 -134 -161s-134 71 -134 161s59 160 135 160zM163 612
c-40 0 -67 -41 -67 -100c0 -60 27 -101 66 -101s66 41 66 101c0 58 -27 100 -65 100z" />
    <glyph glyph-name="questiondown" unicode="&#xbf;" horiz-adv-x="415" 
d="M225 475c37 0 67 -30 67 -67c0 -38 -30 -68 -68 -68c-37 0 -67 30 -67 68c0 37 30 67 68 67zM179 262h93c1 -128 -1 -134 -66 -204c-49 -52 -60 -70 -60 -102c0 -39 27 -64 70 -64c51 0 78 29 82 88h80c-2 -61 -12 -94 -39 -123c-32 -35 -78 -53 -136 -53
c-100 0 -162 56 -162 147c0 54 15 81 83 152c51 54 56 65 56 130c0 10 0 17 -1 29z" />
    <glyph glyph-name="grave" unicode="`" 
d="M328 540h-77l-167 151h128z" />
    <glyph glyph-name="acute" unicode="&#xb4;" 
d="M189 540l116 151h128l-167 -151h-77z" />
    <glyph glyph-name="circumflex" unicode="&#x2c6;" 
d="M88 545l117 146h91l117 -146h-91l-71 90l-72 -90h-91z" />
    <glyph glyph-name="tilde" unicode="&#x2dc;" 
d="M144 555l-46 12c16 71 45 105 87 105c18 0 36 -6 67 -20c37 -18 48 -22 61 -22c19 0 34 16 46 49l44 -12c-12 -67 -44 -109 -86 -109c-17 0 -38 7 -71 22c-39 18 -48 21 -60 21c-19 0 -33 -16 -42 -46z" />
    <glyph glyph-name="macron" unicode="&#xaf;" 
d="M109 648h281v-64h-281v64z" />
    <glyph glyph-name="breve" unicode="&#x2d8;" 
d="M120 682h46c19 -49 47 -73 85 -73s62 22 82 73h46c-9 -87 -57 -140 -127 -140c-71 0 -123 55 -132 140z" />
    <glyph glyph-name="dotaccent" unicode="&#x2d9;" 
d="M251 680c33 0 60 -28 60 -61c0 -34 -27 -61 -61 -61s-61 27 -61 61s27 61 62 61z" />
    <glyph glyph-name="dieresis" unicode="&#xa8;" 
d="M164 679c33 0 60 -27 60 -60c0 -34 -27 -61 -60 -61c-34 0 -61 27 -61 60c0 34 27 61 61 61zM338 680c33 0 60 -28 60 -61c0 -34 -27 -61 -61 -61s-61 27 -61 61s27 61 62 61z" />
    <glyph glyph-name="ring" unicode="&#x2da;" 
d="M251 721c52 0 95 -44 95 -96c0 -53 -43 -96 -96 -96s-96 43 -96 96s43 96 97 96zM251 674c-28 0 -50 -22 -50 -49s22 -49 49 -49s49 22 49 49s-22 49 -48 49z" />
    <glyph glyph-name="cedilla" unicode="&#xb8;" 
d="M214 0h58l-20 -50c59 -10 89 -39 89 -84c0 -54 -42 -93 -100 -93c-27 0 -49 7 -81 24v43c37 -15 44 -17 60 -17c32 0 52 20 52 50c0 31 -24 51 -63 51c-7 0 -12 0 -24 -1z" />
    <glyph glyph-name="hungarumlaut" unicode="&#x2dd;" 
d="M144 540l98 151h111l-139 -151h-70zM291 540l98 151h111l-139 -151h-70z" />
    <glyph glyph-name="ogonek" unicode="&#x2db;" 
d="M314 0h84c-66 -35 -98 -67 -98 -97c0 -26 20 -42 50 -42c15 0 30 3 45 9v-48c-21 -10 -40 -14 -64 -14c-61 0 -103 37 -103 90c0 44 27 76 86 102z" />
    <glyph glyph-name="caron" unicode="&#x2c7;" 
d="M413 691l-117 -146h-91l-117 146h91l71 -90l71 90h92z" />
    <glyph glyph-name="emdash" unicode="&#x2014;" horiz-adv-x="606" 
d="M0 288h606v-73h-606v73z" />
    <glyph glyph-name="AE" unicode="&#xc6;" horiz-adv-x="886" 
d="M407 667h439v-89h-284v-189h260v-89h-260v-211h290v-89h-395v156h-238l-90 -156h-112zM457 245v328l-187 -328h187z" />
    <glyph glyph-name="ordfeminine" unicode="&#xaa;" 
d="M192 580h-63c5 61 48 95 124 95c49 0 85 -16 100 -45c9 -16 10 -26 10 -69v-111c0 -39 2 -52 10 -71h-61c-4 14 -5 20 -6 31c-22 -27 -45 -37 -84 -37c-62 0 -102 32 -102 83c0 40 25 72 69 89c26 10 26 10 111 28v8c0 29 -16 42 -51 42s-53 -13 -57 -43zM300 504v23
c-88 -18 -114 -32 -114 -64c0 -23 19 -39 48 -39c46 0 66 24 66 80zM111 323h270v-46h-270v46z" />
    <glyph glyph-name="Lslash" unicode="&#x141;" horiz-adv-x="496" 
d="M83 349v318h106v-259l157 116v-92l-157 -116v-227h287v-89h-393v257l-67 -52v92z" />
    <glyph glyph-name="Oslash" unicode="&#xd8;" horiz-adv-x="660" 
d="M503 620l41 53h80l-76 -100c47 -61 70 -142 70 -242c0 -202 -118 -344 -286 -344c-67 0 -123 20 -176 62l-41 -56h-78l75 103c-50 72 -69 139 -69 238c0 208 114 345 287 345c67 0 120 -18 173 -59zM179 187l264 358c-33 32 -68 46 -113 46c-109 0 -179 -101 -179 -261
c0 -55 6 -87 28 -143zM481 487l-265 -361c38 -36 69 -50 117 -50c108 0 177 102 177 260c0 57 -7 93 -29 151z" />
    <glyph glyph-name="OE" unicode="&#x152;" horiz-adv-x="947" 
d="M511 603v64h393v-89h-290v-188h266v-89h-266v-212h299v-89h-402v64c-49 -54 -100 -76 -178 -76c-178 0 -290 133 -290 345c0 214 111 346 291 346c77 0 130 -23 177 -76zM334 590c-116 0 -183 -95 -183 -259c0 -158 68 -254 180 -254c111 0 180 98 180 256
c0 157 -69 257 -177 257z" />
    <glyph glyph-name="ordmasculine" unicode="&#xba;" 
d="M250 675c81 0 139 -63 139 -151c0 -90 -58 -152 -141 -152c-79 0 -137 64 -137 152s58 151 139 151zM250 623c-44 0 -73 -40 -73 -99s29 -100 72 -100c45 0 74 39 74 100c0 59 -30 99 -73 99zM115 323h270v-46h-270v46z" />
    <glyph glyph-name="ae" unicode="&#xe6;" horiz-adv-x="795" 
d="M757 216h-331c1 -94 50 -149 132 -149c49 0 80 19 101 63l89 -7c-20 -83 -92 -136 -188 -136c-83 0 -149 36 -186 101c-31 -69 -84 -101 -166 -101c-99 0 -164 53 -164 133c0 106 102 167 282 170v26c0 67 -22 92 -79 92c-50 0 -81 -25 -93 -75h-95c11 99 81 155 193 155
c75 0 118 -20 149 -71c43 50 87 71 149 71c128 0 207 -99 207 -258v-14zM431 289h221c-11 82 -45 121 -106 121s-101 -42 -115 -121zM326 217h-11c-108 0 -170 -33 -170 -90c0 -38 30 -63 76 -63c69 0 105 45 105 134v19z" />
    <glyph glyph-name="dotlessi" unicode="&#x131;" horiz-adv-x="242" 
d="M71 475h100v-475h-100v475z" />
    <glyph glyph-name="lslash" unicode="&#x142;" horiz-adv-x="242" 
d="M70 377v294h100v-244l72 51v-78l-72 -51v-349h-100v299l-71 -51v78z" />
    <glyph glyph-name="oslash" unicode="&#xf8;" horiz-adv-x="521" 
d="M80 81l-4 7c-29 55 -38 89 -38 148c0 147 93 252 222 252c56 0 91 -13 143 -53l37 40h70l-70 -79l3 -10l15 -27c14 -26 24 -76 24 -122c0 -145 -93 -250 -222 -250c-55 0 -105 19 -142 53l-36 -40h-72zM151 155l188 215c-15 22 -47 38 -81 38c-69 0 -119 -72 -119 -173
c0 -31 3 -49 12 -80zM367 322l-188 -219c27 -26 49 -36 81 -36c72 0 121 70 121 173c0 29 -3 47 -14 82z" />
    <glyph glyph-name="oe" unicode="&#x153;" horiz-adv-x="842" 
d="M803 214h-329c2 -94 49 -147 129 -147c51 0 86 22 103 63l88 -6c-25 -88 -93 -137 -190 -137c-76 0 -133 29 -177 90c-46 -64 -93 -90 -164 -90c-131 0 -224 104 -224 251s92 250 224 250c75 0 129 -31 165 -94c49 67 97 94 170 94c123 0 205 -99 205 -248v-26zM477 285
h225c-7 82 -45 125 -109 125c-63 0 -102 -43 -116 -125zM262 408c-73 0 -122 -69 -122 -171c0 -101 49 -170 121 -170c71 0 119 69 119 170c0 100 -49 171 -118 171z" />
    <glyph glyph-name="germandbls" unicode="&#xdf;" horiz-adv-x="526" 
d="M62 0v421c0 113 4 138 25 175c30 51 91 80 166 80c110 0 186 -67 186 -163c0 -68 -33 -111 -102 -135c100 -23 150 -85 150 -188c0 -114 -73 -197 -174 -197c-29 0 -51 6 -77 19v87c23 -14 42 -19 65 -19c52 0 85 41 85 106c0 90 -59 143 -163 144l-10 1v85
c7 -1 16 -1 20 -1c67 0 108 34 108 91c0 54 -35 89 -89 89c-41 0 -70 -18 -82 -50c-9 -23 -10 -39 -10 -115v-430h-98z" />
    <glyph glyph-name="onesuperior" unicode="&#xb9;" horiz-adv-x="361" 
d="M78 547v40c56 1 83 20 92 65h48v-392h-68v287h-72z" />
    <glyph glyph-name="logicalnot" unicode="&#xac;" 
d="M368 0v175h-335v92h433v-267h-98z" />
    <glyph glyph-name="mu" unicode="&#xb5;" 
d="M37 -170v650h98v-264c0 -68 9 -98 38 -124c20 -19 48 -29 76 -29c35 0 66 15 87 43c22 30 29 59 29 117v257h98v-480h-98v72c-28 -58 -64 -83 -118 -83c-49 0 -83 20 -112 68v-227h-98z" />
    <glyph glyph-name="trademark" unicode="&#x2122;" horiz-adv-x="806" 
d="M7 667h287v-58h-108v-342h-70v342h-109v58zM343 667h97l113 -322l114 322h97v-400h-65v314l-111 -314h-70l-111 313v-313h-64v400z" />
    <glyph glyph-name="Eth" unicode="&#xd0;" horiz-adv-x="637" 
d="M83 667h135c113 0 170 -9 221 -36c95 -51 155 -165 155 -297s-56 -244 -149 -295c-56 -32 -102 -39 -241 -39h-121v307h-60v83h60v277zM186 89h54c87 0 121 7 159 32c56 37 88 115 88 213c0 99 -34 177 -95 215c-40 25 -68 29 -177 29h-29v-188h145v-83h-145v-218z" />
    <glyph glyph-name="onehalf" unicode="&#xbd;" horiz-adv-x="852" 
d="M78 547v40c55 1 83 20 92 65h48v-392h-68v287h-72zM575 650h81l-378 -650h-81zM610 275h-59c0 78 46 123 126 123c74 0 122 -40 122 -102c0 -46 -20 -75 -164 -236h168v-60h-257v52c6 7 23 26 50 57c115 131 134 157 134 186c0 27 -23 45 -55 45c-40 0 -62 -22 -65 -65z
" />
    <glyph glyph-name="plusminus" unicode="&#xb1;" horiz-adv-x="553" 
d="M315 386h188v-74h-188v-170h-77v170h-188v74h188v195h77v-195zM50 88h453v-75h-453v75z" />
    <glyph glyph-name="Thorn" unicode="&#xde;" horiz-adv-x="547" 
d="M83 667h103v-78h31c100 0 144 -5 187 -19c75 -25 121 -97 121 -187c0 -88 -45 -159 -118 -183c-41 -14 -81 -18 -177 -18h-44v-182h-103v667zM186 271h44c71 0 91 2 119 10c43 12 69 51 69 102c0 48 -21 85 -56 101c-28 13 -56 16 -133 16h-43v-229z" />
    <glyph glyph-name="onequarter" unicode="&#xbc;" horiz-adv-x="852" 
d="M78 547v40c55 1 83 20 92 65h48v-392h-68v287h-72zM575 650h81l-378 -650h-81zM752 140h72v-54h-71v-90h-68v90h-167v50l161 256h73v-252zM688 140v171l-103 -171h103z" />
    <glyph glyph-name="divide" unicode="&#xf7;" horiz-adv-x="553" 
d="M277 242c32 0 58 -27 58 -59c0 -33 -27 -59 -59 -59c-33 0 -59 26 -59 59s26 59 60 59zM277 543c32 0 58 -27 58 -59c0 -33 -27 -59 -59 -59c-33 0 -59 26 -59 59s26 59 60 59zM50 372h453v-75h-453v75z" />
    <glyph glyph-name="brokenbar" unicode="&#xa6;" 
d="M201 667h98v-339h-98v339zM201 153h98v-320h-98v320z" />
    <glyph glyph-name="degree" unicode="&#xb0;" 
d="M251 679c81 0 147 -64 147 -144s-66 -145 -147 -145c-83 0 -148 65 -148 147c0 77 67 142 148 142zM251 619c-47 0 -86 -38 -86 -83c0 -48 38 -86 86 -86c47 0 86 38 86 85c0 46 -39 84 -86 84z" />
    <glyph glyph-name="thorn" unicode="&#xfe;" horiz-adv-x="529" 
d="M71 -197v868h98v-259c32 52 70 74 127 74c116 0 194 -100 194 -247c0 -149 -77 -250 -190 -250c-58 0 -94 19 -131 69v-255h-98zM281 403c-70 0 -114 -65 -114 -168c0 -99 45 -163 114 -163c68 0 108 61 108 165c0 102 -42 166 -108 166z" />
    <glyph glyph-name="threequarters" unicode="&#xbe;" horiz-adv-x="852" 
d="M116 549h-59c2 71 49 112 127 112c72 0 120 -40 120 -101c0 -39 -20 -69 -59 -85c44 -15 68 -48 68 -94c0 -72 -55 -121 -137 -121c-88 0 -137 44 -136 123h61c0 -43 26 -66 73 -66c45 0 71 24 71 63c0 44 -29 63 -96 63c-3 0 -9 0 -16 -1v56c8 -1 14 -1 18 -1
c55 0 85 21 85 58c0 30 -23 49 -57 49c-38 0 -58 -18 -63 -55zM575 650h81l-378 -650h-81zM752 140h72v-54h-71v-90h-68v90h-167v50l161 256h73v-252zM688 140v171l-103 -171h103z" />
    <glyph glyph-name="twosuperior" unicode="&#xb2;" horiz-adv-x="361" 
d="M119 535h-59c0 78 46 123 127 123c73 0 121 -41 121 -102c0 -47 -12 -64 -164 -236h168v-60h-257v52l10 11c13 16 27 31 40 46c115 131 134 157 134 186c0 27 -22 45 -55 45c-40 0 -62 -22 -65 -65z" />
    <glyph glyph-name="registered" unicode="&#xae;" horiz-adv-x="768" 
d="M255 532h93c68 0 95 -4 124 -16c40 -18 64 -57 64 -104c0 -51 -26 -88 -77 -109l103 -171h-82l-95 159h-60v-159h-70v400zM325 349h26c45 0 57 1 74 7c25 9 39 29 39 57c0 24 -11 42 -31 51c-17 9 -30 10 -85 10h-23v-125zM388 680c186 0 341 -157 341 -346
c0 -191 -155 -346 -346 -346c-190 0 -345 155 -345 345c0 194 154 347 350 347zM387 635c-167 0 -298 -133 -298 -302c0 -165 132 -300 295 -300c162 0 294 135 294 301c0 164 -132 301 -291 301z" />
    <glyph glyph-name="minus" unicode="&#x2212;" horiz-adv-x="553" 
d="M50 372h453v-75h-453v75z" />
    <glyph glyph-name="eth" unicode="&#xf0;" horiz-adv-x="521" 
d="M271 628l74 42l34 -47l-73 -40c143 -163 176 -227 176 -340c0 -154 -87 -256 -218 -256c-132 0 -225 103 -225 249c0 141 87 245 205 245c20 0 32 -3 59 -14l-62 80l-69 -37l-35 44l72 41l-42 51l54 34zM263 406c-74 0 -123 -67 -123 -169c0 -100 50 -170 121 -170
c70 0 120 70 120 169c0 101 -48 170 -118 170z" />
    <glyph glyph-name="multiply" unicode="&#xd7;" horiz-adv-x="553" 
d="M331 334l142 -143l-53 -53l-142 142l-145 -145l-54 54l145 145l-142 143l53 53l142 -143l143 143l54 -54z" />
    <glyph glyph-name="threesuperior" unicode="&#xb3;" horiz-adv-x="361" 
d="M116 549h-59c2 71 49 112 127 112c72 0 120 -40 120 -101c0 -39 -20 -69 -59 -85c44 -15 68 -48 68 -94c0 -72 -55 -121 -137 -121c-88 0 -137 44 -136 123h61c0 -43 26 -66 73 -66c45 0 71 24 71 63c0 44 -29 63 -96 63c-3 0 -9 0 -16 -1v56c8 -1 14 -1 18 -1
c55 0 85 21 85 58c0 30 -23 49 -57 49c-38 0 -58 -18 -63 -55z" />
    <glyph glyph-name="copyright" unicode="&#xa9;" horiz-adv-x="768" 
d="M546 414h-63c-10 50 -37 73 -84 73c-67 0 -110 -58 -110 -149c0 -90 43 -147 111 -147c52 0 83 33 87 94h64c-3 -94 -60 -153 -151 -153c-111 0 -184 81 -184 205c0 126 72 209 182 209c87 0 142 -49 148 -132zM388 680c186 0 341 -157 341 -346
c0 -191 -155 -346 -346 -346c-190 0 -345 155 -345 345c0 194 154 347 350 347zM387 631c-165 0 -295 -131 -295 -298c0 -164 131 -297 292 -297s291 133 291 298c0 162 -131 297 -288 297z" />
    <glyph glyph-name="Aacute" unicode="&#xc1;" horiz-adv-x="585" 
d="M242 669h100l228 -669h-107l-49 156h-243l-50 -156h-106zM387 245l-95 300l-94 -300h189zM223 725l153 151h128l-186 -151h-95z" />
    <glyph glyph-name="Acircumflex" unicode="&#xc2;" horiz-adv-x="585" 
d="M242 669h100l228 -669h-107l-49 156h-243l-50 -156h-106zM387 245l-95 300l-94 -300h189zM113 732l134 137h91l134 -137h-95l-84 83l-84 -83h-96z" />
    <glyph glyph-name="Adieresis" unicode="&#xc4;" horiz-adv-x="585" 
d="M242 669h100l228 -669h-107l-49 156h-243l-50 -156h-106zM387 245l-95 300l-94 -300h189zM202 866c36 0 65 -30 65 -65c0 -37 -29 -66 -65 -66c-37 0 -66 29 -66 65c0 37 29 66 66 66zM384 866c36 0 65 -30 65 -65c0 -37 -29 -66 -65 -66c-37 0 -66 29 -66 65
c0 37 29 66 66 66z" />
    <glyph glyph-name="Agrave" unicode="&#xc0;" horiz-adv-x="585" 
d="M242 669h100l228 -669h-107l-49 156h-243l-50 -156h-106zM387 245l-95 300l-94 -300h189zM362 725h-95l-186 151h128z" />
    <glyph glyph-name="Aring" unicode="&#xc5;" horiz-adv-x="585" 
d="M242 669h100l228 -669h-107l-49 156h-243l-50 -156h-106zM387 245l-95 300l-94 -300h189zM294 905c51 0 94 -43 94 -96s-43 -96 -95 -96c-53 0 -96 43 -96 96s43 96 97 96zM293 858c-27 0 -49 -22 -49 -49s22 -49 49 -49c26 0 48 22 48 49s-22 49 -48 49z" />
    <glyph glyph-name="Atilde" unicode="&#xc3;" horiz-adv-x="585" 
d="M242 669h100l228 -669h-107l-49 156h-243l-50 -156h-106zM387 245l-95 300l-94 -300h189zM179 737l-51 15c19 71 49 102 99 102c19 0 38 -5 72 -20c39 -18 52 -22 66 -22c23 0 39 15 52 49l47 -15c-13 -66 -49 -106 -96 -106c-19 0 -45 7 -74 19c-55 23 -55 23 -68 23
c-23 0 -40 -16 -47 -45z" />
    <glyph glyph-name="Ccedilla" unicode="&#xc7;" horiz-adv-x="600" 
d="M338 -12l-16 -46c66 -11 101 -45 101 -98c0 -60 -48 -105 -113 -105c-30 0 -52 7 -91 26v50c34 -15 48 -19 66 -19c36 0 59 23 59 57c0 36 -27 58 -70 58c-8 0 -14 -1 -28 -3l29 86c-40 6 -79 23 -117 53c-75 59 -115 159 -115 286c0 122 37 220 106 280
c48 42 113 66 180 66c132 0 215 -78 227 -214h-91c-16 82 -63 124 -138 124c-108 0 -176 -99 -176 -257c0 -156 68 -254 177 -254c85 0 134 55 144 160h94c-7 -156 -90 -247 -228 -250z" />
    <glyph glyph-name="Eacute" unicode="&#xc9;" horiz-adv-x="520" 
d="M186 390h268v-89h-268v-212h300v-89h-403v667h395v-89h-292v-188zM193 725l153 151h128l-186 -151h-95z" />
    <glyph glyph-name="Ecircumflex" unicode="&#xca;" horiz-adv-x="520" 
d="M186 390h268v-89h-268v-212h300v-89h-403v667h395v-89h-292v-188zM102 732l134 137h90l134 -137h-94l-85 83l-84 -83h-95z" />
    <glyph glyph-name="Edieresis" unicode="&#xcb;" horiz-adv-x="520" 
d="M186 390h268v-89h-268v-212h300v-89h-403v667h395v-89h-292v-188zM190 866c36 0 65 -29 65 -65c0 -37 -29 -66 -65 -66c-37 0 -66 29 -66 65c0 37 29 66 66 66zM373 866c36 0 65 -29 65 -65c0 -37 -29 -66 -65 -66c-37 0 -66 29 -66 65c0 37 29 66 66 66z" />
    <glyph glyph-name="Egrave" unicode="&#xc8;" horiz-adv-x="520" 
d="M183 390h268v-89h-268v-212h300v-89h-403v667h395v-89h-292v-188zM365 725h-95l-186 151h128z" />
    <glyph glyph-name="Iacute" unicode="&#xcd;" horiz-adv-x="269" 
d="M186 0h-104v667h104v-667zM69 725l126 151h121l-159 -151h-88z" />
    <glyph glyph-name="Icircumflex" unicode="&#xce;" horiz-adv-x="269" 
d="M187 0h-104v667h104v-667zM-21 732l110 137h91l111 -137h-92l-64 83l-64 -83h-92z" />
    <glyph glyph-name="Idieresis" unicode="&#xcf;" horiz-adv-x="269" 
d="M187 0h-104v667h104v-667zM56 863c34 0 62 -28 62 -63s-28 -63 -63 -63s-63 28 -63 63s28 63 64 63zM216 863c34 0 62 -28 62 -63s-28 -63 -63 -63s-63 28 -63 63s28 63 64 63z" />
    <glyph glyph-name="Igrave" unicode="&#xcc;" horiz-adv-x="269" 
d="M186 0h-104v667h104v-667zM199 725h-88l-159 151h121z" />
    <glyph glyph-name="Ntilde" unicode="&#xd1;" horiz-adv-x="668" 
d="M83 667h111l293 -510v510h98v-667h-107l-297 509v-509h-98v667zM223 737l-51 15c19 71 50 102 99 102c20 0 39 -5 72 -20c39 -18 52 -22 66 -22c23 0 39 15 52 49l47 -15c-13 -66 -49 -106 -96 -106c-19 0 -46 7 -74 19c-54 23 -54 23 -67 23c-24 0 -42 -17 -48 -45z" />
    <glyph glyph-name="Oacute" unicode="&#xd3;" horiz-adv-x="660" 
d="M242 725l153 151h128l-186 -151h-95zM330 679c173 0 288 -138 288 -344c0 -127 -37 -219 -112 -284c-51 -44 -106 -63 -179 -63c-65 0 -123 21 -172 63c-75 64 -112 158 -112 283c0 207 115 345 287 345zM330 590c-111 0 -179 -97 -179 -256c0 -158 68 -257 177 -257
c114 0 182 96 182 258c0 158 -68 255 -180 255z" />
    <glyph glyph-name="Ocircumflex" unicode="&#xd4;" horiz-adv-x="660" 
d="M151 732l134 137h90l134 -137h-94l-85 83l-84 -83h-95zM330 679c173 0 288 -138 288 -344c0 -127 -37 -219 -112 -284c-51 -44 -106 -63 -179 -63c-65 0 -123 21 -172 63c-75 64 -112 158 -112 283c0 207 115 345 287 345zM330 590c-111 0 -179 -97 -179 -256
c0 -158 68 -257 177 -257c114 0 182 96 182 258c0 158 -68 255 -180 255z" />
    <glyph glyph-name="Odieresis" unicode="&#xd6;" horiz-adv-x="660" 
d="M239 866c36 0 65 -30 65 -65c0 -37 -29 -66 -65 -66c-37 0 -66 29 -66 65c0 37 29 66 66 66zM422 866c36 0 65 -29 65 -65c0 -37 -29 -66 -65 -66c-37 0 -66 29 -66 65c0 37 29 66 66 66zM330 679c173 0 288 -138 288 -344c0 -127 -37 -219 -112 -284
c-51 -44 -106 -63 -179 -63c-65 0 -123 21 -172 63c-75 64 -112 158 -112 283c0 207 115 345 287 345zM330 590c-111 0 -179 -97 -179 -256c0 -158 68 -257 177 -257c114 0 182 96 182 258c0 158 -68 255 -180 255z" />
    <glyph glyph-name="Ograve" unicode="&#xd2;" horiz-adv-x="660" 
d="M419 725h-95l-186 151h128zM330 679c173 0 288 -138 288 -344c0 -127 -37 -219 -112 -284c-51 -44 -106 -63 -179 -63c-65 0 -123 21 -172 63c-75 64 -112 158 -112 283c0 207 115 345 287 345zM330 590c-111 0 -179 -97 -179 -256c0 -158 68 -257 177 -257
c114 0 182 96 182 258c0 158 -68 255 -180 255z" />
    <glyph glyph-name="Otilde" unicode="&#xd5;" horiz-adv-x="660" 
d="M218 737l-51 15c19 71 50 102 99 102c20 0 39 -5 72 -20c39 -18 52 -22 67 -22c22 0 38 15 51 49l47 -15c-12 -65 -49 -106 -96 -106c-19 0 -45 7 -74 19c-55 23 -55 23 -67 23c-24 0 -41 -17 -48 -45zM330 679c173 0 288 -138 288 -344c0 -127 -37 -219 -112 -284
c-51 -44 -106 -63 -179 -63c-65 0 -123 21 -172 63c-75 64 -112 158 -112 283c0 207 115 345 287 345zM330 590c-111 0 -179 -97 -179 -256c0 -158 68 -257 177 -257c114 0 182 96 182 258c0 158 -68 255 -180 255z" />
    <glyph glyph-name="Scaron" unicode="&#x160;" horiz-adv-x="557" 
d="M494 482h-100c-7 70 -48 107 -120 107c-64 0 -111 -38 -111 -89c0 -27 13 -47 40 -63c21 -12 35 -18 112 -47c92 -35 129 -56 157 -88c26 -32 40 -71 40 -116c0 -123 -86 -198 -228 -198c-98 0 -170 32 -210 94c-24 38 -32 71 -33 134h100c2 -48 12 -77 34 -99
c22 -24 64 -39 109 -39c72 0 123 40 123 98c0 33 -14 57 -44 77c-21 13 -37 21 -111 49s-116 50 -142 73c-33 30 -50 71 -50 119c0 110 87 185 216 185c81 0 149 -31 186 -86c21 -31 29 -60 32 -111zM459 869l-134 -137h-90l-134 137h94l85 -83l84 83h95z" />
    <glyph glyph-name="Uacute" unicode="&#xda;" horiz-adv-x="651" 
d="M234 725l153 151h128l-186 -151h-95zM75 667h103v-387c0 -82 3 -107 18 -135c21 -42 69 -67 130 -67c71 0 122 32 139 88c7 23 9 46 9 114v387h103v-389c0 -99 -4 -128 -21 -166c-36 -78 -121 -124 -230 -124s-194 46 -230 124c-17 39 -21 67 -21 166v389z" />
    <glyph glyph-name="Ucircumflex" unicode="&#xdb;" horiz-adv-x="651" 
d="M147 732l134 137h90l134 -137h-95l-84 83l-84 -83h-95zM75 667h103v-387c0 -82 3 -107 18 -135c21 -42 69 -67 130 -67c71 0 122 32 139 88c7 23 9 46 9 114v387h103v-389c0 -99 -4 -128 -21 -166c-36 -78 -121 -124 -230 -124s-194 46 -230 124c-17 39 -21 67 -21 166
v389z" />
    <glyph glyph-name="Udieresis" unicode="&#xdc;" horiz-adv-x="651" 
d="M235 866c36 0 65 -29 65 -65c0 -37 -29 -66 -65 -66c-37 0 -66 29 -66 65c0 37 29 66 66 66zM417 866c36 0 65 -30 65 -65c0 -37 -29 -66 -65 -66c-37 0 -66 29 -66 65c0 37 29 66 66 66zM75 667h103v-387c0 -82 3 -107 18 -135c21 -42 69 -67 130 -67
c71 0 122 32 139 88c7 23 9 46 9 114v387h103v-389c0 -99 -4 -128 -21 -166c-36 -78 -121 -124 -230 -124s-194 46 -230 124c-17 39 -21 67 -21 166v389z" />
    <glyph glyph-name="Ugrave" unicode="&#xd9;" horiz-adv-x="651" 
d="M419 725h-95l-186 151h127zM75 667h103v-387c0 -82 3 -107 18 -135c21 -42 69 -67 130 -67c71 0 122 32 139 88c7 23 9 46 9 114v387h103v-389c0 -99 -4 -128 -21 -166c-36 -78 -121 -124 -230 -124s-194 46 -230 124c-17 39 -21 67 -21 166v389z" />
    <glyph glyph-name="Yacute" unicode="&#xdd;" horiz-adv-x="539" 
d="M5 667h116l149 -287l148 287h115l-213 -396l1 -271h-104l1 271zM181 725l154 151h127l-186 -151h-95z" />
    <glyph glyph-name="Ydieresis" unicode="&#x178;" horiz-adv-x="539" 
d="M178 866c36 0 65 -30 65 -65c0 -37 -29 -66 -65 -66c-37 0 -66 29 -66 65c0 37 29 66 66 66zM360 866c36 0 65 -30 65 -65c0 -37 -29 -66 -65 -66c-37 0 -66 29 -66 65c0 37 29 66 66 66zM5 667h116l150 -287l147 287h115l-213 -396l1 -271h-104l1 271z" />
    <glyph glyph-name="Zcaron" unicode="&#x17d;" horiz-adv-x="497" 
d="M52 667h420v-72l-324 -506h315v-89h-437v81l321 499h-295v87zM439 869l-134 -137h-90l-134 137h94l85 -83l84 83h95z" />
    <glyph glyph-name="aacute" unicode="&#xe1;" horiz-adv-x="495" 
d="M174 540l116 151h128l-167 -151h-77zM155 341h-95c6 49 21 79 52 103c33 27 84 42 142 42c80 0 137 -27 157 -74c12 -27 15 -52 15 -112v-185c0 -64 3 -87 15 -115h-91c-6 22 -8 33 -8 59c-26 -47 -71 -70 -136 -70c-100 0 -162 52 -162 136c0 66 38 115 109 142
c44 17 72 23 178 42v13c0 61 -23 84 -83 84c-54 0 -84 -21 -93 -65zM331 204v37c-138 -21 -186 -48 -186 -105c0 -41 33 -69 81 -69c41 0 76 20 92 52c9 18 13 44 13 85z" />
    <glyph glyph-name="acircumflex" unicode="&#xe2;" horiz-adv-x="495" 
d="M85 545l117 146h91l117 -146h-91l-71 90l-71 -90h-92zM155 341h-95c6 49 21 79 52 103c33 27 84 42 142 42c80 0 137 -27 157 -74c12 -27 15 -52 15 -112v-185c0 -64 3 -87 15 -115h-91c-6 22 -8 33 -8 59c-26 -47 -71 -70 -136 -70c-100 0 -162 52 -162 136
c0 66 38 115 109 142c44 17 72 23 178 42v13c0 61 -23 84 -83 84c-54 0 -84 -21 -93 -65zM331 204v37c-138 -21 -186 -48 -186 -105c0 -41 33 -69 81 -69c41 0 76 20 92 52c9 18 13 44 13 85z" />
    <glyph glyph-name="adieresis" unicode="&#xe4;" horiz-adv-x="495" 
d="M155 341h-95c6 49 21 79 52 103c33 27 84 42 142 42c80 0 137 -27 157 -74c12 -27 15 -52 15 -112v-185c0 -64 3 -87 15 -115h-91c-6 22 -8 33 -8 59c-26 -47 -71 -70 -136 -70c-100 0 -162 52 -162 136c0 66 38 115 109 142c44 17 72 23 178 42v13c0 61 -23 84 -83 84
c-54 0 -84 -21 -93 -65zM331 204v37c-138 -21 -186 -48 -186 -105c0 -41 33 -69 81 -69c41 0 76 20 92 52c9 18 13 44 13 85zM160 679c33 0 60 -27 60 -60c0 -34 -27 -61 -60 -61c-34 0 -61 27 -61 60c0 34 27 61 61 61zM333 680c33 0 60 -28 60 -61c0 -34 -27 -61 -61 -61
s-61 27 -61 61s27 61 62 61z" />
    <glyph glyph-name="agrave" unicode="&#xe0;" horiz-adv-x="495" 
d="M325 540h-76l-167 151h127zM155 341h-95c6 49 21 79 52 103c33 27 84 42 142 42c80 0 137 -27 157 -74c12 -27 15 -52 15 -112v-185c0 -64 3 -87 15 -115h-91c-6 22 -8 33 -8 59c-26 -47 -71 -70 -136 -70c-100 0 -162 52 -162 136c0 66 38 115 109 142
c44 17 72 23 178 42v13c0 61 -23 84 -83 84c-54 0 -84 -21 -93 -65zM331 204v37c-138 -21 -186 -48 -186 -105c0 -41 33 -69 81 -69c41 0 76 20 92 52c9 18 13 44 13 85z" />
    <glyph glyph-name="aring" unicode="&#xe5;" horiz-adv-x="495" 
d="M249 721c52 0 95 -44 95 -96c0 -53 -43 -96 -96 -96s-96 43 -96 96s43 96 97 96zM249 674c-28 0 -50 -22 -50 -49s22 -49 49 -49s49 22 49 49s-22 49 -48 49zM155 341h-95c6 49 21 79 52 103c33 27 84 42 142 42c80 0 137 -27 157 -74c12 -27 15 -52 15 -112v-185
c0 -64 3 -87 15 -115h-91c-6 22 -8 33 -8 59c-26 -47 -71 -70 -136 -70c-100 0 -162 52 -162 136c0 66 38 115 109 142c44 17 72 23 178 42v13c0 61 -23 84 -83 84c-54 0 -84 -21 -93 -65zM331 204v37c-138 -21 -186 -48 -186 -105c0 -41 33 -69 81 -69c41 0 76 20 92 52
c9 18 13 44 13 85z" />
    <glyph glyph-name="atilde" unicode="&#xe3;" horiz-adv-x="495" 
d="M143 555l-47 13c17 71 45 104 87 104c18 0 36 -5 67 -20c37 -18 48 -22 61 -22c19 0 34 16 46 49l44 -12c-12 -67 -44 -109 -86 -109c-16 0 -39 7 -71 22c-39 18 -48 21 -60 21c-19 0 -33 -15 -41 -46zM155 341h-95c6 49 21 79 52 103c33 27 84 42 142 42
c80 0 137 -27 157 -74c12 -27 15 -52 15 -112v-185c0 -64 3 -87 15 -115h-91c-6 22 -8 33 -8 59c-26 -47 -71 -70 -136 -70c-100 0 -162 52 -162 136c0 66 38 115 109 142c44 17 72 23 178 42v13c0 61 -23 84 -83 84c-54 0 -84 -21 -93 -65zM331 204v37
c-138 -21 -186 -48 -186 -105c0 -41 33 -69 81 -69c41 0 76 20 92 52c9 18 13 44 13 85z" />
    <glyph glyph-name="ccedilla" unicode="&#xe7;" horiz-adv-x="482" 
d="M253 -13l-13 -37c59 -10 89 -39 89 -84c0 -54 -42 -93 -100 -93c-27 0 -49 7 -81 24v43c36 -15 44 -17 60 -17c32 0 52 20 52 50c0 31 -24 51 -63 51c-7 0 -12 0 -24 -1l27 71c-44 12 -65 24 -91 50c-46 47 -70 113 -70 192c0 153 85 252 217 252c106 0 171 -60 184 -170
h-96c-11 63 -38 90 -90 90c-70 0 -114 -67 -114 -172c0 -106 43 -169 115 -169c56 0 84 30 93 99h96c-7 -110 -82 -180 -191 -179z" />
    <glyph glyph-name="eacute" unicode="&#xe9;" horiz-adv-x="501" 
d="M188 540l116 151h128l-167 -151h-77zM462 216h-324c4 -96 48 -148 126 -148c48 0 79 19 100 62l88 -6c-26 -88 -94 -137 -191 -137c-134 0 -222 97 -222 245c0 154 87 256 219 256c125 0 205 -97 205 -251c0 -3 0 -12 -1 -21zM141 289h221c-9 80 -45 120 -107 120
c-61 0 -98 -39 -114 -120z" />
    <glyph glyph-name="ecircumflex" unicode="&#xea;" horiz-adv-x="501" 
d="M98 545l117 146h91l117 -146h-91l-71 90l-71 -90h-92zM462 216h-324c4 -96 48 -148 126 -148c48 0 79 19 100 62l88 -6c-26 -88 -94 -137 -191 -137c-134 0 -222 97 -222 245c0 154 87 256 219 256c125 0 205 -97 205 -251c0 -3 0 -12 -1 -21zM141 289h221
c-9 80 -45 120 -107 120c-61 0 -98 -39 -114 -120z" />
    <glyph glyph-name="edieresis" unicode="&#xeb;" horiz-adv-x="501" 
d="M462 216h-324c4 -96 48 -148 126 -148c48 0 79 19 100 62l88 -6c-26 -88 -94 -137 -191 -137c-134 0 -222 97 -222 245c0 154 87 256 219 256c125 0 205 -97 205 -251c0 -3 0 -12 -1 -21zM141 289h221c-9 80 -45 120 -107 120c-61 0 -98 -39 -114 -120zM175 679
c33 0 60 -27 60 -60c0 -34 -27 -61 -60 -61c-34 0 -61 27 -61 60c0 34 27 61 61 61zM348 680c33 0 60 -28 60 -61c0 -34 -27 -61 -61 -61s-61 27 -61 61s27 61 62 61z" />
    <glyph glyph-name="egrave" unicode="&#xe8;" horiz-adv-x="501" 
d="M334 540h-77l-167 151h127zM462 216h-324c4 -96 48 -148 126 -148c48 0 79 19 100 62l88 -6c-26 -88 -94 -137 -191 -137c-134 0 -222 97 -222 245c0 154 87 256 219 256c125 0 205 -97 205 -251c0 -3 0 -12 -1 -21zM141 289h221c-9 80 -45 120 -107 120
c-61 0 -98 -39 -114 -120z" />
    <glyph glyph-name="iacute" unicode="&#xed;" horiz-adv-x="242" 
d="M71 475h100v-475h-100v475zM64 540l90 151h117l-134 -151h-73z" />
    <glyph glyph-name="icircumflex" unicode="&#xee;" horiz-adv-x="242" 
d="M71 475h100v-475h-100v475zM-15 545l91 146h90l91 -146h-85l-51 90l-51 -90h-85z" />
    <glyph glyph-name="idieresis" unicode="&#xef;" horiz-adv-x="242" 
d="M71 475h100v-475h-100v475zM47 678c32 0 58 -27 58 -59c0 -33 -26 -59 -59 -59s-59 26 -59 59s26 59 60 59zM198 678c32 0 58 -27 58 -59c0 -33 -26 -59 -59 -59c-32 0 -59 26 -59 59s26 59 60 59z" />
    <glyph glyph-name="igrave" unicode="&#xec;" horiz-adv-x="242" 
d="M71 475h100v-475h-100v475zM178 540h-73l-134 151h118z" />
    <glyph glyph-name="ntilde" unicode="&#xf1;" horiz-adv-x="527" 
d="M149 555l-46 13c17 71 45 104 87 104c18 0 36 -5 67 -20c37 -18 48 -22 61 -22c19 0 34 15 46 49l44 -12c-12 -67 -44 -109 -86 -109c-16 0 -39 7 -71 22c-39 18 -48 21 -60 21c-19 0 -33 -15 -42 -46zM58 475h95c7 -19 9 -35 10 -65c33 51 81 76 143 76
c61 0 112 -28 135 -73c16 -31 19 -52 19 -140v-273h-98v257c0 58 -3 81 -13 101c-13 27 -39 41 -73 41c-39 0 -73 -20 -91 -54c-11 -21 -16 -49 -16 -92v-253h-98v309c0 116 0 120 -13 166z" />
    <glyph glyph-name="oacute" unicode="&#xf3;" horiz-adv-x="521" 
d="M187 540l117 151h127l-167 -151h-77zM261 488c129 0 221 -105 221 -251s-92 -250 -221 -250c-131 0 -222 104 -222 254c0 142 94 247 222 247zM261 408c-71 0 -121 -69 -121 -169c0 -104 48 -172 121 -172c71 0 120 69 120 170s-49 171 -120 171z" />
    <glyph glyph-name="ocircumflex" unicode="&#xf4;" horiz-adv-x="521" 
d="M98 545l117 146h91l117 -146h-91l-71 90l-71 -90h-92zM261 488c129 0 221 -105 221 -251s-92 -250 -221 -250c-131 0 -222 104 -222 254c0 142 94 247 222 247zM261 408c-71 0 -121 -69 -121 -169c0 -104 48 -172 121 -172c71 0 120 69 120 170s-49 171 -120 171z" />
    <glyph glyph-name="odieresis" unicode="&#xf6;" horiz-adv-x="521" 
d="M261 488c129 0 221 -105 221 -251s-92 -250 -221 -250c-131 0 -222 104 -222 254c0 142 94 247 222 247zM261 408c-71 0 -121 -69 -121 -169c0 -104 48 -172 121 -172c71 0 120 69 120 170s-49 171 -120 171zM175 679c33 0 60 -27 60 -60c0 -34 -27 -61 -60 -61
c-34 0 -61 27 -61 60c0 34 27 61 61 61zM348 680c33 0 60 -28 60 -61c0 -34 -27 -61 -61 -61s-61 27 -61 61s27 61 62 61z" />
    <glyph glyph-name="ograve" unicode="&#xf2;" horiz-adv-x="521" 
d="M330 540h-76l-168 151h128zM261 488c129 0 221 -105 221 -251s-92 -250 -221 -250c-131 0 -222 104 -222 254c0 142 94 247 222 247zM261 408c-71 0 -121 -69 -121 -169c0 -104 48 -172 121 -172c71 0 120 69 120 170s-49 171 -120 171z" />
    <glyph glyph-name="otilde" unicode="&#xf5;" horiz-adv-x="521" 
d="M160 555l-46 13c16 70 45 104 87 104c18 0 36 -5 67 -20c36 -18 48 -22 61 -22c19 0 34 16 46 49l43 -12c-11 -67 -44 -109 -86 -109c-16 0 -38 7 -70 22c-39 18 -48 21 -60 21c-19 0 -34 -16 -42 -46zM261 488c129 0 221 -105 221 -251s-92 -250 -221 -250
c-131 0 -222 104 -222 254c0 142 94 247 222 247zM261 408c-71 0 -121 -69 -121 -169c0 -104 48 -172 121 -172c71 0 120 69 120 170s-49 171 -120 171z" />
    <glyph glyph-name="scaron" unicode="&#x161;" horiz-adv-x="463" 
d="M399 691l-117 -146h-90l-117 146h90l72 -90l71 90h91zM415 336h-95c-7 51 -34 75 -86 75c-46 0 -78 -25 -78 -60s16 -45 113 -73c74 -22 104 -36 124 -60c18 -21 27 -49 27 -81c0 -93 -69 -150 -183 -150c-127 0 -196 58 -196 166h93c5 -61 37 -89 100 -89
c54 0 87 26 87 66c0 22 -9 35 -33 46c-15 8 -27 12 -101 35c-95 28 -129 63 -129 131c0 87 72 146 178 146c108 0 173 -55 179 -152z" />
    <glyph glyph-name="uacute" unicode="&#xfa;" horiz-adv-x="528" 
d="M190 540l116 151h127l-167 -151h-76zM68 475h98v-280c0 -44 6 -72 18 -88c15 -20 41 -31 71 -31c39 0 70 18 88 51c11 20 16 46 16 87v261h98v-329c0 -107 0 -107 12 -146h-94c-5 14 -9 36 -10 59c-32 -49 -70 -70 -130 -70c-64 0 -118 28 -145 76c-15 27 -22 66 -22 127
v283z" />
    <glyph glyph-name="ucircumflex" unicode="&#xfb;" horiz-adv-x="528" 
d="M100 545l117 146h90l117 -146h-90l-72 90l-71 -90h-91zM68 475h98v-280c0 -44 6 -72 18 -88c15 -20 41 -31 71 -31c39 0 70 18 88 51c11 20 16 46 16 87v261h98v-329c0 -107 0 -107 12 -146h-94c-5 14 -9 36 -10 59c-32 -49 -70 -70 -130 -70c-64 0 -118 28 -145 76
c-15 27 -22 66 -22 127v283z" />
    <glyph glyph-name="udieresis" unicode="&#xfc;" horiz-adv-x="528" 
d="M68 475h98v-280c0 -44 6 -72 18 -88c15 -20 41 -31 71 -31c39 0 70 18 88 51c11 20 16 46 16 87v261h98v-329c0 -107 0 -107 12 -146h-94c-5 14 -9 36 -10 59c-32 -49 -70 -70 -130 -70c-64 0 -118 28 -145 76c-15 27 -22 66 -22 127v283zM176 679c33 0 60 -27 60 -60
c0 -34 -27 -61 -60 -61c-34 0 -61 27 -61 60c0 34 27 61 61 61zM350 680c33 0 60 -28 60 -61c0 -34 -27 -61 -61 -61s-61 27 -61 61s27 61 62 61z" />
    <glyph glyph-name="ugrave" unicode="&#xf9;" horiz-adv-x="528" 
d="M343 540h-77l-167 151h127zM68 475h98v-280c0 -44 6 -72 18 -88c15 -20 41 -31 71 -31c39 0 70 18 88 51c11 20 16 46 16 87v261h98v-329c0 -107 0 -107 12 -146h-94c-5 14 -9 36 -10 59c-32 -49 -70 -70 -130 -70c-64 0 -118 28 -145 76c-15 27 -22 66 -22 127v283z" />
    <glyph glyph-name="yacute" unicode="&#xfd;" horiz-adv-x="471" 
d="M16 475h104l117 -378l120 378h103l-159 -452c-43 -123 -55 -147 -95 -179c-37 -30 -85 -44 -147 -44h-32v86l18 1h7c78 3 103 22 130 99zM165 540l116 151h128l-167 -151h-77z" />
    <glyph glyph-name="ydieresis" unicode="&#xff;" horiz-adv-x="471" 
d="M16 475h104l117 -378l120 378h103l-159 -452c-43 -123 -55 -147 -95 -179c-37 -30 -85 -44 -147 -44h-32v86l18 1h7c78 3 103 22 130 99zM149 679c33 0 60 -27 60 -60c0 -34 -27 -61 -60 -61c-34 0 -61 27 -61 60c0 34 27 61 61 61zM322 680c33 0 60 -28 60 -61
c0 -34 -27 -61 -61 -61s-61 27 -61 61s27 61 62 61z" />
    <glyph glyph-name="zcaron" unicode="&#x17e;" horiz-adv-x="412" 
d="M45 475h342v-73l-249 -321h248v-81h-364v76l245 318h-222v81zM375 691l-117 -146h-91l-117 146h91l71 -90l71 90h92z" />
    <glyph glyph-name="parenleftsuperior" unicode="&#x207d;" horiz-adv-x="200" 
d="M123 669h53c-45 -61 -69 -149 -69 -258c0 -111 23 -199 69 -262h-53c-52 67 -77 152 -77 260c0 107 27 197 77 260z" />
    <glyph glyph-name="parenrightsuperior" unicode="&#x207e;" horiz-adv-x="200" 
d="M77 149h-53c47 68 68 148 68 258c0 113 -23 200 -69 262h53c52 -65 77 -150 77 -260c0 -108 -25 -193 -76 -260z" />
    <glyph glyph-name="zerooldstyle" unicode="&#xf730;" horiz-adv-x="494" 
d="M249 487c119 0 205 -105 205 -250s-86 -249 -207 -249c-120 0 -207 104 -207 248c0 148 86 251 209 251zM249 402c-66 0 -108 -64 -108 -165c0 -99 42 -164 106 -164s106 65 106 164s-42 165 -104 165z" />
    <glyph glyph-name="oneoldstyle" unicode="&#xf731;" horiz-adv-x="255" 
d="M77 475h100v-475h-100v475z" />
    <glyph glyph-name="twooldstyle" unicode="&#xf732;" horiz-adv-x="402" 
d="M145 80h230v-80h-344v72c160 121 231 203 231 269c0 40 -28 67 -71 67c-51 0 -78 -31 -84 -96h-72c2 57 10 89 32 116c30 38 78 59 137 59c97 0 159 -57 159 -144c0 -58 -25 -103 -93 -165c-45 -42 -78 -68 -125 -98z" />
    <glyph glyph-name="threeoldstyle" unicode="&#xf733;" horiz-adv-x="391" 
d="M118 180v71c35 1 57 4 76 12c37 13 59 42 59 78c0 40 -31 67 -75 67c-49 0 -75 -25 -84 -80h-72c5 105 62 159 169 159c95 0 155 -52 155 -134c0 -60 -33 -104 -99 -129c75 -20 111 -62 111 -129c0 -92 -85 -195 -236 -286h-107c159 108 234 199 234 283
c0 58 -38 88 -111 88h-20z" />
    <glyph glyph-name="fouroldstyle" unicode="&#xf734;" horiz-adv-x="516" 
d="M378 82h111v-82h-109v-191h-102v191h-248v83l241 389h107v-390zM281 82l1 274l-172 -274h171z" />
    <glyph glyph-name="fiveoldstyle" unicode="&#xf735;" horiz-adv-x="386" 
d="M356 475l-14 -86h-213l-18 -102c147 -11 230 -78 230 -187c0 -96 -73 -198 -209 -291h-110c146 99 214 186 214 273c0 55 -36 99 -97 117c-34 10 -66 14 -116 14l45 262h288z" />
    <glyph glyph-name="sixoldstyle" unicode="&#xf736;" horiz-adv-x="506" 
d="M278 660h110c-69 -79 -135 -168 -171 -229c20 8 36 11 59 11c112 0 191 -91 191 -221c0 -138 -86 -233 -210 -233c-126 0 -217 98 -217 233c0 85 31 169 98 268c37 54 60 82 140 171zM253 363c-66 0 -112 -59 -112 -144s47 -146 113 -146c67 0 111 57 111 145
c0 86 -46 145 -112 145z" />
    <glyph glyph-name="sevenoldstyle" unicode="&#xf737;" horiz-adv-x="470" 
d="M39 475h421v-79l-313 -575h-112l316 559h-312v95z" />
    <glyph glyph-name="eightoldstyle" unicode="&#xf738;" horiz-adv-x="504" 
d="M131 342c-52 32 -77 76 -77 136c0 106 86 186 198 186s198 -80 198 -185c0 -61 -25 -105 -77 -137c61 -33 92 -85 92 -155c0 -115 -90 -199 -212 -199c-123 0 -213 84 -213 199c0 70 31 122 91 155zM253 583c-59 0 -98 -40 -98 -102c0 -60 39 -101 97 -101s97 41 97 101
s-39 102 -96 102zM254 299c-67 0 -113 -47 -113 -115c0 -67 46 -115 112 -115c65 0 111 48 111 115s-46 115 -110 115z" />
    <glyph glyph-name="nineoldstyle" unicode="&#xf739;" horiz-adv-x="506" 
d="M227 -191h-110c71 83 136 170 173 233c-19 -8 -36 -11 -59 -11c-110 0 -191 92 -191 218c0 140 90 238 217 238c126 0 210 -93 210 -233c0 -88 -30 -172 -99 -272c-37 -55 -62 -85 -141 -173zM256 402c-68 0 -115 -60 -115 -148c0 -85 46 -144 112 -144
c67 0 112 59 112 146s-44 146 -109 146z" />
    <glyph glyph-name="commasuperior" unicode="&#xf6e2;" horiz-adv-x="170" 
d="M67 147h-47c29 30 52 76 56 113c-28 3 -42 17 -42 39c0 24 21 43 46 43c30 0 49 -23 49 -57c0 -42 -17 -81 -62 -138z" />
    <glyph glyph-name="periodsuperior" unicode="&#xf6e8;" horiz-adv-x="175" 
d="M87 345c23 0 43 -20 43 -44s-20 -44 -44 -44s-44 20 -44 44c0 25 20 44 45 44z" />
    <glyph glyph-name="figuredash" unicode="&#x2012;" 
d="M56 288h387v-73h-387v73z" />
    <glyph glyph-name="oneeighth" unicode="&#x215b;" horiz-adv-x="852" 
d="M78 547v40c55 1 83 20 92 65h48v-392h-68v287h-72zM575 650h81l-378 -650h-81zM589 206c-29 18 -44 44 -44 79c0 64 55 113 127 113s127 -49 127 -113c0 -35 -14 -61 -44 -79c37 -22 54 -51 54 -91c0 -70 -57 -120 -137 -120c-79 0 -136 50 -136 119c0 41 17 71 53 92z
M673 344c-36 0 -60 -23 -60 -57c0 -33 24 -56 59 -56s59 23 59 56c0 34 -24 57 -58 57zM673 178c-41 0 -69 -26 -69 -65c0 -37 28 -64 68 -64c41 0 69 27 69 65c0 37 -28 64 -68 64z" />
    <glyph glyph-name="threeeighths" unicode="&#x215c;" horiz-adv-x="852" 
d="M116 549h-59c2 71 49 112 127 112c72 0 120 -40 120 -101c0 -39 -20 -69 -59 -85c45 -15 68 -48 68 -94c0 -72 -55 -121 -137 -121c-88 0 -137 44 -136 123h61c0 -43 26 -66 73 -66c45 0 71 24 71 63c0 44 -29 63 -96 63c-3 0 -9 0 -16 -1v56c8 -1 14 -1 18 -1
c55 0 85 21 85 58c0 30 -23 49 -57 49c-38 0 -58 -18 -63 -55zM575 650h81l-378 -650h-81zM589 206c-31 20 -44 43 -44 79c0 64 55 113 127 113s127 -49 127 -113c0 -36 -12 -58 -44 -79c36 -21 54 -51 54 -92c0 -69 -57 -120 -136 -120c-80 0 -137 50 -137 120
c0 41 18 71 53 92zM673 344c-36 0 -60 -23 -60 -57c0 -33 24 -56 59 -56s59 23 59 57c0 33 -24 56 -58 56zM673 178c-41 0 -69 -26 -69 -65c0 -38 29 -65 69 -65s68 27 68 65s-28 65 -68 65z" />
    <glyph glyph-name="fiveeighths" unicode="&#x215d;" horiz-adv-x="852" 
d="M93 650h201l-6 -58h-144l-16 -84c24 13 42 18 67 18c72 0 123 -54 123 -129c0 -81 -61 -143 -140 -143c-75 0 -125 43 -129 113h64c5 -37 27 -56 63 -56c42 0 71 34 71 84c0 46 -26 77 -65 77c-27 0 -46 -11 -66 -37l-59 8zM575 650h81l-378 -650h-81zM589 206
c-31 20 -44 43 -44 79c0 64 55 113 127 113s127 -49 127 -113c0 -36 -13 -59 -44 -79c36 -21 54 -51 54 -92c0 -70 -57 -120 -136 -120c-80 0 -137 51 -137 120c0 41 18 71 53 92zM673 344c-36 0 -60 -23 -60 -57c0 -33 24 -56 59 -56s59 23 59 57c0 33 -24 56 -58 56z
M673 178c-41 0 -69 -26 -69 -65c0 -38 28 -65 68 -65s68 27 68 65s-28 65 -67 65z" />
    <glyph glyph-name="seveneighths" unicode="&#x215e;" horiz-adv-x="851" 
d="M55 650h270v-50l-196 -340h-75l190 328h-189v62zM573 650h81l-378 -650h-81zM587 206c-31 19 -44 43 -44 79c0 64 55 113 127 113s127 -49 127 -113c0 -35 -14 -60 -44 -79c36 -21 54 -51 54 -92c0 -69 -57 -120 -136 -120c-80 0 -137 51 -137 120c0 41 18 71 53 92z
M671 344c-36 0 -60 -23 -60 -57c0 -33 24 -56 59 -56s59 23 59 57c0 33 -24 56 -58 56zM671 178c-40 0 -68 -26 -68 -65c0 -38 28 -65 67 -65c40 0 68 27 68 65s-28 65 -67 65z" />
    <glyph glyph-name="onethird" unicode="&#x2153;" horiz-adv-x="852" 
d="M78 547v40c55 1 83 20 92 65h48v-392h-68v287h-72zM575 650h81l-378 -650h-81zM608 285h-59c2 72 48 112 127 112c72 0 120 -40 120 -101c0 -39 -20 -69 -59 -86c44 -15 68 -47 68 -94c0 -71 -56 -120 -137 -120c-87 0 -137 45 -136 122h61c1 -43 26 -65 73 -65
c45 0 71 23 71 63c0 43 -29 62 -96 62h-16v55h18c55 0 85 21 85 58c0 30 -23 49 -57 49c-38 0 -58 -18 -63 -55z" />
    <glyph glyph-name="twothirds" unicode="&#x2154;" horiz-adv-x="852" 
d="M119 535h-59c0 78 46 123 127 123c73 0 121 -40 121 -102c0 -46 -19 -73 -164 -236h168v-60h-257v52c3 3 7 7 10 11c13 16 27 31 40 46c113 127 134 157 134 186c0 26 -23 45 -55 45c-40 0 -62 -22 -65 -65zM575 650h81l-378 -650h-81zM608 285h-59c2 72 48 112 127 112
c72 0 120 -40 120 -101c0 -39 -20 -69 -59 -86c44 -14 68 -48 68 -94c0 -72 -55 -120 -137 -120c-87 0 -137 45 -136 122h61c1 -43 26 -65 73 -65c44 0 71 23 71 63c0 43 -29 62 -96 62h-16v55h18c55 0 85 21 85 58c0 30 -23 49 -57 49c-38 0 -58 -17 -63 -55z" />
    <glyph glyph-name="zerosuperior" unicode="&#x2070;" horiz-adv-x="361" 
d="M183 658c87 0 141 -77 141 -202s-54 -201 -143 -201c-90 0 -144 76 -144 200c0 128 54 203 146 203zM182 603c-49 0 -76 -53 -76 -148c0 -91 28 -145 74 -145c48 0 75 54 75 146s-27 147 -73 147z" />
    <glyph glyph-name="foursuperior" unicode="&#x2074;" horiz-adv-x="361" 
d="M260 404h72v-54h-70v-90h-68v90h-168v50l162 257h72v-253zM197 404v171l-104 -171h104z" />
    <glyph glyph-name="fivesuperior" unicode="&#x2075;" horiz-adv-x="361" 
d="M90 650h201l-6 -58h-144l-16 -84c23 13 40 18 66 18c73 0 124 -53 124 -129c0 -81 -61 -143 -141 -143c-75 0 -124 43 -128 113h64c5 -37 27 -56 63 -56c42 0 71 34 71 84c0 46 -26 77 -65 77c-28 0 -47 -11 -66 -37l-59 8z" />
    <glyph glyph-name="sixsuperior" unicode="&#x2076;" horiz-adv-x="361" 
d="M195 657h76c-39 -42 -73 -83 -107 -132c14 2 19 3 30 3c72 0 122 -55 122 -132c0 -83 -55 -141 -134 -141c-80 0 -137 58 -137 142c0 76 41 147 150 260zM180 476c-40 0 -67 -34 -67 -83c0 -48 27 -82 66 -82c41 0 68 33 68 83c0 48 -27 82 -67 82z" />
    <glyph glyph-name="sevensuperior" unicode="&#x2077;" horiz-adv-x="360" 
d="M55 650h270v-50l-196 -340h-75l190 328h-189v62z" />
    <glyph glyph-name="eightsuperior" unicode="&#x2078;" horiz-adv-x="361" 
d="M97 466c-30 19 -44 44 -44 79c0 64 55 113 127 113s127 -49 127 -113c0 -35 -14 -60 -43 -79c36 -22 53 -51 53 -91c0 -70 -58 -120 -136 -120c-80 0 -137 50 -137 120c0 40 17 69 53 91zM181 604c-35 0 -59 -23 -59 -57c0 -33 24 -56 58 -56c35 0 59 23 59 56
c0 34 -24 57 -58 57zM181 438c-41 0 -69 -26 -69 -65c0 -37 28 -64 68 -64s68 27 68 65c0 37 -28 64 -67 64z" />
    <glyph glyph-name="ninesuperior" unicode="&#x2079;" horiz-adv-x="361" 
d="M165 251h-75c36 38 87 102 107 134c-14 -2 -19 -3 -30 -3c-72 0 -122 55 -122 133c0 83 55 142 134 142c80 0 137 -59 137 -143c0 -77 -43 -151 -151 -263zM181 601c-41 0 -68 -34 -68 -84c0 -49 27 -83 67 -83s67 34 67 83s-27 84 -66 84z" />
    <glyph glyph-name="zeroinferior" unicode="&#x2080;" horiz-adv-x="361" 
d="M183 398c87 0 141 -77 141 -202s-54 -201 -143 -201c-90 0 -144 76 -144 200c0 128 54 203 146 203zM182 343c-49 0 -76 -53 -76 -148c0 -91 28 -145 74 -145c48 0 75 54 75 146s-27 147 -73 147z" />
    <glyph glyph-name="oneinferior" unicode="&#x2081;" horiz-adv-x="361" 
d="M78 287v40c56 1 82 20 92 65h48v-392h-68v287h-72z" />
    <glyph glyph-name="twoinferior" unicode="&#x2082;" horiz-adv-x="361" 
d="M119 275h-59c0 78 46 123 126 123c74 0 122 -40 122 -102c0 -46 -20 -75 -164 -236h168v-60h-257v52c6 7 23 26 50 57c116 132 134 157 134 186c0 27 -23 45 -55 45c-40 0 -62 -22 -65 -65z" />
    <glyph glyph-name="threeinferior" unicode="&#x2083;" horiz-adv-x="361" 
d="M116 285h-59c2 72 48 112 127 112c72 0 120 -40 120 -101c0 -39 -20 -69 -59 -86c45 -15 68 -47 68 -94c0 -72 -55 -120 -137 -120c-88 0 -137 44 -136 122h61c0 -42 26 -65 73 -65c44 0 71 23 71 63c0 43 -29 62 -96 62h-16v55h18c55 0 85 21 85 58c0 30 -23 49 -57 49
c-38 0 -58 -18 -63 -55z" />
    <glyph glyph-name="fourinferior" unicode="&#x2084;" horiz-adv-x="361" 
d="M260 140h72v-54h-70v-90h-68v90h-168v50l162 256h72v-252zM197 140v171l-104 -171h104z" />
    <glyph glyph-name="fiveinferior" unicode="&#x2085;" horiz-adv-x="361" 
d="M93 390h201l-6 -58h-144l-16 -84c24 13 40 18 65 18c74 0 125 -53 125 -129c0 -81 -61 -143 -140 -143c-75 0 -125 43 -129 113h64c5 -37 27 -56 63 -56c42 0 71 34 71 83c0 46 -26 77 -65 77c-28 0 -47 -10 -66 -36l-59 8z" />
    <glyph glyph-name="sixinferior" unicode="&#x2086;" horiz-adv-x="361" 
d="M195 397h76c-41 -44 -80 -93 -107 -133c13 3 19 4 30 4c71 0 122 -55 122 -133c0 -83 -55 -141 -134 -141c-80 0 -137 58 -137 142c0 76 41 147 150 261zM180 216c-40 0 -67 -34 -67 -83s27 -83 66 -83c41 0 68 33 68 83c0 49 -27 83 -67 83z" />
    <glyph glyph-name="seveninferior" unicode="&#x2087;" horiz-adv-x="360" 
d="M55 390h270v-50l-196 -340h-75l190 328h-189v62z" />
    <glyph glyph-name="eightinferior" unicode="&#x2088;" horiz-adv-x="361" 
d="M97 206c-30 18 -44 44 -44 79c0 64 55 113 127 113s127 -49 127 -113c0 -35 -14 -61 -43 -79c36 -22 53 -51 53 -92c0 -69 -57 -119 -136 -119c-80 0 -137 50 -137 120c0 40 17 69 53 91zM181 344c-35 0 -59 -23 -59 -57c0 -33 24 -56 58 -56c35 0 59 23 59 56
c0 34 -24 57 -58 57zM181 178c-41 0 -69 -26 -69 -65c0 -37 28 -64 68 -64s68 27 68 65c0 37 -28 64 -67 64z" />
    <glyph glyph-name="nineinferior" unicode="&#x2089;" horiz-adv-x="361" 
d="M165 -8h-75c31 31 85 99 107 134c-13 -3 -19 -4 -30 -4c-72 0 -122 55 -122 133c0 83 55 142 134 142c80 0 137 -59 137 -143c0 -75 -51 -164 -151 -262zM181 341c-41 0 -68 -34 -68 -84c0 -49 27 -83 67 -83s67 34 67 83s-27 84 -66 84z" />
    <glyph glyph-name="IJ" unicode="&#x132;" horiz-adv-x="569" 
d="M186 0h-104v667h104v-667zM384 667h104v-532c0 -108 -3 -134 -21 -167c-27 -53 -88 -80 -183 -80c-7 0 -17 0 -31 1v86c70 0 99 8 116 32c13 18 15 34 15 127v533z" />
    <glyph glyph-name="uni01CD" unicode="&#x1cd;" horiz-adv-x="585" 
d="M242 669h100l228 -669h-107l-49 156h-243l-50 -156h-106zM387 245l-95 300l-94 -300h189zM472 869l-134 -137h-90l-135 137h95l85 -83l84 83h95z" />
    <glyph glyph-name="Abreve" unicode="&#x102;" horiz-adv-x="585" 
d="M242 669h100l228 -669h-107l-49 156h-243l-50 -156h-106zM387 245l-95 300l-94 -300h189zM151 870h43c22 -48 55 -73 99 -73s76 24 98 73h44c-10 -83 -66 -138 -142 -138s-133 55 -142 138z" />
    <glyph glyph-name="Aogonek" unicode="&#x104;" horiz-adv-x="585" 
d="M342 669l228 -669c-66 -49 -87 -73 -87 -101s21 -46 55 -46c14 0 26 2 45 9v-50c-26 -12 -45 -16 -69 -16c-63 0 -109 41 -109 96c0 47 25 76 94 108h-36l-50 156h-242l-50 -156h-106l227 669h100zM386 245l-94 300l-95 -300h189z" />
    <glyph glyph-name="Cacute" unicode="&#x106;" horiz-adv-x="600" 
d="M236 725l154 151h127l-186 -151h-95zM556 465h-91c-16 82 -63 124 -138 124c-108 0 -176 -99 -176 -256s68 -255 177 -255c85 0 136 57 144 160h94c-8 -159 -92 -250 -233 -250c-176 0 -290 136 -290 344c0 122 37 221 106 281c48 42 113 66 180 66
c132 0 215 -78 227 -214z" />
    <glyph glyph-name="Ccaron" unicode="&#x10c;" horiz-adv-x="600" 
d="M506 869l-134 -137h-90l-134 137h94l85 -83l84 83h95zM556 465h-91c-16 82 -63 124 -138 124c-108 0 -176 -99 -176 -256s68 -255 177 -255c85 0 136 57 144 160h94c-8 -159 -92 -250 -233 -250c-176 0 -290 136 -290 344c0 122 37 221 106 281c48 42 113 66 180 66
c132 0 215 -78 227 -214z" />
    <glyph glyph-name="Cdotaccent" unicode="&#x10a;" horiz-adv-x="600" 
d="M327 872c39 0 71 -32 71 -72c0 -39 -32 -71 -71 -71c-40 0 -72 32 -72 71c0 40 32 72 72 72zM556 465h-91c-16 82 -63 124 -138 124c-108 0 -176 -99 -176 -256s68 -255 177 -255c85 0 136 57 144 160h94c-8 -159 -92 -250 -233 -250c-176 0 -290 136 -290 344
c0 122 37 221 106 281c48 42 113 66 180 66c132 0 215 -78 227 -214z" />
    <glyph glyph-name="Dcaron" unicode="&#x10e;" horiz-adv-x="637" 
d="M83 667h135c113 0 170 -9 221 -36c95 -51 155 -164 155 -297c0 -132 -56 -244 -149 -295c-56 -32 -102 -39 -241 -39h-121v667zM186 89h54c87 0 121 7 159 32c56 37 88 115 88 214s-34 176 -95 214c-40 25 -68 29 -177 29h-29v-489zM477 869l-134 -137h-90l-134 137h94
l85 -83l84 83h95z" />
    <glyph glyph-name="Dcroat" unicode="&#x110;" horiz-adv-x="637" 
d="M83 667h135c113 0 170 -9 221 -36c95 -51 155 -165 155 -297s-56 -244 -149 -295c-56 -32 -102 -39 -241 -39h-121v307h-60v83h60v277zM186 89h54c87 0 121 7 159 32c56 37 88 115 88 213c0 99 -34 177 -95 215c-40 25 -68 29 -177 29h-29v-188h145v-83h-145v-218z" />
    <glyph glyph-name="Ecaron" unicode="&#x11a;" horiz-adv-x="520" 
d="M186 390h268v-89h-268v-212h300v-89h-403v667h395v-89h-292v-188zM460 869l-133 -137h-91l-134 137h95l84 -83l84 83h95z" />
    <glyph glyph-name="Edotaccent" unicode="&#x116;" horiz-adv-x="520" 
d="M186 390h268v-89h-268v-212h300v-89h-403v667h395v-89h-292v-188zM282 872c39 0 71 -32 71 -71c0 -40 -32 -72 -71 -72c-40 0 -72 32 -72 71c0 40 32 72 72 72z" />
    <glyph glyph-name="Eogonek" unicode="&#x118;" horiz-adv-x="520" 
d="M486 89v-89c-16 -12 -24 -19 -46 -36c-30 -24 -43 -43 -43 -65c0 -28 21 -46 55 -46c14 0 24 2 45 9v-50c-27 -12 -45 -16 -68 -16c-64 0 -110 41 -110 96c0 47 27 79 93 108h-329v667h395v-89h-292v-188h268v-89h-268v-212h300z" />
    <glyph glyph-name="Gcaron" unicode="&#x1e6;" horiz-adv-x="632" 
d="M510 869l-134 -137h-90l-134 137h94l85 -83l84 83h95zM352 338h223v-276c-71 -49 -148 -74 -233 -74c-184 0 -299 133 -299 346c0 207 115 345 287 345c81 0 150 -31 192 -84c26 -35 38 -70 44 -129h-92c-15 83 -61 123 -143 123c-112 0 -180 -96 -180 -254
c0 -163 70 -257 190 -257c49 0 101 15 146 43v136h-135v81z" />
    <glyph glyph-name="Gbreve" unicode="&#x11e;" horiz-adv-x="632" 
d="M188 870h44c21 -48 55 -73 98 -73c44 0 77 25 98 73h44c-9 -83 -65 -138 -141 -138s-133 55 -143 138zM352 338h223v-276c-71 -49 -148 -74 -233 -74c-184 0 -299 133 -299 346c0 207 115 345 287 345c81 0 150 -31 192 -84c26 -35 38 -70 44 -129h-92
c-15 83 -61 123 -143 123c-112 0 -180 -96 -180 -254c0 -163 70 -257 190 -257c49 0 101 15 146 43v136h-135v81z" />
    <glyph glyph-name="Gdotaccent" unicode="&#x120;" horiz-adv-x="632" 
d="M332 872c39 0 71 -32 71 -72c0 -39 -32 -71 -71 -71c-40 0 -72 32 -72 71c0 40 32 72 72 72zM352 338h223v-276c-71 -49 -148 -74 -233 -74c-184 0 -299 133 -299 346c0 207 115 345 287 345c81 0 150 -31 192 -84c26 -35 38 -70 44 -129h-92c-15 83 -61 123 -143 123
c-112 0 -180 -96 -180 -254c0 -163 70 -257 190 -257c49 0 101 15 146 43v136h-135v81z" />
    <glyph glyph-name="Idotaccent" unicode="&#x130;" horiz-adv-x="269" 
d="M186 0h-104v667h104v-667zM135 872c39 0 71 -32 71 -71c0 -40 -32 -72 -72 -72c-39 0 -71 32 -71 71c0 40 32 72 72 72z" />
    <glyph glyph-name="Lacute" unicode="&#x139;" horiz-adv-x="496" 
d="M82 667h106v-578h288v-89h-394v667zM69 725l153 151h128l-186 -151h-95z" />
    <glyph glyph-name="Lcaron" unicode="&#x13d;" horiz-adv-x="496" 
d="M83 667h106v-578h287v-89h-393v667zM339 462h-51c30 34 52 77 53 106c-37 2 -59 22 -59 54s27 58 61 58c38 0 64 -31 64 -77c0 -44 -17 -79 -68 -141z" />
    <glyph glyph-name="Nacute" unicode="&#x143;" horiz-adv-x="668" 
d="M83 667h111l293 -510v510h98v-667h-107l-297 509v-509h-98v667zM245 725l153 151h128l-186 -151h-95z" />
    <glyph glyph-name="Ncaron" unicode="&#x147;" horiz-adv-x="668" 
d="M83 667h111l293 -510v510h98v-667h-107l-297 509v-509h-98v667zM513 869l-134 -137h-90l-134 137h94l85 -83l84 83h95z" />
    <glyph glyph-name="Ohungarumlaut" unicode="&#x150;" horiz-adv-x="660" 
d="M212 725l123 151h115l-161 -151h-77zM366 725l123 151h115l-160 -151h-78zM330 679c173 0 288 -138 288 -344c0 -127 -37 -219 -112 -284c-51 -44 -106 -63 -179 -63c-65 0 -123 21 -172 63c-75 64 -112 158 -112 283c0 207 115 345 287 345zM330 590
c-111 0 -179 -97 -179 -256c0 -158 68 -257 177 -257c114 0 182 96 182 258c0 158 -68 255 -180 255z" />
    <glyph glyph-name="Racute" unicode="&#x154;" horiz-adv-x="577" 
d="M83 667h143c111 0 153 -6 198 -27c63 -30 101 -94 101 -171c0 -87 -43 -150 -127 -184l164 -285h-122l-151 268h-103v-268h-103v667zM186 357h46c72 0 94 2 121 12c41 15 65 52 65 101c0 42 -19 75 -52 91c-28 14 -50 17 -139 17h-41v-221zM199 725l153 151h127
l-185 -151h-95z" />
    <glyph glyph-name="Rcaron" unicode="&#x158;" horiz-adv-x="577" 
d="M83 667h143c111 0 153 -6 198 -27c63 -30 101 -94 101 -171c0 -87 -43 -150 -127 -184l164 -285h-122l-151 268h-103v-268h-103v667zM186 357h46c72 0 94 2 121 12c41 15 65 52 65 101c0 42 -19 75 -52 91c-28 14 -50 17 -139 17h-41v-221zM469 869l-134 -137h-90
l-134 137h94l85 -83l84 83h95z" />
    <glyph glyph-name="Sacute" unicode="&#x15a;" horiz-adv-x="557" 
d="M494 482h-100c-7 70 -48 107 -120 107c-64 0 -111 -38 -111 -89c0 -27 13 -47 40 -63c21 -12 35 -18 112 -47c92 -35 129 -56 157 -88c26 -32 40 -71 40 -116c0 -123 -86 -198 -228 -198c-98 0 -170 32 -210 94c-24 38 -32 71 -33 134h100c2 -48 12 -77 34 -99
c22 -24 64 -39 109 -39c72 0 123 40 123 98c0 33 -14 57 -44 77c-21 13 -37 21 -111 49s-116 50 -142 73c-33 30 -50 71 -50 119c0 110 87 185 216 185c81 0 149 -31 186 -86c21 -31 29 -60 32 -111zM189 725l153 151h127l-185 -151h-95z" />
    <glyph glyph-name="Scedilla" unicode="&#x15e;" horiz-adv-x="557" 
d="M291 -12l-17 -46c66 -11 101 -45 101 -98c0 -60 -48 -105 -114 -105c-29 0 -50 6 -90 26v50c33 -15 48 -19 66 -19c35 0 59 23 59 57c0 36 -26 58 -70 58c-8 0 -14 -1 -28 -3l29 84c-116 19 -185 101 -186 224h100c8 -91 57 -138 144 -138c71 0 121 38 121 91
c0 29 -14 53 -43 73c-21 14 -33 20 -110 53c-73 31 -115 55 -139 78c-34 33 -51 74 -51 120c0 109 89 186 215 186c79 0 146 -31 183 -87c21 -30 29 -60 32 -110h-100c-5 68 -49 107 -118 107c-62 0 -109 -37 -109 -86c0 -24 13 -45 37 -60c20 -12 32 -17 114 -52
c99 -41 129 -59 155 -88c26 -31 40 -71 40 -117c0 -118 -88 -196 -221 -198z" />
    <glyph glyph-name="Tcaron" unicode="&#x164;" horiz-adv-x="484" 
d="M16 667h453v-89h-176v-578h-103v578h-174v89zM421 869l-133 -137h-91l-134 137h95l84 -83l84 83h95z" />
    <glyph glyph-name="Uring" unicode="&#x16e;" horiz-adv-x="651" 
d="M327 905c52 0 95 -43 95 -96s-43 -96 -96 -96s-96 43 -96 96c0 54 43 96 97 96zM327 858c-28 0 -50 -22 -50 -49s22 -49 49 -49s49 22 49 49s-22 49 -48 49zM75 667h103v-387c0 -82 3 -107 18 -135c21 -42 69 -67 130 -67c71 0 122 32 139 88c7 23 9 46 9 114v387h103
v-389c0 -99 -4 -128 -21 -166c-36 -78 -121 -124 -230 -124s-194 46 -230 124c-17 39 -21 67 -21 166v389z" />
    <glyph glyph-name="Uhungarumlaut" unicode="&#x170;" horiz-adv-x="651" 
d="M202 725l124 151h114l-160 -151h-78zM357 725l123 151h115l-161 -151h-77zM75 667h103v-387c0 -83 3 -107 18 -135c21 -42 69 -67 130 -67c71 0 121 32 139 88c7 23 9 46 9 114v387h103v-389c0 -100 -3 -127 -21 -166c-36 -78 -121 -124 -230 -124s-194 46 -230 124
c-17 38 -21 67 -21 166v389z" />
    <glyph glyph-name="Zacute" unicode="&#x179;" horiz-adv-x="497" 
d="M52 667h420v-72l-324 -506h315v-89h-437v81l321 499h-295v87zM174 725l154 151h127l-186 -151h-95z" />
    <glyph glyph-name="Zdotaccent" unicode="&#x17b;" horiz-adv-x="497" 
d="M52 667h420v-72l-324 -506h315v-89h-437v81l321 499h-295v87zM260 872c39 0 71 -32 71 -72c0 -39 -32 -71 -72 -71c-39 0 -71 32 -71 71c0 40 32 72 72 72z" />
    <glyph glyph-name="Amacron" unicode="&#x100;" horiz-adv-x="585" 
d="M242 669h100l228 -669h-107l-49 156h-243l-50 -156h-106zM387 245l-95 300l-94 -300h189zM141 833h303v-64h-303v64z" />
    <glyph glyph-name="Tcommaaccent" unicode="&#x162;" horiz-adv-x="484" 
d="M16 667h453v-89h-176v-578h-103v578h-174v89zM236 -271h-50c28 30 51 76 53 106c-37 2 -59 22 -59 54s27 58 61 58c38 0 64 -31 64 -78c0 -43 -21 -87 -69 -140z" />
    <glyph glyph-name="Ccircumflex" unicode="&#x108;" horiz-adv-x="600" 
d="M556 465h-91c-16 82 -63 124 -138 124c-108 0 -176 -99 -176 -256s68 -255 177 -255c85 0 136 57 144 160h94c-8 -159 -92 -250 -233 -250c-176 0 -290 136 -290 344c0 122 37 221 106 281c48 42 113 66 180 66c132 0 215 -78 227 -214zM151 732l134 137h90l134 -137h-94
l-85 83l-84 -83h-95z" />
    <glyph glyph-name="Wcircumflex" unicode="&#x174;" horiz-adv-x="826" 
d="M13 667h97l128 -543l131 543h89l130 -543l130 543h95l-166 -669h-115l-120 475l-119 -475h-115zM235 732l134 137h90l134 -137h-94l-85 83l-84 -83h-95z" />
    <glyph glyph-name="Wdieresis" unicode="&#x1e84;" horiz-adv-x="826" 
d="M13 667h97l128 -543l131 543h89l130 -543l130 543h95l-166 -669h-115l-120 475l-119 -475h-115zM322 866c36 0 65 -30 65 -65c0 -37 -29 -66 -65 -66c-37 0 -66 29 -66 65c0 37 29 66 66 66zM505 866c36 0 65 -30 65 -65c0 -37 -29 -66 -66 -66c-36 0 -65 29 -65 65
c0 37 29 66 66 66z" />
    <glyph glyph-name="Ycircumflex" unicode="&#x176;" horiz-adv-x="539" 
d="M90 732l134 137h90l134 -137h-94l-85 83l-84 -83h-95zM5 667h116l150 -287l147 287h115l-213 -396l1 -271h-104l1 271z" />
    <glyph glyph-name="Hbar" unicode="&#x126;" horiz-adv-x="659" 
d="M474 566v101h103v-101h60v-83h-60v-483h-103v306h-288v-306h-103v483h-60v83h60v101h103v-101h288zM474 483h-288v-92h288v92z" />
    <glyph glyph-name="Emacron" unicode="&#x112;" horiz-adv-x="520" 
d="M186 390h268v-89h-268v-212h300v-89h-403v667h395v-89h-292v-188zM130 833h303v-64h-303v64z" />
    <glyph glyph-name="Gcircumflex" unicode="&#x11c;" horiz-adv-x="632" 
d="M152 732l134 137h90l134 -137h-94l-85 83l-84 -83h-95zM352 338h223v-276c-71 -49 -148 -74 -233 -74c-184 0 -299 133 -299 346c0 207 115 345 287 345c81 0 150 -31 192 -84c26 -35 38 -70 44 -129h-92c-15 83 -61 123 -143 123c-112 0 -180 -96 -180 -254
c0 -163 70 -257 190 -257c49 0 101 15 146 43v136h-135v81z" />
    <glyph glyph-name="Hcircumflex" unicode="&#x124;" horiz-adv-x="659" 
d="M186 391h288v276h103v-667h-103v306h-288v-306h-103v667h103v-276zM151 732l134 137h90l134 -137h-94l-85 83l-84 -83h-95z" />
    <glyph glyph-name="Imacron" unicode="&#x12a;" horiz-adv-x="269" 
d="M186 0h-104v667h104v-667zM9 833h250v-64h-250v64z" />
    <glyph glyph-name="Iogonek" unicode="&#x12e;" horiz-adv-x="269" 
d="M133 0h-51v667h105v-667c-46 -56 -55 -72 -55 -102c0 -27 18 -44 48 -44c9 0 12 1 32 8v-50c-25 -12 -39 -16 -59 -16c-55 0 -100 43 -100 97c0 41 24 73 80 107z" />
    <glyph glyph-name="Kcommaaccent" unicode="&#x136;" horiz-adv-x="593" 
d="M444 667h121l-260 -312l281 -355h-135l-263 352zM83 667h103v-667h-103v667zM310 -271h-50c28 31 51 75 53 106c-37 2 -59 22 -59 54s27 58 61 58c38 0 64 -31 64 -78c0 -43 -21 -85 -69 -140z" />
    <glyph glyph-name="Lcommaaccent" unicode="&#x13b;" horiz-adv-x="496" 
d="M83 667h106v-578h287v-89h-393v667zM275 -271h-50c29 31 51 76 53 106c-37 2 -59 22 -59 54s27 58 61 58c38 0 64 -31 64 -77c0 -44 -21 -87 -69 -141z" />
    <glyph glyph-name="Ncommaaccent" unicode="&#x145;" horiz-adv-x="668" 
d="M83 667h111l293 -510v510h98v-667h-107l-297 509v-509h-98v667zM323 -271h-51c28 29 52 76 54 106c-37 1 -59 22 -59 54s27 58 60 58c38 0 64 -32 64 -78c0 -43 -21 -86 -68 -140z" />
    <glyph glyph-name="Omacron" unicode="&#x14c;" horiz-adv-x="660" 
d="M331 679c172 0 287 -139 287 -345c0 -207 -115 -346 -287 -346c-174 0 -288 138 -288 350c0 202 118 341 288 341zM331 590c-110 0 -180 -99 -180 -253c0 -161 68 -260 180 -260c110 0 179 99 179 257c0 157 -69 256 -179 256zM179 833h303v-64h-303v64z" />
    <glyph glyph-name="Rcommaaccent" unicode="&#x156;" horiz-adv-x="577" 
d="M83 667h143c111 0 153 -6 198 -27c63 -30 101 -94 101 -171c0 -87 -43 -150 -127 -184l164 -285h-122l-151 268h-103v-268h-103v667zM186 357h46c72 0 94 2 121 12c41 15 65 52 65 101c0 42 -19 75 -52 91c-28 14 -50 17 -139 17h-41v-221zM298 -271h-51
c29 30 52 76 54 106c-37 2 -59 22 -59 54s27 58 60 58c38 0 64 -31 64 -77c0 -44 -20 -86 -68 -141z" />
    <glyph glyph-name="Scircumflex" unicode="&#x15c;" horiz-adv-x="557" 
d="M100 732l134 137h91l134 -137h-95l-84 83l-84 -83h-96zM494 482h-100c-7 70 -48 107 -119 107c-64 0 -110 -36 -110 -85c0 -26 13 -48 37 -62c19 -11 19 -11 114 -51c103 -43 129 -58 156 -88c26 -30 40 -71 40 -118c0 -122 -86 -197 -226 -197c-96 0 -169 33 -210 95
c-24 36 -33 73 -35 133h100c8 -93 55 -138 146 -138c72 0 119 36 119 90c0 30 -14 55 -43 74c-20 14 -39 24 -110 53c-78 33 -115 54 -140 78c-33 31 -51 74 -51 121c0 109 88 185 216 185c81 0 148 -31 185 -86c20 -31 28 -60 31 -111z" />
    <glyph glyph-name="Gcommaaccent" unicode="&#x122;" horiz-adv-x="632" 
d="M331 -271h-51c28 30 52 76 53 106c-37 1 -59 22 -59 54s27 58 61 58c38 0 64 -31 64 -78c0 -43 -21 -86 -68 -140zM352 338h223v-276c-71 -49 -148 -74 -233 -74c-184 0 -299 133 -299 346c0 207 115 345 287 345c81 0 150 -31 192 -84c26 -35 38 -70 44 -129h-92
c-15 83 -61 123 -143 123c-112 0 -180 -96 -180 -254c0 -163 70 -257 190 -257c49 0 101 15 146 43v136h-135v81z" />
    <glyph glyph-name="uni01D3" unicode="&#x1d3;" horiz-adv-x="651" 
d="M505 869l-134 -137h-90l-134 137h94l85 -83l84 83h95zM75 667h103v-387c0 -82 3 -107 18 -135c21 -42 69 -67 130 -67c71 0 122 32 139 88c7 23 9 46 9 114v387h103v-389c0 -99 -4 -128 -21 -166c-36 -78 -121 -124 -230 -124s-194 46 -230 124c-17 39 -21 67 -21 166
v389z" />
    <glyph glyph-name="Umacron" unicode="&#x16a;" horiz-adv-x="651" 
d="M75 667h103v-387c0 -82 3 -107 18 -135c21 -42 69 -67 130 -67c71 0 122 32 139 88c7 23 9 46 9 114v387h103v-389c0 -99 -4 -128 -21 -166c-36 -78 -121 -124 -230 -124s-194 46 -230 124c-17 39 -21 67 -21 166v389zM174 833h303v-64h-303v64z" />
    <glyph glyph-name="Uogonek" unicode="&#x172;" horiz-adv-x="651" 
d="M500 -138v-50c-26 -12 -45 -16 -68 -16c-64 0 -110 41 -110 97c0 44 22 70 87 105c-36 -8 -53 -10 -82 -10c-110 0 -195 46 -231 124c-17 39 -21 67 -21 166v389h103v-387c0 -82 3 -107 18 -135c21 -42 69 -67 130 -67c71 0 122 32 139 88c7 23 9 46 9 114v387h103v-389
c0 -88 -2 -112 -14 -148c-13 -37 -22 -50 -74 -103c-66 -67 -88 -99 -88 -126c0 -30 20 -48 54 -48c15 0 26 2 45 9z" />
    <glyph glyph-name="Ebreve" unicode="&#x114;" horiz-adv-x="520" 
d="M186 390h268v-89h-268v-212h300v-89h-403v667h395v-89h-292v-188zM139 870h44c21 -48 54 -73 98 -73s77 25 98 73h44c-10 -84 -66 -138 -142 -138s-132 55 -142 138z" />
    <glyph glyph-name="uni01F4" unicode="&#x1f4;" horiz-adv-x="632" 
d="M240 725l153 151h128l-186 -151h-95zM352 338h223v-276c-71 -49 -148 -74 -233 -74c-184 0 -299 133 -299 346c0 207 115 345 287 345c81 0 150 -31 192 -84c26 -35 38 -70 44 -129h-92c-15 83 -61 123 -143 123c-112 0 -180 -96 -180 -254c0 -163 70 -257 190 -257
c49 0 101 15 146 43v136h-135v81z" />
    <glyph glyph-name="dotlessj" unicode="&#xf6be;" horiz-adv-x="262" 
d="M93 475h100v-419c0 -104 -6 -135 -32 -172c-33 -48 -86 -69 -172 -69h-23v85h16c53 0 86 14 100 42c9 19 11 37 11 113v420z" />
    <glyph glyph-name="ij" unicode="&#x133;" 
d="M71 475h100v-475h-100v475zM123 678c35 0 60 -26 60 -63c0 -36 -25 -61 -62 -61s-62 25 -62 60c0 38 26 64 64 64zM331 475h100v-419c0 -104 -6 -135 -32 -172c-33 -48 -86 -69 -171 -69h-24v85h15c54 0 86 14 101 42c10 20 10 27 11 113v420zM383 678
c36 0 60 -25 60 -62s-25 -62 -62 -62s-62 25 -62 61c0 37 26 63 64 63z" />
    <glyph glyph-name="uni01CE" unicode="&#x1ce;" horiz-adv-x="495" 
d="M409 691l-117 -146h-90l-117 146h90l72 -90l71 90h91zM155 341h-95c6 49 21 79 52 103c33 27 84 42 142 42c80 0 137 -27 157 -74c12 -27 15 -52 15 -112v-185c0 -64 3 -87 15 -115h-91c-6 22 -8 33 -8 59c-26 -47 -71 -70 -136 -70c-100 0 -162 52 -162 136
c0 66 38 115 109 142c44 17 72 23 178 42v13c0 61 -23 84 -83 84c-54 0 -84 -21 -93 -65zM331 204v37c-138 -21 -186 -48 -186 -105c0 -41 33 -69 81 -69c41 0 76 20 92 52c9 18 13 44 13 85z" />
    <glyph glyph-name="abreve" unicode="&#x103;" horiz-adv-x="495" 
d="M115 682h47c18 -49 46 -73 84 -73s63 22 82 73h46c-9 -87 -57 -140 -127 -140c-71 0 -123 55 -132 140zM155 341h-95c6 49 21 79 52 103c33 27 84 42 142 42c80 0 137 -27 157 -74c12 -27 15 -52 15 -112v-185c0 -64 3 -87 15 -115h-91c-6 22 -8 33 -8 59
c-26 -47 -71 -70 -136 -70c-100 0 -162 52 -162 136c0 66 38 115 109 142c44 17 72 23 178 42v13c0 61 -23 84 -83 84c-54 0 -84 -21 -93 -65zM331 204v37c-138 -21 -186 -48 -186 -105c0 -41 33 -69 81 -69c41 0 76 20 92 52c9 18 13 44 13 85z" />
    <glyph glyph-name="aogonek" unicode="&#x105;" horiz-adv-x="495" 
d="M426 300v-185c0 -64 3 -85 14 -115c-48 -31 -81 -70 -81 -97c0 -26 19 -42 50 -42c14 0 29 3 44 9v-48c-22 -10 -39 -14 -62 -14c-62 0 -104 36 -104 90c0 44 26 74 89 102h-27c-5 23 -7 34 -7 59c-26 -47 -71 -70 -136 -70c-100 0 -162 52 -162 135c0 66 38 116 109 143
c44 17 71 23 178 42v15c0 58 -24 82 -83 82c-54 0 -84 -21 -93 -65h-95c6 49 21 79 52 103c33 27 84 42 142 42c80 0 137 -27 157 -74c12 -27 15 -52 15 -112zM331 204v37c-138 -21 -186 -48 -186 -105c0 -41 33 -69 81 -69c41 0 76 20 92 52c9 18 13 44 13 85z" />
    <glyph glyph-name="cacute" unicode="&#x107;" horiz-adv-x="482" 
d="M182 540l116 151h128l-167 -151h-77zM440 318h-97c-10 63 -37 90 -89 90c-70 0 -114 -67 -114 -172c0 -106 43 -169 115 -169c56 0 84 30 92 99h96c-7 -111 -79 -179 -188 -179c-130 0 -216 100 -216 249c0 153 85 252 217 252c106 0 171 -60 184 -170z" />
    <glyph glyph-name="ccaron" unicode="&#x10d;" horiz-adv-x="482" 
d="M416 691l-117 -146h-90l-118 146h91l72 -90l71 90h91zM440 318h-97c-10 63 -37 90 -89 90c-70 0 -114 -67 -114 -172c0 -106 43 -169 115 -169c56 0 84 30 92 99h96c-7 -111 -79 -179 -188 -179c-130 0 -216 100 -216 249c0 153 85 252 217 252c106 0 171 -60 184 -170z
" />
    <glyph glyph-name="cdotaccent" unicode="&#x10b;" horiz-adv-x="482" 
d="M254 680c33 0 60 -28 60 -61c0 -34 -27 -61 -61 -61s-61 27 -61 61s27 61 62 61zM440 318h-97c-10 63 -37 90 -89 90c-70 0 -114 -67 -114 -172c0 -106 43 -169 115 -169c56 0 84 30 92 99h96c-7 -111 -79 -179 -188 -179c-130 0 -216 100 -216 249c0 153 85 252 217 252
c106 0 171 -60 184 -170z" />
    <glyph glyph-name="dcaron" unicode="&#x10f;" horiz-adv-x="618" 
d="M459 671v-525c0 -83 2 -114 9 -146h-93c-5 20 -6 31 -6 46c0 6 0 11 1 21c-32 -55 -71 -78 -134 -78c-118 0 -196 97 -196 244c0 148 80 253 193 253c58 0 92 -19 128 -70v255h98zM254 403c-70 0 -113 -63 -113 -168c0 -101 42 -163 110 -163c69 0 112 64 112 166
s-42 165 -109 165zM569 460h-51c29 31 52 77 54 107c-38 2 -60 22 -60 54c0 33 27 59 61 59c39 0 65 -32 65 -78c0 -44 -21 -88 -69 -142z" />
    <glyph glyph-name="dcroat" unicode="&#x111;" horiz-adv-x="529" 
d="M459 671v-67h60v-67h-60v-391c0 -83 2 -114 9 -146h-93c-5 20 -6 31 -6 46c0 6 0 11 1 21c-32 -55 -71 -78 -134 -78c-118 0 -197 97 -197 244c0 148 80 253 193 253c59 0 93 -19 129 -70v121h-127v67h127v67h98zM254 403c-71 0 -114 -63 -114 -168
c0 -101 42 -163 110 -163c70 0 113 64 113 166s-42 165 -109 165z" />
    <glyph glyph-name="ecaron" unicode="&#x11b;" horiz-adv-x="501" 
d="M423 691l-117 -146h-91l-117 146h91l71 -90l71 90h92zM462 216h-324c4 -96 48 -148 126 -148c48 0 79 19 100 62l88 -6c-26 -88 -94 -137 -191 -137c-134 0 -222 97 -222 245c0 154 87 256 219 256c125 0 205 -97 205 -251c0 -3 0 -12 -1 -21zM141 289h221
c-9 80 -45 120 -107 120c-61 0 -98 -39 -114 -120z" />
    <glyph glyph-name="edotaccent" unicode="&#x117;" horiz-adv-x="501" 
d="M262 680c33 0 60 -28 60 -61c0 -34 -27 -61 -61 -61s-61 27 -61 61s27 61 62 61zM462 216h-324c4 -96 48 -148 126 -148c48 0 79 19 100 62l88 -6c-26 -88 -94 -137 -191 -137c-134 0 -222 97 -222 245c0 154 87 256 219 256c125 0 205 -97 205 -251c0 -3 0 -12 -1 -21z
M141 289h221c-9 80 -45 120 -107 120c-61 0 -98 -39 -114 -120z" />
    <glyph glyph-name="eogonek" unicode="&#x119;" horiz-adv-x="501" 
d="M419 -130v-48c-21 -10 -40 -14 -64 -14c-61 0 -103 37 -103 90c0 40 16 63 72 97c-29 -6 -42 -8 -62 -8c-135 0 -223 96 -223 245c0 154 87 256 218 256c125 0 205 -97 205 -251v-21h-324c4 -96 48 -148 125 -148c48 0 80 19 101 62l88 -6c-10 -37 -22 -56 -75 -120
c-39 -48 -53 -74 -53 -100c0 -27 18 -43 51 -43c14 0 29 3 44 9zM140 289h222c-9 80 -45 120 -107 120c-61 0 -99 -39 -115 -120z" />
    <glyph glyph-name="gcaron" unicode="&#x1e7;" horiz-adv-x="508" 
d="M422 691l-117 -146h-90l-117 146h90l72 -90l71 90h91zM488 475v-72l-97 1c20 -23 32 -59 32 -96c0 -54 -25 -97 -68 -118c-33 -15 -45 -18 -139 -32c-29 -4 -50 -19 -50 -34c0 -19 9 -22 100 -31c88 -9 121 -15 150 -32c38 -22 60 -62 60 -110c0 -96 -84 -153 -226 -153
c-138 0 -226 54 -226 138c0 56 30 90 98 114c-37 15 -52 31 -52 56c0 32 23 53 84 77c-60 27 -87 70 -87 136c0 100 73 165 187 165c28 0 49 -3 83 -13zM248 408c-56 0 -93 -35 -93 -88c0 -50 36 -83 90 -83c56 0 92 33 92 83c0 52 -37 88 -89 88zM239 13
c-81 0 -129 -26 -129 -69c0 -44 55 -71 142 -71c80 0 129 27 129 70c0 45 -51 70 -142 70z" />
    <glyph glyph-name="gbreve" unicode="&#x11f;" horiz-adv-x="508" 
d="M131 682h47c18 -49 46 -73 84 -73s63 22 82 73h46c-9 -87 -57 -140 -127 -140c-71 0 -123 55 -132 140zM488 475v-72l-97 1c20 -23 32 -59 32 -96c0 -54 -25 -97 -68 -118c-33 -15 -45 -18 -139 -32c-29 -4 -50 -19 -50 -34c0 -19 9 -22 100 -31c88 -9 121 -15 150 -32
c38 -22 60 -62 60 -110c0 -96 -84 -153 -226 -153c-138 0 -226 54 -226 138c0 56 30 90 98 114c-37 15 -52 31 -52 56c0 32 23 53 84 77c-60 27 -87 70 -87 136c0 100 73 165 187 165c28 0 49 -3 83 -13zM248 408c-56 0 -93 -35 -93 -88c0 -50 36 -83 90 -83
c56 0 92 33 92 83c0 52 -37 88 -89 88zM239 13c-81 0 -129 -26 -129 -69c0 -44 55 -71 142 -71c80 0 129 27 129 70c0 45 -51 70 -142 70z" />
    <glyph glyph-name="gdotaccent" unicode="&#x121;" horiz-adv-x="508" 
d="M488 475v-72l-97 1c20 -23 32 -59 32 -96c0 -54 -25 -97 -68 -118c-33 -15 -45 -18 -139 -32c-29 -4 -50 -19 -50 -34c0 -19 9 -22 100 -31c88 -9 121 -15 150 -32c38 -22 60 -62 60 -110c0 -96 -84 -153 -226 -153c-138 0 -226 54 -226 138c0 56 30 90 98 114
c-37 15 -52 31 -52 56c0 32 23 53 84 77c-60 27 -87 70 -87 136c0 100 73 165 187 165c28 0 49 -3 83 -13zM248 408c-56 0 -93 -35 -93 -88c0 -50 36 -83 90 -83c56 0 92 33 92 83c0 52 -37 88 -89 88zM239 13c-81 0 -129 -26 -129 -69c0 -44 55 -71 142 -71
c80 0 129 27 129 70c0 45 -51 70 -142 70zM261 680c33 0 60 -28 60 -61c0 -34 -27 -61 -61 -61s-61 27 -61 61s27 61 62 61z" />
    <glyph glyph-name="lacute" unicode="&#x13a;" horiz-adv-x="242" 
d="M71 671h100v-671h-100v671zM58 725l126 151h121l-167 -151h-80z" />
    <glyph glyph-name="lcaron" unicode="&#x13e;" horiz-adv-x="329" 
d="M71 671h100v-671h-100v671zM281 462h-51c30 34 52 77 53 106c-37 2 -59 22 -59 54s27 58 61 58c38 0 64 -31 64 -77c0 -44 -17 -79 -68 -141z" />
    <glyph glyph-name="nacute" unicode="&#x144;" horiz-adv-x="527" 
d="M184 540l116 151h128l-168 -151h-76zM58 475h95c7 -19 9 -35 10 -65c33 51 81 76 143 76c61 0 112 -28 135 -73c16 -31 19 -52 19 -140v-273h-98v257c0 58 -3 81 -13 101c-13 27 -39 41 -73 41c-39 0 -73 -20 -91 -54c-11 -21 -16 -49 -16 -92v-253h-98v309
c0 116 0 120 -13 166z" />
    <glyph glyph-name="ncaron" unicode="&#x148;" horiz-adv-x="527" 
d="M58 475h95c7 -19 9 -35 10 -65c33 51 81 76 143 76c61 0 112 -28 135 -73c16 -31 19 -52 19 -140v-273h-98v257c0 58 -3 81 -13 101c-13 27 -39 41 -73 41c-39 0 -73 -20 -91 -54c-11 -21 -16 -49 -16 -92v-253h-98v309c0 116 0 120 -13 166zM418 691l-117 -146h-90
l-118 146h91l72 -90l71 90h91z" />
    <glyph glyph-name="ohungarumlaut" unicode="&#x151;" horiz-adv-x="521" 
d="M157 540l98 151h111l-139 -151h-70zM304 540l98 151h111l-139 -151h-70zM261 488c129 0 221 -105 221 -251s-92 -250 -221 -250c-131 0 -222 104 -222 254c0 142 94 247 222 247zM261 408c-71 0 -121 -69 -121 -169c0 -104 48 -172 121 -172c71 0 120 69 120 170
s-49 171 -120 171z" />
    <glyph glyph-name="racute" unicode="&#x155;" horiz-adv-x="353" 
d="M119 540l117 151h127l-167 -151h-77zM64 475h94c4 -23 7 -48 7 -73c0 -7 0 -15 -1 -27c35 76 76 111 130 111c14 0 27 -3 47 -10v-99c-27 15 -46 21 -69 21c-38 0 -68 -23 -86 -65c-12 -27 -17 -63 -17 -116v-217h-99v321c0 103 -1 112 -6 154z" />
    <glyph glyph-name="sacute" unicode="&#x15b;" horiz-adv-x="463" 
d="M164 540l116 151h128l-167 -151h-77zM415 336h-95c-7 51 -34 75 -86 75c-46 0 -78 -25 -78 -60s16 -45 113 -73c74 -22 104 -36 124 -60c18 -21 27 -49 27 -81c0 -93 -69 -150 -183 -150c-127 0 -196 58 -196 166h93c5 -61 37 -89 100 -89c54 0 87 26 87 66
c0 22 -9 35 -33 46c-15 8 -27 12 -101 35c-95 28 -129 63 -129 131c0 87 72 146 178 146c108 0 173 -55 179 -152z" />
    <glyph glyph-name="scircumflex" unicode="&#x15d;" horiz-adv-x="463" 
d="M75 545l118 146h90l117 -146h-90l-72 90l-71 -90h-92zM415 336h-95c-7 51 -34 75 -86 75c-46 0 -78 -25 -78 -60s16 -45 113 -73c74 -22 104 -36 124 -60c18 -21 27 -49 27 -81c0 -93 -69 -150 -183 -150c-127 0 -196 58 -196 166h93c5 -61 37 -89 100 -89
c54 0 87 26 87 66c0 22 -9 35 -33 46c-15 8 -27 12 -101 35c-95 28 -129 63 -129 131c0 87 72 146 178 146c108 0 173 -55 179 -152z" />
    <glyph glyph-name="scommaaccent" unicode="&#x219;" horiz-adv-x="463" 
d="M226 -274h-52c29 30 52 77 54 107c-38 2 -60 22 -60 54c0 33 27 59 62 59c39 0 65 -32 65 -78c0 -44 -21 -88 -69 -142zM415 336h-95c-7 51 -34 75 -86 75c-46 0 -78 -25 -78 -60s16 -45 113 -73c74 -22 104 -36 124 -60c18 -21 27 -49 27 -81c0 -93 -69 -150 -183 -150
c-127 0 -196 58 -196 166h93c5 -61 37 -89 100 -89c54 0 87 26 87 66c0 22 -9 35 -33 46c-15 8 -27 12 -101 35c-95 28 -129 63 -129 131c0 87 72 146 178 146c108 0 173 -55 179 -152z" />
    <glyph glyph-name="tcaron" unicode="&#x165;" horiz-adv-x="358" 
d="M197 475h104l-1 -78h-105l-3 -210c-1 -32 -1 -32 -1 -40c0 -55 12 -71 51 -71c22 0 45 5 70 16l-1 -83c-34 -13 -63 -19 -96 -19c-51 0 -90 19 -110 53c-11 20 -15 40 -15 85c0 10 0 11 2 59l6 210h-73l1 78h75l3 136h95zM310 528h-51c28 31 51 77 53 107
c-37 2 -59 22 -59 54c0 33 27 59 61 59c39 0 65 -32 65 -78c0 -44 -21 -88 -69 -142z" />
    <glyph glyph-name="uring" unicode="&#x16f;" horiz-adv-x="528" 
d="M263 721c52 0 95 -43 95 -96s-43 -96 -96 -96s-96 43 -96 96s43 96 97 96zM263 674c-28 0 -50 -22 -50 -49s22 -49 49 -49s49 22 49 49s-22 49 -48 49zM68 475h98v-280c0 -44 6 -72 18 -88c15 -20 41 -31 71 -31c39 0 70 18 88 51c11 20 16 46 16 87v261h98v-329
c0 -107 0 -107 12 -146h-94c-5 14 -9 36 -10 59c-32 -49 -70 -70 -130 -70c-64 0 -118 28 -145 76c-15 27 -22 66 -22 127v283z" />
    <glyph glyph-name="uhungarumlaut" unicode="&#x171;" horiz-adv-x="528" 
d="M162 540l98 151h111l-138 -151h-71zM309 540l98 151h111l-138 -151h-71zM68 475h98v-280c0 -44 6 -72 18 -88c15 -20 41 -31 71 -31c39 0 70 18 88 51c11 20 16 46 16 87v261h98v-329c0 -107 0 -107 12 -146h-94c-5 14 -9 36 -10 59c-32 -49 -70 -70 -130 -70
c-64 0 -118 28 -145 76c-15 27 -22 66 -22 127v283z" />
    <glyph glyph-name="zacute" unicode="&#x17a;" horiz-adv-x="412" 
d="M45 475h342v-73l-249 -321h248v-81h-364v76l245 318h-222v81zM142 540l117 151h127l-167 -151h-77z" />
    <glyph glyph-name="zdotaccent" unicode="&#x17c;" horiz-adv-x="412" 
d="M45 475h342v-73l-249 -321h248v-81h-364v76l245 318h-222v81zM215 680c33 0 60 -28 60 -61c0 -34 -27 -61 -61 -61s-61 27 -61 61s27 61 62 61z" />
    <glyph glyph-name="hbar" unicode="&#x127;" horiz-adv-x="530" 
d="M71 671h98v-67h134v-67h-134v-116c35 43 81 65 137 65c59 0 111 -26 135 -68c18 -29 22 -57 22 -145v-273h-98v257c0 58 -3 80 -14 100c-15 27 -41 42 -75 42c-38 0 -73 -21 -91 -55c-11 -22 -16 -51 -16 -93v-251h-98v537h-60v67h60v67z" />
    <glyph glyph-name="tcommaaccent" unicode="&#x163;" horiz-adv-x="337" 
d="M197 475h104l-1 -78h-105l-3 -210c-1 -32 -1 -32 -1 -40c0 -55 12 -71 51 -71c22 0 45 5 70 16l-1 -83c-34 -13 -63 -19 -96 -19c-52 0 -90 19 -110 54c-11 20 -15 40 -15 84c0 10 0 11 2 59l6 210h-73l1 78h75l3 136h95zM180 -274h-51c29 30 52 76 54 107
c-38 2 -60 22 -60 54c0 33 27 59 61 59c39 0 65 -32 65 -78c0 -44 -21 -87 -69 -142z" />
    <glyph glyph-name="amacron" unicode="&#x101;" horiz-adv-x="495" 
d="M105 648h282v-64h-282v64zM155 341h-95c6 49 21 79 52 103c33 27 84 42 142 42c80 0 137 -27 157 -74c12 -27 15 -52 15 -112v-185c0 -64 3 -87 15 -115h-91c-6 22 -8 33 -8 59c-26 -47 -71 -70 -136 -70c-100 0 -162 52 -162 136c0 66 38 115 109 142
c44 17 72 23 178 42v13c0 61 -23 84 -83 84c-54 0 -84 -21 -93 -65zM331 204v37c-138 -21 -186 -48 -186 -105c0 -41 33 -69 81 -69c41 0 76 20 92 52c9 18 13 44 13 85z" />
    <glyph glyph-name="ycircumflex" unicode="&#x177;" horiz-adv-x="471" 
d="M16 475h104l117 -378l120 378h103l-159 -452c-43 -123 -55 -147 -95 -179c-37 -30 -85 -44 -147 -44h-32v86l18 1h7c78 3 103 22 130 99zM76 545l117 146h90l118 -146h-91l-72 90l-71 -90h-91z" />
    <glyph glyph-name="emacron" unicode="&#x113;" horiz-adv-x="501" 
d="M120 648h281v-64h-281v64zM462 216h-324c4 -96 48 -148 126 -148c48 0 79 19 100 62l88 -6c-26 -88 -94 -137 -191 -137c-134 0 -222 97 -222 245c0 154 87 256 219 256c125 0 205 -97 205 -251c0 -3 0 -12 -1 -21zM141 289h221c-9 80 -45 120 -107 120
c-61 0 -98 -39 -114 -120z" />
    <glyph glyph-name="gcircumflex" unicode="&#x11d;" horiz-adv-x="508" 
d="M98 545l118 146h90l117 -146h-91l-71 90l-71 -90h-92zM488 475v-72l-97 1c20 -23 32 -59 32 -96c0 -54 -25 -97 -68 -118c-33 -15 -45 -18 -139 -32c-29 -4 -50 -19 -50 -34c0 -19 9 -22 100 -31c88 -9 121 -15 150 -32c38 -22 60 -62 60 -110c0 -96 -84 -153 -226 -153
c-138 0 -226 54 -226 138c0 56 30 90 98 114c-37 15 -52 31 -52 56c0 32 23 53 84 77c-60 27 -87 70 -87 136c0 100 73 165 187 165c28 0 49 -3 83 -13zM248 408c-56 0 -93 -35 -93 -88c0 -50 36 -83 90 -83c56 0 92 33 92 83c0 52 -37 88 -89 88zM239 13
c-81 0 -129 -26 -129 -69c0 -44 55 -71 142 -71c80 0 129 27 129 70c0 45 -51 70 -142 70z" />
    <glyph glyph-name="ibreve" unicode="&#x12d;" horiz-adv-x="242" 
d="M71 475h100v-475h-100v475zM-1 678h46c12 -44 40 -69 77 -69c36 0 53 16 75 69h46c-10 -89 -52 -136 -120 -136c-71 0 -114 47 -124 136z" />
    <glyph glyph-name="imacron" unicode="&#x12b;" horiz-adv-x="242" 
d="M71 475h100v-475h-100v475zM7 648h228v-64h-228v64z" />
    <glyph glyph-name="kcommaaccent" unicode="&#x137;" horiz-adv-x="511" 
d="M357 475h119l-188 -217l203 -258h-133l-187 256zM71 671h98v-671h-98v671zM255 -274h-51c28 30 52 77 53 107c-37 2 -59 22 -59 54c0 33 27 59 61 59c39 0 65 -32 65 -79c0 -43 -21 -86 -69 -141z" />
    <glyph glyph-name="lcommaaccent" unicode="&#x13c;" horiz-adv-x="242" 
d="M66 671h100v-671h-100v671zM108 -274h-51c29 30 51 76 54 107c-38 2 -60 22 -60 54c0 33 27 59 61 59c39 0 65 -32 65 -78c0 -44 -21 -88 -69 -142z" />
    <glyph glyph-name="ncommaaccent" unicode="&#x146;" horiz-adv-x="527" 
d="M252 -274h-51c28 30 51 76 53 107c-37 2 -59 22 -59 54c0 33 27 59 61 59c39 0 65 -32 65 -78c0 -44 -21 -87 -69 -142zM58 475h95c7 -19 9 -35 10 -65c33 51 81 76 143 76c61 0 112 -28 135 -73c16 -31 19 -52 19 -140v-273h-98v257c0 58 -3 81 -13 101
c-13 27 -39 41 -73 41c-39 0 -73 -20 -91 -54c-11 -21 -16 -49 -16 -92v-253h-98v309c0 116 0 120 -13 166z" />
    <glyph glyph-name="omacron" unicode="&#x14d;" horiz-adv-x="521" 
d="M118 648h281v-64h-281v64zM261 488c129 0 221 -105 221 -251s-92 -250 -221 -250c-131 0 -222 104 -222 254c0 142 94 247 222 247zM261 408c-71 0 -121 -69 -121 -169c0 -104 48 -172 121 -172c71 0 120 69 120 170s-49 171 -120 171z" />
    <glyph glyph-name="rcommaaccent" unicode="&#x157;" horiz-adv-x="353" 
d="M64 475h94c4 -23 7 -48 7 -73c0 -7 0 -15 -1 -27c35 76 76 111 130 111c14 0 27 -3 47 -10v-99c-27 15 -46 21 -69 21c-38 0 -68 -23 -86 -65c-12 -27 -17 -63 -17 -116v-217h-99v321c0 105 -1 115 -6 154zM113 -274h-51c29 31 52 77 54 107c-38 2 -60 22 -60 54
c0 33 27 59 61 59c39 0 65 -32 65 -78c0 -44 -21 -87 -69 -142z" />
    <glyph glyph-name="ubreve" unicode="&#x16d;" horiz-adv-x="528" 
d="M132 682h47c18 -49 46 -73 85 -73c37 0 62 22 81 73h46c-9 -87 -57 -140 -126 -140c-72 0 -124 55 -133 140zM68 475h98v-280c0 -44 6 -72 18 -88c15 -20 41 -31 71 -31c39 0 70 18 88 51c11 20 16 46 16 87v261h98v-329c0 -107 0 -107 12 -146h-94c-5 14 -9 36 -10 59
c-32 -49 -70 -70 -130 -70c-64 0 -118 28 -145 76c-15 27 -22 66 -22 127v283z" />
    <glyph glyph-name="umacron" unicode="&#x16b;" horiz-adv-x="528" 
d="M68 475h98v-280c0 -44 6 -72 18 -88c15 -20 41 -31 71 -31c39 0 70 18 88 51c11 20 16 46 16 87v261h98v-329c0 -107 0 -107 12 -146h-94c-5 14 -9 36 -10 59c-32 -49 -70 -70 -130 -70c-64 0 -118 28 -145 76c-15 27 -22 66 -22 127v283zM121 648h282v-64h-282v64z" />
    <glyph glyph-name="uogonek" unicode="&#x173;" horiz-adv-x="528" 
d="M457 475v-329c0 -108 0 -108 12 -146c-67 -53 -81 -70 -81 -97c0 -26 19 -42 50 -42c15 0 30 3 45 9v-48c-21 -10 -40 -14 -64 -14c-61 0 -103 37 -103 91c0 42 25 73 83 101h-24c-5 14 -9 36 -10 59c-32 -49 -70 -70 -130 -70c-64 0 -118 28 -145 76
c-15 27 -22 65 -22 127v283h98v-280c0 -44 6 -72 18 -88c15 -20 41 -31 71 -31c39 0 70 18 88 51c11 20 16 46 16 87v261h98z" />
    <glyph glyph-name="rcaron" unicode="&#x159;" horiz-adv-x="353" 
d="M64 475h94c4 -23 7 -48 7 -73c0 -7 0 -15 -1 -27c35 76 76 111 130 111c14 0 27 -3 47 -10v-99c-27 15 -46 21 -69 21c-38 0 -68 -23 -86 -65c-12 -27 -17 -63 -17 -116v-217h-99v321c0 105 -1 115 -6 154zM365 691l-117 -146h-91l-117 146h91l71 -90l71 90h92z" />
    <glyph glyph-name="scedilla" unicode="&#x15f;" horiz-adv-x="463" 
d="M237 -13l-15 -37c59 -10 89 -39 89 -84c0 -54 -42 -93 -100 -93c-27 0 -49 7 -81 24v43c37 -15 44 -17 60 -17c32 0 52 20 52 50c0 31 -24 51 -63 51c-7 0 -12 0 -24 -1l26 69c-91 14 -143 73 -140 161h93c5 -61 37 -89 100 -89c53 0 87 26 87 66c0 22 -9 35 -33 46
c-15 8 -27 12 -102 35c-95 28 -129 63 -129 131c0 87 72 146 178 146c109 0 173 -55 179 -152h-94c-7 51 -34 75 -87 75c-46 0 -78 -25 -78 -60s16 -45 114 -73c74 -22 104 -36 124 -60c18 -21 27 -49 27 -81c0 -93 -69 -150 -183 -150z" />
    <glyph glyph-name="gcommaaccent" unicode="&#x123;" horiz-adv-x="508" 
d="M488 475v-72l-97 1c20 -23 32 -59 32 -96c0 -54 -25 -97 -68 -118c-33 -15 -45 -18 -139 -32c-29 -4 -50 -19 -50 -34c0 -19 9 -22 100 -31c88 -9 121 -15 150 -32c38 -22 60 -62 60 -110c0 -96 -84 -153 -226 -153c-138 0 -226 54 -226 138c0 56 30 90 98 114
c-37 15 -52 31 -52 56c0 32 23 53 84 77c-60 27 -87 70 -87 136c0 100 73 165 187 165c28 0 49 -3 83 -13zM248 408c-56 0 -93 -35 -93 -88c0 -50 36 -83 90 -83c56 0 92 33 92 83c0 52 -37 88 -89 88zM239 13c-81 0 -129 -26 -129 -69c0 -44 55 -71 142 -71
c80 0 129 27 129 70c0 45 -51 70 -142 70zM265 760h51c-28 -31 -51 -77 -53 -107c38 -2 60 -22 60 -54c0 -33 -27 -59 -62 -59c-39 0 -65 32 -65 78c0 44 21 88 69 142z" />
    <glyph glyph-name="Euro" unicode="&#x20ac;" horiz-adv-x="558" 
d="M205 420h281l-28 -62h-260c-1 -12 -1 -18 -1 -33c0 -13 0 -18 1 -28h232l-28 -62h-196c12 -112 58 -160 154 -160c88 0 141 34 192 122v-131c-61 -55 -121 -77 -210 -77c-96 0 -159 34 -201 107c-21 37 -32 77 -39 139h-87l27 62h54c-1 8 -1 12 -1 21c0 17 0 26 2 40h-78
l27 62h57c30 172 112 255 251 255c86 0 158 -31 207 -89l-42 -93c-51 71 -96 98 -162 98c-60 0 -102 -28 -128 -83c-10 -20 -16 -43 -24 -88z" />
    <glyph glyph-name="peseta" unicode="&#x20a7;" horiz-adv-x="970" 
d="M70 667h134c99 0 143 -5 187 -19c75 -25 121 -97 121 -188c0 -88 -45 -158 -118 -183c-41 -14 -82 -18 -177 -18h-42v-259h-105v667zM173 348h44c71 0 91 2 119 10c43 12 69 51 69 103c0 48 -21 85 -56 101c-28 13 -57 16 -133 16h-43v-230zM595 284h65l-1 -51h-65
l-2 -119l-1 -16c0 -40 4 -47 29 -47c14 0 28 3 47 11l-1 -56c-23 -8 -41 -12 -63 -12c-33 0 -57 12 -70 33c-8 12 -10 24 -10 52c0 7 0 7 1 35l4 119h-46l1 51h46l2 83h65zM934 199h-64c-3 30 -19 43 -51 43c-26 0 -46 -13 -46 -31c0 -19 9 -24 69 -41c75 -21 96 -40 96 -86
c0 -57 -44 -91 -117 -91c-82 0 -126 36 -125 103h63c3 -36 21 -52 60 -52c32 0 52 14 52 36c0 20 -6 24 -82 45c-60 17 -83 39 -83 80c0 52 46 88 114 88c70 0 112 -34 114 -94z" />
    <glyph glyph-name="lira" unicode="&#x20a4;" horiz-adv-x="553" 
d="M237 302h157v-64h-169c-11 -58 -32 -119 -56 -159c38 10 71 14 113 14c10 0 29 -1 54 -2l34 -1c46 0 59 18 61 82h82c0 -119 -43 -176 -134 -176c-19 0 -40 1 -65 2c-65 5 -94 6 -128 6c-50 0 -86 -3 -147 -10c35 43 63 125 84 244h-83v64h95c4 21 6 29 11 62h-95v64h107
c33 189 79 249 190 249c59 0 106 -22 129 -61c14 -22 21 -52 24 -96h-88c-5 50 -23 71 -63 71c-34 0 -56 -18 -68 -57c-9 -27 -13 -46 -23 -106h146v-64h-157c-4 -22 -5 -32 -5 -32l-3 -17z" />
    <glyph glyph-name="uniEA71" unicode="&#xea71;" horiz-adv-x="553" 
d="M498 502h65v-63h-62c-7 -72 -38 -123 -94 -152c-40 -21 -89 -28 -201 -28h-43v-259h-104v439h-68v63h68v165h134c134 0 187 -10 232 -42c40 -29 63 -67 73 -123zM162 439v-91h44c83 0 111 3 138 17s45 41 49 74h-231zM162 502h226c-18 61 -54 76 -183 76h-43v-76z" />
    <glyph glyph-name="franc" unicode="&#x20a3;" horiz-adv-x="666" 
d="M173 390h268v-89h-265v-301h-106v667h395v-89h-292v-188zM476 289h64c4 -15 5 -29 6 -52c22 38 45 55 78 55c10 0 17 -1 32 -6v-65c-20 11 -31 14 -46 14c-41 0 -62 -35 -62 -104v-131h-67v192c0 65 0 70 -5 97z" />
    <glyph glyph-name="one.fitted" horiz-adv-x="366" 
d="M22 486v58c87 3 132 36 147 110h69v-654h-100v486h-116z" />
    <glyph glyph-name="two.fitted" horiz-adv-x="498" 
d="M144 465h-87c1 124 75 198 199 198c115 0 190 -66 190 -167c0 -77 -27 -118 -267 -405h274v-91h-403v80c9 11 35 43 79 96c184 223 214 267 214 318c0 48 -38 81 -92 81c-63 0 -101 -39 -107 -110z" />
    <glyph glyph-name="three.fitted" horiz-adv-x="524" 
d="M160 480h-87c5 116 78 183 199 183c114 0 188 -67 188 -169c0 -69 -33 -115 -102 -144c80 -25 117 -75 117 -158c0 -121 -87 -202 -216 -202c-135 0 -215 75 -214 201h91c1 -72 45 -113 121 -113c73 0 118 43 118 113c0 49 -25 85 -69 100c-19 6 -52 10 -91 10
c-3 0 -11 0 -20 -1v84c13 -1 19 -1 25 -1c89 0 139 37 139 103c0 55 -38 90 -96 90c-60 0 -94 -32 -103 -96z" />
    <glyph glyph-name="four.fitted" horiz-adv-x="513" 
d="M379 227h116v-82h-114v-152h-101v152h-268v79l256 430h111v-427zM285 227l1 310l-179 -310h178z" />
    <glyph glyph-name="five.fitted" horiz-adv-x="525" 
d="M122 650h313l-7 -89h-231l-27 -156c37 27 64 36 106 36c118 0 198 -86 198 -213c0 -136 -93 -237 -220 -237c-116 0 -195 70 -202 181h94c10 -61 46 -94 105 -94c71 0 118 58 118 145c0 81 -43 135 -109 135c-45 0 -78 -19 -107 -61l-87 12z" />
    <glyph glyph-name="six.fitted" horiz-adv-x="526" 
d="M288 662h110c-69 -80 -135 -168 -171 -228c20 7 36 10 59 10c112 0 191 -91 191 -219c0 -138 -87 -234 -211 -234c-127 0 -216 96 -216 235c0 82 31 168 98 265c37 54 59 81 140 171zM263 365c-66 0 -112 -59 -112 -144s46 -145 111 -145c68 0 113 58 113 145
c0 85 -46 144 -112 144z" />
    <glyph glyph-name="seven.fitted" horiz-adv-x="438" 
d="M50 650h425v-78l-313 -572h-111l305 555h-306v95z" />
    <glyph glyph-name="eight.fitted" horiz-adv-x="529" 
d="M140 343c-51 29 -75 73 -75 134c0 106 86 186 200 186c113 0 199 -80 199 -186c0 -61 -24 -105 -75 -134c60 -34 90 -85 90 -154c0 -115 -90 -198 -215 -198c-124 0 -214 83 -214 198c0 69 30 120 90 154zM266 581c-60 0 -100 -40 -100 -100c0 -59 40 -100 99 -100
c58 0 98 41 98 100s-40 100 -97 100zM265 300c-67 0 -114 -47 -114 -114c0 -66 47 -113 113 -113s113 47 113 113s-47 114 -112 114z" />
    <glyph glyph-name="nine.fitted" horiz-adv-x="517" 
d="M227 -12h-110c60 66 138 171 173 230c-19 -7 -36 -10 -59 -10c-110 0 -191 92 -191 218c0 139 90 237 217 237c126 0 210 -93 210 -233c0 -131 -69 -259 -240 -442zM256 578c-68 0 -115 -60 -115 -147c0 -85 46 -144 112 -144c67 0 112 59 112 145c0 87 -44 146 -109 146
z" />
    <glyph glyph-name="zero.fitted" horiz-adv-x="552" 
d="M280 663c138 0 223 -128 223 -336c0 -210 -85 -336 -226 -336c-142 0 -227 126 -227 334c0 214 84 338 230 338zM278 579c-38 0 -66 -16 -84 -48c-28 -48 -43 -120 -43 -206c0 -82 15 -155 43 -202c17 -31 47 -48 83 -48c35 0 65 17 82 48c28 48 43 120 43 204
c0 83 -16 158 -43 204c-18 31 -47 48 -81 48z" />
    <glyph glyph-name="sterling.fitted" horiz-adv-x="519" 
d="M243 382h152v-74h-166c-14 -100 -36 -174 -70 -229c42 11 64 14 105 14c14 0 31 -1 63 -2c13 -1 29 -1 34 -1c46 0 59 18 61 82h82c0 -60 -8 -94 -28 -127c-23 -35 -56 -49 -115 -49c-18 0 -18 0 -98 5c-27 2 -53 3 -75 3c-50 0 -99 -3 -158 -10c38 45 72 155 96 313h-87
v75h101c22 120 26 135 42 180c29 81 76 115 157 115c59 0 106 -22 129 -61c14 -22 21 -52 24 -96h-88c-5 50 -23 71 -63 71c-34 0 -56 -19 -68 -57c-11 -35 -16 -60 -28 -138z" />
    <glyph glyph-name="dollar.fitted" horiz-adv-x="533" 
d="M292 589v-199c72 -24 95 -34 123 -51c59 -35 88 -87 88 -154c0 -110 -83 -188 -211 -196v-82h-51v82c-135 9 -213 90 -211 219h97c4 -77 40 -120 114 -132v225c-74 25 -96 34 -120 49c-50 31 -76 79 -76 141c0 106 75 178 196 187v71h51v-72c112 -10 188 -83 187 -182
h-97c-4 50 -38 85 -90 94zM241 407v183c-64 -12 -97 -42 -97 -90c0 -30 15 -55 42 -71c11 -6 22 -10 55 -22zM292 284v-209c68 6 109 44 109 100c0 33 -16 62 -43 80c-13 9 -27 15 -66 29z" />
    <glyph glyph-name="cent.fitted" horiz-adv-x="501" 
d="M286 509v-332c45 13 65 39 72 95h97c-4 -95 -75 -169 -169 -176v-96h-52v97c-116 19 -184 108 -184 242c0 140 69 233 186 252v83h51v-83c95 -9 154 -69 166 -167h-99c-6 50 -23 72 -68 85zM236 178v329c-56 -22 -86 -82 -86 -169c0 -85 31 -142 86 -160z" />
    <glyph glyph-name="florin.fitted" horiz-adv-x="443" 
d="M324 475h108v-74h-121l-50 -284c-21 -121 -28 -148 -46 -181c-24 -45 -71 -72 -122 -72c-40 0 -83 14 -129 40l15 81c39 -25 73 -37 104 -37c45 0 57 24 82 169l50 284h-95v74h108l11 57c13 77 24 108 44 134c27 34 68 53 112 53c32 0 64 -9 98 -28l-14 -78
c-42 18 -59 23 -78 23c-38 0 -53 -25 -70 -121z" />
    <glyph glyph-name="one.numerator" horiz-adv-x="254" 
d="M55 578v29c40 1 57 13 64 45h34v-269h-48v195h-50z" />
    <glyph glyph-name="two.numerator" horiz-adv-x="254" 
d="M85 570h-43c0 55 32 86 88 86c51 0 85 -28 85 -70c0 -25 -9 -42 -44 -83c-23 -27 -53 -61 -68 -77h115v-42h-179v36c126 144 126 144 126 165c0 18 -15 30 -37 30c-27 0 -41 -15 -43 -45z" />
    <glyph glyph-name="three.numerator" horiz-adv-x="254" 
d="M87 577h-43c2 51 34 79 89 79c50 0 83 -28 83 -70c0 -27 -12 -46 -38 -58c29 -10 45 -33 45 -65c0 -49 -39 -82 -96 -82c-58 0 -98 33 -95 79c0 1 0 3 1 6h44c0 -29 17 -44 49 -44c30 0 48 16 48 42c0 29 -20 41 -66 41c-2 0 -6 0 -11 -1v40h13c37 0 57 14 57 39
c0 19 -15 32 -38 32c-26 0 -38 -11 -42 -38z" />
    <glyph glyph-name="four.numerator" horiz-adv-x="254" 
d="M183 481h50v-39h-49v-61h-49v61h-115v36l111 174h52v-171zM137 481v111l-69 -111h69z" />
    <glyph glyph-name="five.numerator" horiz-adv-x="254" 
d="M63 650h141l-4 -42h-100l-9 -53c14 8 24 11 41 11c52 0 88 -36 88 -88c0 -55 -42 -98 -98 -98c-52 0 -86 30 -89 78h46c4 -25 18 -37 42 -37c29 0 49 23 49 55c0 31 -18 51 -44 51c-20 0 -33 -7 -46 -25l-41 5z" />
    <glyph glyph-name="six.numerator" horiz-adv-x="254" 
d="M137 655h55c-29 -31 -44 -48 -74 -89c9 1 13 1 19 1c50 0 85 -38 85 -91c0 -56 -39 -96 -93 -96c-57 0 -96 40 -96 97c0 52 27 98 104 178zM128 530c-28 0 -46 -22 -46 -55c0 -32 18 -55 45 -55c28 0 46 22 46 55s-18 55 -45 55z" />
    <glyph glyph-name="seven.numerator" horiz-adv-x="254" 
d="M41 650h188v-35l-136 -232h-54l131 223h-129v44z" />
    <glyph glyph-name="eight.numerator" horiz-adv-x="254" 
d="M68 524c-21 13 -30 30 -30 54c0 45 38 78 89 78c50 0 88 -33 88 -78c0 -24 -9 -41 -29 -54c25 -15 36 -34 36 -62c0 -47 -40 -82 -95 -82s-95 35 -95 82c0 28 11 48 36 62zM127 617c-24 0 -40 -15 -40 -38c0 -22 16 -37 39 -37c24 0 40 15 40 38c0 22 -16 37 -39 37z
M128 504c-28 0 -47 -17 -47 -43c0 -25 19 -43 46 -43s46 18 46 43s-19 43 -45 43z" />
    <glyph glyph-name="nine.numerator" horiz-adv-x="254" 
d="M117 378h-54c25 27 51 58 74 90c-8 -2 -12 -2 -19 -2c-50 0 -85 38 -85 91c0 58 39 98 93 98c57 0 96 -40 96 -98c0 -52 -29 -101 -105 -179zM128 615c-28 0 -46 -23 -46 -56c0 -34 18 -56 46 -56c27 0 45 23 45 56s-19 56 -45 56z" />
    <glyph glyph-name="zero.numerator" horiz-adv-x="254" 
d="M128 656c61 0 99 -53 99 -138c0 -86 -38 -138 -100 -138s-100 52 -100 137c0 88 37 139 101 139zM128 617c-34 0 -52 -36 -52 -100c0 -62 19 -98 51 -98s51 36 51 99c0 62 -19 99 -50 99z" />
    <glyph glyph-name="one.denominator" horiz-adv-x="254" 
d="M55 195v29c40 1 57 13 64 44h34v-268h-48v195h-50z" />
    <glyph glyph-name="two.denominator" horiz-adv-x="254" 
d="M85 187h-43c0 55 32 85 89 85c50 0 84 -28 84 -70c0 -25 -9 -41 -44 -83c-24 -28 -53 -61 -68 -77h115v-42h-179v36c126 144 126 144 126 166c0 17 -15 29 -37 29c-27 0 -41 -15 -43 -44z" />
    <glyph glyph-name="three.denominator" horiz-adv-x="254" 
d="M87 193h-43c2 50 34 78 89 78c50 0 83 -28 83 -69c0 -27 -13 -46 -38 -58c29 -10 45 -33 45 -65c0 -49 -39 -82 -96 -82c-58 0 -98 33 -95 79c0 1 0 3 1 6h44c0 -29 17 -44 49 -44c30 0 48 16 48 42c0 29 -20 41 -66 41c-2 0 -6 0 -11 -1v40h13c37 0 57 13 57 38
c0 20 -15 32 -38 32c-26 0 -38 -11 -42 -37z" />
    <glyph glyph-name="four.denominator" horiz-adv-x="254" 
d="M183 97h50v-39h-49v-61h-49v61h-115v36l111 174h52v-171zM137 97v111l-69 -111h69z" />
    <glyph glyph-name="five.denominator" horiz-adv-x="254" 
d="M63 267h141l-4 -42h-100l-9 -53c15 8 24 11 41 11c52 0 88 -36 88 -88c0 -56 -42 -99 -98 -99c-52 0 -86 30 -89 79h46c4 -26 18 -38 43 -38c28 0 48 23 48 56c0 31 -18 51 -44 51c-20 0 -32 -7 -46 -25l-41 5z" />
    <glyph glyph-name="six.denominator" horiz-adv-x="254" 
d="M137 272h55c-29 -30 -44 -48 -74 -89c9 1 13 1 19 1c50 0 85 -38 85 -91c0 -57 -39 -97 -93 -97c-57 0 -96 40 -96 97c0 52 29 102 104 179zM128 147c-28 0 -46 -22 -46 -56c0 -32 19 -55 45 -55c28 0 46 22 46 56c0 32 -19 55 -45 55z" />
    <glyph glyph-name="seven.denominator" horiz-adv-x="254" 
d="M41 267h188v-35l-136 -232h-54l131 223h-129v44z" />
    <glyph glyph-name="eight.denominator" horiz-adv-x="254" 
d="M68 140c-21 14 -30 30 -30 54c0 45 38 78 89 78c50 0 88 -33 88 -78c0 -24 -9 -41 -29 -54c25 -15 36 -34 36 -62c0 -47 -40 -82 -95 -82s-95 35 -95 82c0 28 11 47 36 62zM127 234c-24 0 -40 -15 -40 -38s16 -38 39 -38c24 0 40 16 40 38s-16 38 -39 38zM127 120
c-27 0 -46 -18 -46 -43s19 -43 46 -43s46 17 46 43c0 25 -19 43 -46 43z" />
    <glyph glyph-name="nine.denominator" horiz-adv-x="254" 
d="M117 -6h-54c33 37 50 57 74 91c-9 -2 -13 -2 -19 -2c-50 0 -85 38 -85 91c0 57 39 97 93 97c57 0 96 -40 96 -98c0 -51 -24 -94 -99 -173zM128 231c-27 0 -46 -22 -46 -56c0 -33 19 -55 46 -55s45 22 45 55s-19 56 -45 56z" />
    <glyph glyph-name="zero.denominator" horiz-adv-x="254" 
d="M128 272c61 0 99 -53 99 -138c0 -86 -38 -138 -100 -138s-100 52 -100 137c0 88 37 139 101 139zM128 233c-34 0 -52 -36 -52 -100c0 -62 19 -98 51 -98s51 36 51 99c0 62 -19 99 -50 99z" />
    <glyph glyph-name="anoteleia" unicode="&#x387;" horiz-adv-x="253" 
d="M127 318c37 0 67 -31 67 -68s-30 -67 -67 -67c-38 0 -68 30 -68 67c0 38 30 68 68 68z" />
    <glyph glyph-name="dotmath" unicode="&#x22c5;" horiz-adv-x="253" 
d="M127 318c37 0 67 -31 67 -68s-30 -67 -67 -67c-38 0 -68 30 -68 67c0 38 30 68 68 68z" />
    <glyph glyph-name="afii57929" unicode="&#x2bc;" horiz-adv-x="209" 
d="M93 444h-59c32 34 57 82 60 116c-40 2 -63 23 -63 57c0 35 28 62 64 62c41 0 68 -33 68 -83c0 -46 -23 -96 -70 -152z" />
    <glyph glyph-name="uni00AD" unicode="&#xad;" horiz-adv-x="267" 
d="M0 288h267v-73h-267v73z" />
    <glyph glyph-name="uni2011" unicode="&#x2011;" horiz-adv-x="267" 
d="M0 288h267v-73h-267v73z" />
    <glyph glyph-name="afii00208" unicode="&#x2015;" horiz-adv-x="606" 
d="M0 288h606v-73h-606v73z" />
    <glyph glyph-name="uni2101" unicode="&#x2101;" horiz-adv-x="919" 
d="M178 668h66l144 -401h-72l-31 92h-148l-31 -92h-72zM266 417l-55 166l-56 -166h111zM665 667h85l-389 -667h-84zM882 285h-68c-4 43 -27 63 -72 63c-39 0 -67 -20 -67 -49c0 -27 8 -33 94 -63c59 -21 80 -33 98 -53c17 -19 26 -43 26 -71c0 -75 -53 -119 -144 -119
c-63 0 -109 19 -134 56c-16 23 -21 43 -21 84h68c2 -57 28 -81 87 -81c44 0 73 21 73 54c0 34 -13 44 -94 73c-50 18 -74 29 -90 43c-21 18 -32 44 -32 74c0 67 55 111 137 111c86 0 137 -45 139 -122z" />
    <glyph glyph-name="uni2236" unicode="&#x2236;" horiz-adv-x="277" 
d="M139 234c32 0 58 -27 58 -59c0 -33 -27 -59 -59 -59c-33 0 -59 26 -59 59s26 59 60 59zM139 551c32 0 58 -27 58 -59s-27 -59 -59 -59c-33 0 -59 26 -59 59s26 59 60 59z" />
    <glyph glyph-name="uniEA31" unicode="&#xea31;" 
d="M342 595h-38c-6 28 -20 40 -46 40c-36 0 -59 -30 -59 -79c0 -47 23 -77 60 -77c29 0 45 17 47 51h39c-1 -55 -33 -87 -87 -87c-62 0 -103 45 -103 113c0 69 41 115 103 115c50 0 81 -27 84 -76zM252 752c106 0 193 -88 193 -195c0 -108 -87 -195 -195 -195
c-107 0 -195 87 -195 195c0 109 87 195 197 195zM252 711c-86 0 -154 -68 -154 -154c0 -85 68 -154 152 -154s152 69 152 154c0 84 -68 154 -150 154z" />
    <glyph glyph-name="uniEA32" unicode="&#xea32;" 
d="M186 667h50c34 0 55 -3 70 -9c23 -9 37 -31 37 -58c0 -28 -15 -49 -42 -60l47 -93h-50l-41 86h-28v-86h-43v220zM229 568h13c43 0 57 8 57 33c0 24 -14 31 -63 31h-7v-64zM262 752c106 0 193 -88 193 -195c0 -108 -87 -195 -195 -195c-107 0 -195 87 -195 195
c0 109 87 195 197 195zM262 711c-86 0 -154 -68 -154 -154c0 -85 68 -154 152 -154s152 69 152 154c0 84 -68 154 -150 154z" />
    <glyph glyph-name="oneone" horiz-adv-x="852" 
d="M78 547v40c55 1 83 20 92 65h48v-392h-68v287h-72zM575 650h81l-378 -650h-81zM569 287v40c56 1 82 20 92 65h48v-392h-68v287h-72z" />
    <glyph glyph-name="onefifth" horiz-adv-x="852" 
d="M78 547v40c55 1 83 20 92 65h48v-392h-68v287h-72zM575 650h81l-378 -650h-81zM584 390h201l-6 -58h-144l-16 -84c23 13 41 18 66 18c72 0 124 -54 124 -129c0 -81 -61 -143 -140 -143c-75 0 -124 43 -129 113h64c6 -37 27 -56 63 -56c42 0 71 34 71 83
c0 46 -26 77 -65 77c-28 0 -47 -10 -66 -36l-58 8z" />
    <glyph glyph-name="twofifth" horiz-adv-x="852" 
d="M119 535h-59c0 78 46 123 127 123c73 0 121 -40 121 -102c0 -46 -19 -73 -164 -236h168v-60h-257v52c3 3 7 7 10 11c13 16 27 31 40 46c113 127 134 157 134 186c0 26 -23 45 -55 45c-40 0 -62 -22 -65 -65zM575 650h81l-378 -650h-81zM584 390h201l-5 -58h-144l-17 -84
c23 13 41 18 66 18c72 0 124 -54 124 -129c0 -81 -61 -143 -140 -143c-75 0 -124 43 -129 113h64c6 -37 27 -56 63 -56c42 0 71 34 71 83c0 46 -26 77 -65 77c-28 0 -47 -10 -66 -36l-58 8z" />
    <glyph glyph-name="threefifth" horiz-adv-x="852" 
d="M116 549h-59c2 71 49 112 127 112c72 0 120 -40 120 -101c0 -39 -20 -69 -59 -85c45 -15 68 -48 68 -94c0 -72 -55 -121 -137 -121c-88 0 -137 44 -136 123h61c0 -43 26 -66 73 -66c45 0 71 24 71 63c0 44 -29 63 -96 63c-3 0 -9 0 -16 -1v56c8 -1 14 -1 18 -1
c55 0 85 21 85 58c0 30 -23 49 -57 49c-38 0 -58 -18 -63 -55zM575 650h81l-378 -650h-81zM584 390h201l-6 -58h-144l-16 -84c23 13 41 18 66 18c72 0 124 -54 124 -129c0 -81 -61 -143 -140 -143c-75 0 -124 43 -129 113h64c6 -37 27 -56 63 -56c42 0 71 34 71 83
c0 46 -26 77 -65 77c-28 0 -47 -10 -66 -36l-59 8z" />
    <glyph glyph-name="fourfifth" horiz-adv-x="852" 
d="M260 404h72v-54h-71v-90h-68v90h-167v50l161 257h73v-253zM196 404v171l-103 -171h103zM575 650h80l-378 -650h-80zM584 390h200l-5 -58h-144l-16 -84c22 13 40 18 66 18c71 0 123 -54 123 -129c0 -81 -61 -143 -140 -143c-75 0 -123 43 -128 113h64c5 -37 26 -56 62 -56
c42 0 71 34 71 83c0 46 -26 77 -65 77c-28 0 -47 -10 -66 -36l-58 8z" />
    <glyph glyph-name="onesixth" horiz-adv-x="852" 
d="M78 547v40c55 1 83 20 92 65h48v-392h-68v287h-72zM575 650h81l-378 -650h-81zM687 397h75c-39 -42 -76 -88 -106 -133c13 3 19 4 29 4c72 0 123 -55 123 -133c0 -83 -55 -141 -134 -141c-80 0 -137 58 -137 142c0 76 41 148 150 261zM672 216c-40 0 -67 -34 -67 -83
s27 -83 66 -83c41 0 68 33 68 83c0 49 -27 83 -67 83z" />
    <glyph glyph-name="fivesixth" horiz-adv-x="852" 
d="M90 650h201l-6 -58h-144l-16 -84c23 13 40 18 66 18c73 0 124 -53 124 -129c0 -81 -61 -143 -141 -143c-75 0 -124 43 -128 113h64c5 -37 27 -56 63 -56c42 0 71 34 71 84c0 46 -26 77 -65 77c-28 0 -47 -11 -66 -37l-59 8zM574 650h81l-378 -650h-80zM686 397h76
c-39 -42 -76 -88 -107 -133c14 3 19 4 30 4c72 0 122 -55 122 -133c0 -83 -55 -141 -134 -141c-80 0 -137 58 -137 142c0 76 40 146 150 261zM671 216c-40 0 -67 -34 -67 -83s27 -83 66 -83c41 0 68 33 68 83c0 49 -27 83 -67 83z" />
    <glyph glyph-name="uniEA72" unicode="&#xea72;" horiz-adv-x="254" 
d="M55 578v29c40 1 57 13 64 45h34v-269h-48v195h-50zM-11 348h222v-44h-222v44zM60 187h-43c0 54 32 85 88 85c51 0 85 -28 85 -70c0 -31 -20 -59 -112 -160h115v-42h-179v36l45 51c73 84 81 95 81 114c0 18 -15 30 -37 30c-27 0 -41 -14 -43 -44z" />
    <glyph glyph-name="uniEA73" unicode="&#xea73;" horiz-adv-x="254" 
d="M55 578v29c40 1 57 13 64 45h34v-269h-48v195h-50zM8 348h222v-44h-222v44zM176 97h50v-39h-49v-61h-49v61h-115v36l111 174h52v-171zM130 97v111l-69 -111h69z" />
    <glyph glyph-name="uniEA74" unicode="&#xea74;" horiz-adv-x="254" 
d="M86 577h-43c2 51 34 79 89 79c50 0 83 -28 83 -70c0 -27 -12 -46 -38 -58c29 -10 45 -33 45 -65c0 -49 -39 -82 -96 -82c-58 0 -98 33 -95 79c0 1 0 3 1 6h44c0 -29 17 -44 49 -44c30 0 48 16 48 42c0 29 -20 41 -66 41c-2 0 -6 0 -11 -1v40h13c37 0 57 14 57 39
c0 19 -15 32 -38 32c-26 0 -38 -11 -42 -38zM16 348h222v-44h-222v44zM184 97h50v-39h-49v-61h-49v61h-115v36l111 174h52v-171zM138 97v111l-69 -111h69z" />
    <glyph glyph-name="Dieresis" unicode="&#xf6cb;" 
d="M159 866c36 0 65 -30 65 -65c0 -37 -29 -66 -65 -66c-37 0 -66 29 -66 65c0 37 29 66 66 66zM341 866c36 0 65 -30 65 -65c0 -37 -29 -66 -65 -66c-37 0 -66 29 -66 65c0 37 29 66 66 66z" />
    <glyph glyph-name="Dotaccent" 
d="M251 872c39 0 71 -32 71 -71c0 -40 -32 -72 -71 -72c-40 0 -72 32 -72 71c0 40 32 72 72 72z" />
    <glyph glyph-name="Ring" 
d="M251 905c52 0 95 -43 95 -96s-43 -96 -96 -96s-96 43 -96 96s43 96 97 96zM251 858c-28 0 -50 -22 -50 -49s22 -49 49 -49s49 22 49 49s-22 49 -48 49z" />
    <glyph glyph-name="Acute" unicode="&#xf6c9;" 
d="M192 725l153 151h128l-186 -151h-95z" />
    <glyph glyph-name="Grave" unicode="&#xf6ce;" 
d="M319 725h-95l-186 151h128z" />
    <glyph glyph-name="Circumflex" 
d="M71 732l134 137h90l134 -137h-94l-85 83l-84 -83h-95z" />
    <glyph glyph-name="Caron" unicode="&#xf6ca;" 
d="M429 869l-134 -137h-90l-134 137h94l85 -83l84 83h95z" />
    <glyph glyph-name="Breve" 
d="M108 870h44c21 -48 55 -73 98 -73c44 0 76 24 98 73h44c-10 -84 -66 -138 -141 -138c-77 0 -133 55 -143 138z" />
    <glyph glyph-name="Tilde" 
d="M131 737l-51 15c19 70 49 102 96 102c19 0 38 -5 74 -20c42 -18 55 -22 68 -22c22 0 37 15 51 49l47 -15c-13 -65 -50 -106 -96 -106c-18 0 -33 4 -79 23c-33 14 -51 20 -64 20c-21 0 -38 -16 -46 -46z" />
    <glyph glyph-name="Hungarumlaut" unicode="&#xf6cf;" 
d="M115 725l123 151h115l-160 -151h-78zM269 725l124 151h114l-160 -151h-78z" />
    <glyph glyph-name="Cedilla" 
d="M207 0h66l-22 -58c66 -11 101 -45 101 -98c0 -60 -48 -105 -114 -105c-29 0 -50 6 -90 26v50c33 -15 48 -19 66 -19c35 0 59 23 59 56c0 36 -26 58 -70 58c-7 0 -14 0 -28 -2z" />
    <glyph glyph-name="Ogonek" 
d="M361 0h89c-82 -47 -103 -68 -103 -101c0 -28 21 -46 55 -46c14 0 25 2 45 9v-50c-27 -12 -45 -16 -69 -16c-63 0 -109 41 -109 96c0 46 30 81 92 108z" />
    <glyph glyph-name="Macron" unicode="&#xf6d0;" 
d="M98 833h303v-64h-303v64z" />
    <glyph glyph-name="commaaccent.cap" 
d="M244 -271h-51c29 30 52 76 54 106c-37 2 -59 22 -59 54s27 58 61 58c38 0 64 -31 64 -78c0 -43 -21 -87 -69 -140z" />
    <glyph glyph-name="uniEA67" unicode="&#xea67;" 
d="M344 462h-51c31 34 52 77 54 106c-37 2 -59 22 -59 54s27 58 61 58c38 0 64 -31 64 -77c0 -44 -17 -79 -69 -141z" />
    <glyph glyph-name="uniEA68" unicode="&#xea68;" 
d="M171 863c34 0 62 -28 62 -63s-28 -63 -63 -63s-63 28 -63 63s28 63 64 63zM331 863c34 0 62 -28 62 -63s-28 -63 -63 -63s-63 28 -63 63s28 63 64 63z" />
    <glyph glyph-name="uni02C9" unicode="&#x2c9;" 
d="M109 648h281v-64h-281v64z" />
    <glyph glyph-name="commaaccent" unicode="&#xf6c3;" 
d="M244 -274h-51c29 31 52 77 54 107c-38 2 -60 22 -60 54c0 33 27 59 61 59c39 0 65 -32 65 -78c0 -44 -21 -87 -69 -142z" />
    <glyph glyph-name="uniEA3F" unicode="&#xea3f;" 
d="M344 460h-51c29 31 52 77 54 107c-38 2 -60 22 -60 54c0 33 27 59 61 59c39 0 65 -32 65 -78c0 -44 -21 -87 -69 -142z" />
    <glyph glyph-name="uniEA6A" unicode="&#xea6a;" 
d="M176 678c32 0 58 -27 58 -59c0 -33 -26 -59 -59 -59s-59 26 -59 59s26 59 60 59zM327 678c32 0 58 -27 58 -59c0 -33 -26 -59 -59 -59c-32 0 -59 26 -59 59s26 59 60 59z" />
    <glyph glyph-name="uniEA4F" unicode="&#xea4f;" 
d="M256 760h51c-29 -31 -52 -77 -53 -107c37 -2 59 -22 59 -54c0 -33 -27 -59 -61 -59c-39 0 -65 32 -65 78c0 44 21 88 69 142z" />
    <glyph glyph-name="ebreve" unicode="&#x115;" horiz-adv-x="501" 
d="M462 216h-324c4 -96 48 -148 126 -148c48 0 79 19 100 62l88 -6c-26 -88 -94 -137 -191 -137c-134 0 -222 97 -222 245c0 154 87 256 219 256c125 0 205 -97 205 -251c0 -3 0 -12 -1 -21zM141 289h221c-9 80 -45 120 -107 120c-61 0 -98 -39 -114 -120zM131 682h47
c18 -49 46 -73 84 -73s62 22 82 73h46c-9 -87 -57 -140 -126 -140c-72 0 -124 55 -133 140z" />
    <glyph glyph-name="iogonek" unicode="&#x12f;" horiz-adv-x="242" 
d="M171 475v-475c-39 -41 -56 -70 -56 -96c0 -25 16 -43 40 -43c12 0 24 3 38 8v-47c-20 -10 -36 -14 -55 -14c-54 0 -95 39 -95 91c0 39 17 63 73 101h-45v475h100zM123 678c35 0 60 -26 60 -63c0 -36 -25 -61 -62 -61s-62 25 -62 60c0 38 26 64 64 64z" />
    <glyph glyph-name="ldot" unicode="&#x140;" horiz-adv-x="380" 
d="M71 671h100v-671h-100v671zM313 418c37 0 67 -31 67 -68s-30 -67 -67 -67c-38 0 -68 30 -68 67c0 38 30 68 68 68z" />
    <glyph glyph-name="utilde" unicode="&#x169;" horiz-adv-x="528" 
d="M155 555l-46 13c17 71 45 104 87 104c18 0 36 -5 67 -20c37 -18 48 -22 61 -22c19 0 34 16 46 49l44 -12c-12 -67 -45 -109 -86 -109c-17 0 -39 7 -71 22c-39 18 -48 21 -60 21c-19 0 -34 -16 -42 -46zM68 475h98v-280c0 -44 6 -72 18 -88c15 -20 41 -31 71 -31
c39 0 70 18 88 51c11 20 16 46 16 87v261h98v-329c0 -107 0 -107 12 -146h-94c-5 14 -9 36 -10 59c-32 -49 -70 -70 -130 -70c-64 0 -118 28 -145 76c-15 27 -22 66 -22 127v283z" />
    <glyph glyph-name="uni01D4" unicode="&#x1d4;" horiz-adv-x="528" 
d="M68 475h98v-280c0 -44 6 -72 18 -88c15 -20 41 -31 71 -31c39 0 70 18 88 51c11 20 16 46 16 87v261h98v-329c0 -107 0 -107 12 -146h-94c-5 14 -9 36 -10 59c-32 -49 -70 -70 -130 -70c-64 0 -118 28 -145 76c-15 27 -22 66 -22 127v283zM424 691l-117 -146h-90
l-117 146h90l72 -90l71 90h91z" />
    <glyph glyph-name="Ldot" unicode="&#x13f;" horiz-adv-x="496" 
d="M83 667h106v-578h287v-89h-393v667zM383 409c42 0 76 -35 76 -77s-35 -76 -77 -76s-76 34 -76 76c0 43 34 77 77 77z" />
    <glyph glyph-name="Scommaaccent" unicode="&#x218;" horiz-adv-x="557" 
d="M493 482h-99c-6 68 -50 107 -119 107c-62 0 -109 -37 -109 -86c0 -24 13 -45 37 -59c20 -13 32 -18 114 -53c99 -41 129 -59 155 -88c26 -31 40 -71 40 -117c0 -120 -90 -198 -229 -198c-151 0 -235 79 -242 228h100c8 -91 57 -138 144 -138c71 0 121 38 121 91
c0 30 -14 53 -43 73c-21 14 -33 20 -110 53c-73 31 -115 55 -139 78c-34 33 -51 74 -51 121c0 108 89 185 215 185c80 0 146 -31 183 -87c21 -30 29 -60 32 -110zM271 -271h-51c28 30 52 76 53 106c-37 2 -59 22 -59 54s27 58 61 58c38 0 64 -31 64 -78
c0 -43 -21 -86 -68 -140z" />
    <glyph glyph-name="Eng" unicode="&#x14a;" horiz-adv-x="653" 
d="M69 671h99c9 -23 13 -48 13 -85c44 61 108 93 187 93c78 0 145 -34 178 -91c22 -38 28 -77 28 -176v-350c0 -111 -3 -133 -21 -168c-27 -53 -89 -80 -184 -80l-31 1v87c70 0 100 8 118 32c13 18 15 33 15 127v327c0 71 -7 115 -21 142c-21 39 -60 60 -112 60
c-58 0 -104 -28 -128 -78c-15 -30 -20 -67 -20 -139v-373h-103v455c0 148 -1 158 -18 216z" />
    <glyph glyph-name="Tbar" unicode="&#x166;" horiz-adv-x="485" 
d="M293 438h132v-83h-132v-355h-103v355h-130v83h130v140h-174v89h453v-89h-176v-140z" />
    <glyph glyph-name="eng" unicode="&#x14b;" horiz-adv-x="527" 
d="M57 475h95c7 -18 9 -35 10 -65c34 51 81 76 142 76c62 0 113 -28 136 -73c16 -31 19 -52 19 -140v-217c0 -103 -6 -135 -32 -172c-33 -48 -86 -69 -173 -69h-23v85h16c54 0 88 14 102 42c10 19 12 37 12 113v202c0 54 -3 81 -13 101c-13 26 -39 41 -73 41
c-39 0 -74 -20 -91 -54c-11 -21 -16 -49 -16 -92v-253h-98v309c0 116 0 120 -13 166z" />
    <glyph glyph-name="tbar" unicode="&#x167;" horiz-adv-x="337" 
d="M197 475h104v-78h-105l-2 -67h101v-67h-102l-1 -76c-1 -32 -1 -32 -1 -39c0 -56 11 -72 51 -72c22 0 45 6 71 16l-2 -83c-35 -13 -63 -19 -96 -19c-52 0 -90 19 -110 54c-12 20 -15 39 -15 84c0 13 0 13 2 59l2 76h-69v67h71l2 67h-72v78h75l3 136h95z" />
    <glyph glyph-name="kgreenlandic" unicode="&#x138;" horiz-adv-x="511" 
d="M357 475h119l-188 -217l203 -258h-133l-187 256zM71 475h98v-475h-98v475z" />
    <glyph glyph-name="napostrophe" unicode="&#x149;" horiz-adv-x="639" 
d="M93 444h-59c32 34 57 82 60 116c-40 2 -63 23 -63 57c0 35 28 62 64 62c41 0 68 -33 68 -83c0 -46 -23 -96 -70 -152zM169 475h95c7 -19 9 -35 10 -65c33 51 81 76 143 76c61 0 112 -28 135 -73c16 -31 19 -52 19 -140v-273h-98v257c0 58 -3 81 -13 101
c-13 27 -39 41 -73 41c-39 0 -73 -20 -91 -54c-11 -21 -16 -49 -16 -92v-253h-98v309c0 116 0 120 -13 166z" />
    <glyph glyph-name="uni2003" unicode="&#x2003;" horiz-adv-x="1000" 
 />
    <glyph glyph-name="uni2002" unicode="&#x2002;" 
 />
    <glyph glyph-name="uni200A" unicode="&#x200a;" horiz-adv-x="125" 
 />
    <glyph glyph-name="uni2007" unicode="&#x2007;" horiz-adv-x="553" 
 />
    <glyph glyph-name="uni00A0" unicode="&#xa0;" horiz-adv-x="250" 
 />
    <glyph glyph-name="smileface" unicode="&#x263a;" horiz-adv-x="667" 
d="M241 466c23 0 43 -20 43 -44s-20 -44 -44 -44s-44 20 -44 44c0 25 20 44 45 44zM434 466c23 0 43 -20 43 -44s-20 -44 -44 -44s-44 20 -44 44c0 25 20 44 45 44zM540 372c-6 -83 -19 -124 -54 -165c-36 -44 -88 -66 -152 -66c-74 0 -131 30 -167 87
c-24 38 -33 71 -39 144c10 -44 19 -62 42 -89c41 -47 94 -70 164 -70s123 23 165 70c22 27 31 45 41 89zM339 650c169 0 311 -144 311 -316c0 -175 -142 -317 -316 -317c-176 0 -317 142 -317 319c0 174 143 314 322 314zM338 608c-87 0 -160 -33 -215 -98
c-41 -49 -64 -112 -64 -174c0 -154 122 -277 275 -277c152 0 275 123 275 275c0 149 -123 274 -271 274z" />
    <glyph glyph-name="invsmileface" unicode="&#x263b;" horiz-adv-x="667" 
d="M339 650c169 0 311 -144 311 -316c0 -175 -142 -317 -316 -317c-176 0 -317 142 -317 319c0 174 143 314 322 314zM240 466c-24 0 -44 -19 -44 -44c0 -24 19 -44 44 -44c24 0 43 20 43 44s-20 44 -43 44zM434 466c-25 0 -45 -20 -45 -44c0 -25 20 -45 44 -45s44 20 44 45
c0 24 -20 44 -43 44zM540 372c-10 -43 -19 -62 -41 -88c-42 -48 -95 -71 -165 -71s-123 23 -164 71c-23 26 -32 45 -42 88c6 -83 20 -124 54 -165c37 -44 88 -66 152 -66c74 0 132 30 168 87c24 38 33 72 38 144z" />
    <glyph glyph-name="heart" unicode="&#x2665;" horiz-adv-x="667" 
d="M332 -11c-22 89 -56 147 -186 321c-72 98 -90 137 -90 195c0 75 57 134 129 134c70 0 119 -43 147 -130c24 86 75 131 147 131c73 0 132 -59 132 -131c0 -67 -28 -125 -110 -229c-100 -125 -151 -213 -169 -291z" />
    <glyph glyph-name="diamond" unicode="&#x2666;" horiz-adv-x="667" 
d="M333 693c30 -63 183 -279 254 -359c-95 -113 -198 -259 -254 -360c-42 80 -143 224 -253 360c134 168 200 262 253 359z" />
    <glyph glyph-name="club" unicode="&#x2663;" horiz-adv-x="667" 
d="M561 0h-455v18c150 21 220 103 221 256c-17 -29 -24 -40 -34 -52c-36 -46 -93 -75 -146 -75c-79 0 -144 68 -144 152c0 82 58 147 132 147c26 0 34 -3 86 -29c-26 38 -36 66 -36 100c0 79 66 143 148 143s148 -64 148 -143c0 -34 -10 -62 -35 -100c54 27 60 29 86 29
c74 0 132 -65 132 -147c0 -85 -65 -152 -146 -152c-49 0 -106 28 -140 69c-10 13 -18 24 -38 58c0 -153 70 -234 221 -256v-18z" />
    <glyph glyph-name="spade" unicode="&#x2660;" horiz-adv-x="667" 
d="M108 0v18c143 20 215 97 221 237c-7 -15 -10 -21 -13 -28c-26 -44 -79 -74 -132 -74c-65 0 -120 57 -120 125c0 57 32 108 104 169c96 78 149 155 164 239c35 -106 52 -131 151 -222c98 -89 121 -125 121 -187c0 -69 -54 -123 -122 -123c-58 0 -102 32 -140 101
c8 -144 74 -212 226 -237v-18h-460z" />
    <glyph glyph-name="male" unicode="&#x2642;" horiz-adv-x="667" 
d="M570 499l-152 -151c24 -33 36 -69 36 -110c0 -100 -81 -182 -180 -182s-180 82 -180 183c0 100 81 182 180 182c42 0 78 -13 112 -39l151 151c-27 6 -79 26 -107 40c-15 8 -20 14 -20 23c0 7 6 12 13 12c5 0 9 -1 20 -3c32 -7 53 -9 83 -9c45 0 64 2 105 14l10 1
c6 0 10 -4 10 -10c0 -4 0 -4 -5 -23c-7 -28 -10 -51 -10 -87c0 -33 2 -52 9 -84c2 -11 3 -15 3 -20c0 -7 -5 -13 -12 -13c-9 0 -11 2 -24 22c-17 25 -35 70 -42 103zM276 374c-76 0 -135 -59 -135 -135c0 -74 60 -135 133 -135c74 0 133 60 133 135c0 74 -59 135 -131 135z
" />
    <glyph glyph-name="female" unicode="&#x2640;" horiz-adv-x="667" 
d="M308 209v105c-91 14 -155 90 -155 182c0 101 80 183 179 183c100 0 181 -82 181 -183c0 -93 -65 -168 -157 -182v-105h163v-43h-163v-166h-48v166h-161v43h161zM335 632c-76 0 -135 -60 -135 -136c0 -74 60 -135 133 -135c74 0 133 61 133 135s-59 136 -131 136z" />
    <glyph glyph-name="musicalnote" unicode="&#x266a;" horiz-adv-x="667" 
d="M306 156v511h46v-61l15 -18l52 -63c61 -73 91 -146 91 -225c0 -61 -20 -117 -57 -162h-28c24 56 33 97 33 149c0 86 -48 165 -106 173v-304c0 -97 -63 -165 -152 -165c-43 0 -69 23 -69 61c0 60 57 115 121 115c17 0 38 -4 54 -11z" />
    <glyph glyph-name="uni266C" unicode="&#x266c;" horiz-adv-x="667" 
d="M195 587l421 107v-502c0 -96 -63 -164 -152 -164c-43 0 -68 22 -68 60c0 61 57 115 120 115c18 0 38 -4 54 -11v270l-329 -90v-236c0 -95 -63 -163 -152 -163c-43 0 -69 22 -69 60c0 59 57 113 121 113c18 0 37 -4 54 -10v451zM241 448l329 90v70l-329 -90v-70z" />
    <glyph glyph-name="sun" unicode="&#x263c;" horiz-adv-x="667" 
d="M159 473l-75 74l35 35l75 -75c33 27 73 43 114 48v105h50v-105c42 -5 83 -22 113 -47l75 74l35 -35l-74 -74c26 -33 41 -71 47 -114h105v-51h-105c-6 -43 -21 -80 -47 -114l74 -74l-35 -35l-75 74c-33 -26 -70 -42 -113 -47v-105h-50v105c-40 4 -77 19 -114 47l-75 -74
l-35 35l74 74c-25 32 -42 73 -46 114h-105v51h105c5 45 19 78 47 114zM336 493c-92 0 -163 -70 -163 -158c0 -89 71 -161 160 -161c88 0 159 72 159 160c0 87 -71 159 -156 159z" />
    <glyph glyph-name="uni2218" unicode="&#x2218;" 
d="M253 480c74 0 135 -63 135 -139c0 -78 -61 -140 -137 -140s-138 63 -138 139c0 78 62 140 140 140zM252 432c-51 0 -92 -40 -92 -92c0 -50 41 -91 91 -91s90 41 90 91s-41 92 -89 92z" />
    <glyph glyph-name="openbullet" unicode="&#x25e6;" 
d="M253 480c74 0 135 -63 135 -139c0 -78 -61 -140 -137 -140s-138 63 -138 139c0 78 62 140 140 140zM252 432c-51 0 -92 -40 -92 -92c0 -50 41 -91 91 -91s90 41 90 91s-41 92 -89 92z" />
    <glyph glyph-name="invbullet" unicode="&#x25d8;" horiz-adv-x="667" 
d="M0 0v667h667v-667h-667zM336 473c-78 0 -140 -62 -140 -140c0 -76 62 -139 138 -139s137 62 137 140c0 76 -62 139 -135 139z" />
    <glyph glyph-name="circle" unicode="&#x25cb;" horiz-adv-x="667" 
d="M334 589c143 0 260 -114 260 -255c0 -142 -117 -257 -260 -257c-146 0 -261 114 -261 260c0 138 118 252 261 252zM334 543c-117 0 -214 -94 -214 -207c0 -119 94 -213 214 -213c117 0 213 95 213 211c0 115 -96 209 -213 209z" />
    <glyph glyph-name="invcircle" unicode="&#x25d9;" horiz-adv-x="667" 
d="M334 543c117 0 213 -94 213 -209c0 -116 -96 -211 -213 -211c-120 0 -214 94 -214 213c0 113 97 207 214 207zM667 0h-667v667h667v-667zM334 590c-143 0 -261 -114 -261 -252c0 -146 115 -261 261 -261c143 0 260 116 260 257s-117 256 -260 256z" />
    <glyph glyph-name="filledrect" unicode="&#x25ac;" horiz-adv-x="667" 
d="M667 333v-333h-667v333h667z" />
    <glyph glyph-name="uni25AE" unicode="&#x25ae;" horiz-adv-x="667" 
d="M500 0h-333v667h333v-667z" />
    <glyph glyph-name="filledbox" unicode="&#x25a0;" horiz-adv-x="667" 
d="M667 0h-667v667h667v-667z" />
    <glyph glyph-name="uni25A1" unicode="&#x25a1;" horiz-adv-x="667" 
d="M667 0h-667v667h667v-667zM620 47v573h-573v-573h573z" />
    <glyph glyph-name="uni25AF" unicode="&#x25af;" horiz-adv-x="667" 
d="M334 589c143 0 260 -114 260 -255c0 -142 -117 -257 -260 -257c-146 0 -261 114 -261 260c0 138 118 252 261 252z" />
    <glyph glyph-name="triagup" unicode="&#x25b2;" horiz-adv-x="667" 
d="M633 67h-600l300 561z" />
    <glyph glyph-name="uni25B8" unicode="&#x25b8;" 
d="M71 119v433l405 -217z" />
    <glyph glyph-name="uni25C2" unicode="&#x25c2;" 
d="M428 552v-433l-405 216z" />
    <glyph glyph-name="uni25B4" unicode="&#x25b4;" 
d="M466 147h-433l217 405z" />
    <glyph glyph-name="uni25BE" unicode="&#x25be;" 
d="M33 520h433l-216 -405z" />
    <glyph glyph-name="arrowright" unicode="&#x2192;" horiz-adv-x="667" 
d="M13 310v51h500c-20 26 -52 90 -52 105c0 8 6 14 15 14c7 0 10 -2 22 -17c34 -40 70 -69 132 -104c18 -10 23 -15 23 -21c0 -8 -2 -11 -16 -19c-83 -50 -102 -65 -145 -116c-7 -7 -10 -9 -16 -9c-9 0 -15 6 -15 15c0 16 24 62 52 101h-500z" />
    <glyph glyph-name="arrowleft" unicode="&#x2190;" horiz-adv-x="667" 
d="M653 363v-51h-500c20 -25 52 -89 52 -104c0 -8 -6 -14 -15 -14c-7 0 -10 2 -22 17c-34 40 -68 67 -132 103c-18 10 -23 15 -23 21c0 8 2 11 16 19c83 49 102 65 145 116c6 7 10 9 16 9c9 0 15 -6 15 -15c0 -16 -24 -62 -52 -101h500z" />
    <glyph glyph-name="arrowboth" unicode="&#x2194;" horiz-adv-x="667" 
d="M513 310h-361c29 -39 53 -85 53 -101c0 -9 -6 -15 -15 -15c-8 0 -8 1 -24 19c-37 42 -64 63 -143 110c-7 4 -10 9 -10 15s5 11 23 20c63 37 98 64 132 104c12 15 15 17 22 17c9 0 15 -6 15 -14c0 -15 -31 -77 -53 -104h361c-20 25 -52 89 -52 104c0 8 6 14 15 14
c7 0 10 -2 22 -17c34 -40 68 -67 132 -104c18 -9 23 -14 23 -20c0 -8 -2 -11 -16 -19c-83 -50 -102 -65 -145 -116c-6 -7 -10 -9 -16 -9c-9 0 -15 6 -15 15c0 16 24 62 52 101z" />
    <glyph glyph-name="arrowup" unicode="&#x2191;" horiz-adv-x="667" 
d="M360 13h-51v501c-26 -21 -89 -53 -104 -53c-8 0 -14 6 -14 15c0 7 2 10 17 23c39 33 68 70 103 132c10 18 15 23 21 23c8 0 11 -2 19 -17c50 -83 65 -102 116 -145c7 -6 9 -10 9 -16c0 -9 -6 -15 -15 -15c-16 0 -62 24 -101 53v-501z" />
    <glyph glyph-name="arrowdown" unicode="&#x2193;" horiz-adv-x="667" 
d="M307 653h51v-500c26 21 89 52 104 52c8 0 14 -6 14 -15c0 -7 -2 -10 -17 -22c-40 -34 -68 -70 -103 -132c-10 -18 -15 -23 -21 -23c-8 0 -11 2 -19 16c-50 84 -65 102 -116 145c-7 6 -9 10 -9 16c0 9 6 15 15 15c16 0 60 -23 101 -52v500z" />
    <glyph glyph-name="arrowupdn" unicode="&#x2195;" horiz-adv-x="667" 
d="M360 514v-362c41 31 85 54 101 54c9 0 15 -6 15 -15c0 -8 -1 -8 -19 -24c-43 -38 -62 -62 -110 -144c-4 -7 -9 -10 -15 -10s-11 5 -20 23c-35 61 -64 99 -104 132c-15 13 -17 16 -17 23c0 9 6 15 14 15c15 0 76 -31 104 -54v362c-26 -21 -89 -53 -104 -53
c-8 0 -14 6 -14 15c0 7 2 10 17 23c40 33 69 70 104 132c9 18 14 23 20 23c8 0 11 -2 19 -17c49 -82 65 -102 116 -145c7 -6 9 -10 9 -16c0 -9 -6 -15 -15 -15c-16 0 -62 24 -101 53z" />
    <glyph glyph-name="arrowupdnbse" unicode="&#x21a8;" horiz-adv-x="667" 
d="M360 514v-362c41 31 85 54 101 54c9 0 15 -6 15 -15c0 -8 -1 -8 -19 -24c-43 -38 -62 -62 -110 -144c-4 -7 -9 -10 -15 -10s-11 6 -21 23c-34 62 -63 99 -103 132c-15 13 -17 16 -17 23c0 9 6 15 14 15c15 0 76 -31 104 -54v362c-26 -21 -89 -53 -104 -53
c-8 0 -14 6 -14 15c0 7 2 10 17 23c40 33 69 70 104 132c9 18 14 23 20 23c8 0 11 -2 19 -17c49 -82 65 -102 116 -145c7 -6 9 -10 9 -16c0 -9 -6 -15 -15 -15c-16 0 -62 24 -101 53zM201 -68h264v-43h-264v43z" />
    <glyph glyph-name="lozenge" unicode="&#x25ca;" horiz-adv-x="667" 
d="M334 693l259 -359l-259 -360l-260 360zM334 604l-197 -270l197 -271l197 271z" />
    <glyph glyph-name="triagdn" unicode="&#x25bc;" horiz-adv-x="667" 
d="M33 600h600l-300 -561z" />
    <glyph glyph-name="Delta" unicode="&#x2206;" horiz-adv-x="667" 
d="M22 0l256 667h106l260 -667h-622zM163 92h338l-169 455z" />
    <glyph glyph-name="uniEA4E" unicode="&#xea4e;" 
d="M0 792h500v-88h-500v88z" />
    <glyph glyph-name="notequal" unicode="&#x2260;" 
d="M267 467l55 110l64 -30l-39 -80h120v-88h-160l-40 -81h200v-88h-240l-52 -106l-65 30l37 76h-114v88h154l40 81h-194v88h234z" />
    <glyph glyph-name="equivalence" unicode="&#x2261;" 
d="M33 535h433v-89h-433v89zM33 382h433v-88h-433v88zM33 230h433v-88h-433v88z" />
    <glyph glyph-name="radical" unicode="&#x221a;" horiz-adv-x="667" 
d="M667 830v-92h-188l-193 -738h-127l-71 286h-88v92h169l28 -111c5 -18 12 -61 22 -142h8c25 154 31 180 67 320l100 385h273z" />
    <glyph glyph-name="integral" unicode="&#x222b;" 
d="M74 -239l20 88c22 -9 33 -11 49 -11c35 0 52 16 56 53c2 11 2 29 2 74v552c1 114 1 114 9 145c16 56 67 89 137 89c24 0 42 -3 79 -11l-20 -88c-22 8 -34 10 -50 10c-34 0 -51 -17 -55 -52c-1 -11 -1 -12 -2 -122v-505c0 -123 -4 -146 -27 -179c-25 -35 -67 -53 -125 -53
c-29 0 -49 3 -73 10z" />
    <glyph glyph-name="integraltp" unicode="&#x2320;" 
d="M299 -250h-98v774c0 83 2 111 9 138c16 55 67 89 136 89c24 0 42 -3 79 -11l-19 -88c-22 8 -34 10 -50 10c-34 0 -52 -16 -55 -52c-2 -10 -2 -31 -2 -74v-786z" />
    <glyph glyph-name="integralbt" unicode="&#x2321;" 
d="M201 750h98v-774c0 -83 -2 -110 -9 -137c-16 -55 -67 -89 -136 -89c-25 0 -42 2 -79 11l19 87c23 -7 34 -9 50 -9c34 0 52 16 55 52c2 10 2 30 2 73v786z" />
    <glyph glyph-name="similar" unicode="&#x223c;" 
d="M64 257l-56 36c39 90 80 126 143 126c26 0 57 -8 109 -30c57 -24 70 -28 92 -28c35 0 54 13 82 60l57 -34c-24 -51 -40 -73 -66 -92c-25 -19 -55 -29 -86 -29c-25 0 -51 8 -142 45c-19 8 -39 13 -53 13c-33 0 -54 -18 -80 -67z" />
    <glyph glyph-name="approxequal" unicode="&#x2248;" 
d="M64 348l-56 36c40 91 80 126 144 126c25 0 55 -8 108 -31c61 -26 69 -28 92 -28c36 0 54 14 82 61l57 -34c-24 -51 -40 -73 -66 -93c-25 -19 -55 -29 -86 -29c-25 0 -50 8 -142 46c-19 8 -39 13 -54 13c-32 0 -53 -18 -79 -67zM64 165l-56 36c40 91 80 126 143 126
c26 0 57 -8 109 -30c58 -24 70 -28 92 -28c35 0 54 13 82 60l57 -34c-24 -51 -40 -73 -66 -92c-25 -19 -55 -29 -85 -29c-26 0 -49 7 -143 45c-20 9 -39 13 -53 13c-33 0 -54 -18 -80 -67z" />
    <glyph glyph-name="lessequal" unicode="&#x2264;" 
d="M466 636v-93l-329 -149l329 -148v-93l-433 198v84zM466 124v-92h-433v92h433z" />
    <glyph glyph-name="greaterequal" unicode="&#x2265;" 
d="M33 153v93l329 149l-329 148v93l433 -201v-84zM33 32v92h433v-92h-433z" />
    <glyph glyph-name="uni2319" unicode="&#x2319;" 
d="M131 267v-175h335v-92h-433v267h98z" />
    <glyph glyph-name="revlogicalnot" unicode="&#x2310;" 
d="M131 0h-98v267h433v-92h-335v-175z" />
    <glyph glyph-name="union" unicode="&#x222a;" horiz-adv-x="619" 
d="M51 667h98v-305c0 -127 6 -170 30 -205c28 -41 79 -68 131 -68c61 0 118 35 141 86c15 33 20 79 20 187v305h98v-302c0 -175 -7 -213 -50 -268c-49 -63 -122 -97 -209 -97c-100 0 -187 48 -229 127c-24 45 -30 89 -30 238v302z" />
    <glyph glyph-name="intersection" unicode="&#x2229;" horiz-adv-x="619" 
d="M569 0h-98v305c0 129 -6 170 -30 206c-27 41 -79 68 -131 68c-61 0 -118 -35 -141 -86c-15 -33 -20 -81 -20 -188v-305h-98v303c0 174 7 213 50 268c49 62 122 96 209 96c100 0 187 -48 229 -127c25 -46 30 -88 30 -237v-303z" />
    <glyph glyph-name="infinity" unicode="&#x221e;" horiz-adv-x="667" 
d="M336 276c-48 -63 -100 -93 -161 -93c-92 0 -157 65 -157 158c0 92 66 157 157 157c58 0 113 -32 157 -93c46 63 98 93 161 93c92 0 156 -65 156 -158c0 -92 -65 -158 -155 -158c-61 0 -113 31 -158 94zM383 340c31 -51 62 -74 98 -74c40 0 71 32 71 74s-31 74 -72 74
c-36 0 -60 -18 -97 -74zM285 340c-31 50 -63 75 -98 75c-41 0 -72 -32 -72 -74s32 -75 72 -75c36 0 62 20 98 74z" />
    <glyph glyph-name="uni222E" unicode="&#x222e;" 
d="M74 -239l19 88c23 -9 34 -11 50 -11c34 0 52 17 56 53c1 10 2 36 2 74v93c-97 25 -162 106 -162 202s64 175 162 201v78c0 69 2 97 9 123c16 55 67 89 136 89c24 0 43 -3 80 -11l-20 -88c-23 8 -34 10 -50 10c-34 0 -52 -17 -55 -52c-2 -10 -2 -31 -2 -74v-75
c39 -10 59 -20 84 -39c50 -41 79 -99 79 -162c0 -98 -64 -177 -163 -202v-75c0 -124 -3 -146 -27 -179c-25 -35 -67 -53 -125 -53c-29 0 -50 3 -73 10zM299 396v-271c28 12 36 17 49 30c28 27 44 65 44 105c0 64 -31 109 -93 136zM201 125v271c-58 -23 -92 -73 -92 -135
c0 -63 33 -112 92 -136z" />
    <glyph glyph-name="product" unicode="&#x220f;" horiz-adv-x="714" 
d="M38 750h638v-92h-82v-816h82v-92h-261v92h81v816h-279v-816h81v-92h-260v92h81v816h-81v92z" />
    <glyph glyph-name="summation" unicode="&#x2211;" horiz-adv-x="667" 
d="M608 750v-239h-89l-9 147h-374l251 -390l-251 -426h383l6 145h92v-237h-592v102l246 416l-246 381v101h583z" />
    <glyph glyph-name="afii61289" unicode="&#x2113;" 
d="M255 268c-3 -12 -3 -12 -14 -71c-12 -60 -17 -100 -17 -126c0 -18 5 -27 17 -27c15 0 31 18 46 52c7 15 12 19 21 19s15 -7 15 -18c0 -20 -12 -47 -32 -70c-23 -28 -47 -41 -74 -41c-46 0 -71 36 -71 104c0 23 2 51 6 102c-32 -30 -36 -33 -43 -33c-8 0 -16 10 -16 20
c0 8 4 15 18 28c9 8 36 38 48 52c54 286 118 419 202 419c42 0 69 -34 69 -86c0 -55 -26 -130 -68 -195c-22 -34 -53 -72 -107 -129zM268 344c71 79 114 170 114 240c0 26 -8 43 -21 43s-28 -17 -36 -42c-18 -50 -40 -145 -57 -241z" />
    <glyph glyph-name="partialdiff" unicode="&#x2202;" 
d="M75 582l12 86c120 -14 196 -45 262 -106c81 -74 126 -183 126 -306c0 -161 -90 -266 -226 -266c-124 0 -225 102 -225 227c0 122 91 217 207 217c58 0 94 -16 136 -61c-43 117 -146 191 -292 209zM252 361c-72 0 -128 -65 -128 -149c0 -82 56 -148 126 -148
s125 67 125 153c0 82 -52 144 -123 144z" />
    <glyph glyph-name="underscoredbl" unicode="&#x2017;" 
d="M0 -54h500v-60h-500v60zM0 -171h500v-60h-500v60z" />
    <glyph glyph-name="uni203E" unicode="&#x203e;" 
d="M0 876h500v-89h-500v89z" />
    <glyph glyph-name="emptyset" unicode="&#x2205;" horiz-adv-x="618" 
d="M496 655l-53 -105c70 -48 109 -122 109 -203c0 -135 -108 -243 -243 -243c-30 0 -54 4 -84 15l-53 -106l-49 25l53 106c-69 47 -109 121 -109 203c0 134 108 242 243 242c30 0 54 -4 85 -15l53 106zM417 499l-166 -330c22 -6 37 -9 58 -9c104 0 187 83 187 187
c0 60 -29 116 -79 152zM202 194l167 330c-22 7 -38 9 -59 9c-104 0 -187 -83 -187 -186c0 -61 27 -114 79 -153z" />
    <glyph glyph-name="exclamdbl" unicode="&#x203c;" horiz-adv-x="456" 
d="M163 667v-178l-26 -295h-53l-26 294v179h105zM165 128v-128h-109v128h109zM399 667v-178l-26 -295h-53l-26 294v179h105zM401 128v-128h-109v128h109z" />
    <glyph glyph-name="uniEA21" unicode="&#xea21;" horiz-adv-x="782" 
d="M81 795h124v-124h124v124h124v-124h124v124h124v-124h-124v-124h124v-124h-124v-124h124v-124h-124v-124h124v-124h-124v124h-124v124h124v124h-124v124h124v124h-124v124h-124v-124h124v-124h-124v-124h124v-124h-124v-124h124v-124h-124v124h-124v-124h-124v124h124
v124h-124v124h124v-124h124v124h-124v124h-124v124h124v-124h124v124h-124v124h-124v124z" />
    <glyph glyph-name="ltshade" unicode="&#x2591;" horiz-adv-x="1000" 
d="M0 750h100v-100h-100v100zM200 750h100v-100h-100v100zM800 750h100v-100h-100v100zM400 750h100v-100h-100v100zM600 750h100v-100h-100v100zM0 550h100v-100h-100v100zM0 350h100v-100h-100v100zM0 150h100v-100h-100v100zM0 -50h100v-100h-100v100zM200 550h100v-100
h-100v100zM200 350h100v-100h-100v100zM200 150h100v-100h-100v100zM200 -50h100v-100h-100v100zM400 550h100v-100h-100v100zM400 350h100v-100h-100v100zM400 150h100v-100h-100v100zM400 -50h100v-100h-100v100zM600 550h100v-100h-100v100zM600 350h100v-100h-100v100z
M600 150h100v-100h-100v100zM600 -50h100v-100h-100v100zM800 550h100v-100h-100v100zM800 350h100v-100h-100v100zM800 150h100v-100h-100v100zM800 -50h100v-100h-100v100z" />
    <glyph glyph-name="shade" unicode="&#x2592;" horiz-adv-x="1000" 
d="M900 -150h100v-100h-100v100h-100v-100h-100v100h-100v-100h-100v100h-100v-100h-100v100h-100v-100h-100v100h-100v100h100v-100h100v100h100v-100h100v100h100v-100h100v100h100v-100h100v100h100v100h-100v-100h-100v100h-100v-100h-100v100h-100v-100h-100v100h-100
v-100h-100v100h-100v100h100v-100h100v100h100v-100h100v100h100v-100h100v100h100v-100h100v100h100v100h-100v-100h-100v100h-100v-100h-100v100h-100v-100h-100v100h-100v-100h-100v100h-100v100h100v-100h100v100h100v-100h100v100h100v-100h100v100h100v-100h100v100
h100v100h-100v-100h-100v100h-100v-100h-100v100h-100v-100h-100v100h-100v-100h-100v100h-100v100h100v-100h100v100h100v-100h100v100h100v-100h100v100h100v-100h100v100h100v100h-100v-100h-100v100h-100v-100h-100v100h-100v-100h-100v100h-100v-100h-100v100h-100v100
h100v-100h100v100h100v-100h100v100h100v-100h100v100h100v-100h100v100h100v-100h100v-100h-100v-100h100v-100h-100v-100h100v-100h-100v-100h100v-100h-100v-100z" />
    <glyph glyph-name="dkshade" unicode="&#x2593;" horiz-adv-x="1000" 
d="M1000 -250h-1000v100h100v100h-100v100h100v100h-100v100h100v100h-100v100h100v100h-100v100h100v100h100v-100h100v100h100v-100h100v100h100v-100h100v100h100v-100h100v100h100v-1000zM900 550h-100v-100h100v100zM700 550h-100v-100h100v100zM500 550h-100v-100h100
v100zM300 550h-100v-100h100v100zM900 350h-100v-100h100v100zM700 350h-100v-100h100v100zM500 350h-100v-100h100v100zM300 350h-100v-100h100v100zM900 150h-100v-100h100v100zM700 150h-100v-100h100v100zM500 150h-100v-100h100v100zM300 150h-100v-100h100v100z
M900 -50h-100v-100h100v100zM700 -50h-100v-100h100v100zM500 -50h-100v-100h100v100zM300 -50h-100v-100h100v100z" />
    <glyph glyph-name="SF110000" unicode="&#x2502;" horiz-adv-x="1000" 
d="M467 -250v1000h66v-1000h-66z" />
    <glyph glyph-name="SF090000" unicode="&#x2524;" horiz-adv-x="1000" 
d="M467 217h-467v66h467v467h66v-1000h-66v467z" />
    <glyph glyph-name="SF190000" unicode="&#x2561;" horiz-adv-x="1000" 
d="M467 349v401h66v-1000h-66v401h-467v66h467v66h-467v66h467z" />
    <glyph glyph-name="SF200000" unicode="&#x2562;" horiz-adv-x="1000" 
d="M401 217h-401v66h401v467h66v-1000h-66v467zM533 -250v1000h66v-1000h-66z" />
    <glyph glyph-name="SF210000" unicode="&#x2556;" horiz-adv-x="1000" 
d="M467 217v-467h-66v467h-401v66h599v-533h-66v467h-66z" />
    <glyph glyph-name="SF220000" unicode="&#x2555;" horiz-adv-x="1000" 
d="M467 151h-467v66h467v66h-467v66h533v-599h-66v401z" />
    <glyph glyph-name="SF230000" unicode="&#x2563;" horiz-adv-x="1000" 
d="M599 -250h-66v1000h66v-1000zM401 349v401h66v-467h-467v66h401zM401 151h-401v66h467v-467h-66v401z" />
    <glyph glyph-name="SF240000" unicode="&#x2551;" horiz-adv-x="1000" 
d="M401 -250v1000h66v-1000h-66zM533 -250v1000h66v-1000h-66z" />
    <glyph glyph-name="SF250000" unicode="&#x2557;" horiz-adv-x="1000" 
d="M533 283h-533v66h599v-599h-66v533zM401 151h-401v66h467v-467h-66v401z" />
    <glyph glyph-name="SF260000" unicode="&#x255d;" horiz-adv-x="1000" 
d="M533 217v533h66v-599h-599v66h533zM401 349v401h66v-467h-467v66h401z" />
    <glyph glyph-name="SF270000" unicode="&#x255c;" horiz-adv-x="1000" 
d="M467 283h66v467h66v-533h-599v66h401v467h66v-467z" />
    <glyph glyph-name="SF280000" unicode="&#x255b;" horiz-adv-x="1000" 
d="M467 349v401h66v-599h-533v66h467v66h-467v66h467z" />
    <glyph glyph-name="SF030000" unicode="&#x2510;" horiz-adv-x="1000" 
d="M467 217h-467v66h533v-533h-66v467z" />
    <glyph glyph-name="SF020000" unicode="&#x2514;" horiz-adv-x="1000" 
d="M533 283h467v-66h-533v533h66v-467z" />
    <glyph glyph-name="SF070000" unicode="&#x2534;" horiz-adv-x="1000" 
d="M467 283v467h66v-467h467v-66h-1000v66h467z" />
    <glyph glyph-name="SF060000" unicode="&#x252c;" horiz-adv-x="1000" 
d="M533 217v-467h-66v467h-467v66h1000v-66h-467z" />
    <glyph glyph-name="SF080000" unicode="&#x251c;" horiz-adv-x="1000" 
d="M533 283h467v-66h-467v-467h-66v1000h66v-467z" />
    <glyph glyph-name="SF100000" unicode="&#x2500;" horiz-adv-x="1000" 
d="M0 217v66h1000v-66h-1000z" />
    <glyph glyph-name="SF050000" unicode="&#x253c;" horiz-adv-x="1000" 
d="M467 217h-467v66h467v467h66v-467h467v-66h-467v-467h-66v467z" />
    <glyph glyph-name="SF360000" unicode="&#x255e;" horiz-adv-x="1000" 
d="M467 750h66v-401h467v-66h-467v-66h467v-66h-467v-401h-66v1000z" />
    <glyph glyph-name="SF370000" unicode="&#x255f;" horiz-adv-x="1000" 
d="M599 217v-467h-66v1000h66v-467h401v-66h-401zM467 -250h-66v1000h66v-1000z" />
    <glyph glyph-name="SF380000" unicode="&#x255a;" horiz-adv-x="1000" 
d="M467 217h533v-66h-599v599h66v-533zM599 349h401v-66h-467v467h66v-401z" />
    <glyph glyph-name="SF390000" unicode="&#x2554;" horiz-adv-x="1000" 
d="M467 283v-533h-66v599h599v-66h-533zM599 151v-401h-66v467h467v-66h-401z" />
    <glyph glyph-name="SF400000" unicode="&#x2569;" horiz-adv-x="1000" 
d="M0 151v66h1000v-66h-1000zM599 349h401v-66h-467v467h66v-401zM401 349v401h66v-467h-467v66h401z" />
    <glyph glyph-name="SF410000" unicode="&#x2566;" horiz-adv-x="1000" 
d="M0 349h1000v-66h-1000v66zM599 151v-401h-66v467h467v-66h-401zM401 151h-401v66h467v-467h-66v401z" />
    <glyph glyph-name="SF420000" unicode="&#x2560;" horiz-adv-x="1000" 
d="M401 -250v1000h66v-1000h-66zM599 349h401v-66h-467v467h66v-401zM599 151v-401h-66v467h467v-66h-401z" />
    <glyph glyph-name="SF430000" unicode="&#x2550;" horiz-adv-x="1000" 
d="M0 151v66h1000v-66h-1000zM0 283v66h1000v-66h-1000z" />
    <glyph glyph-name="SF440000" unicode="&#x256c;" horiz-adv-x="1000" 
d="M599 349h401v-66h-467v467h66v-401zM401 349v401h66v-467h-467v66h401zM599 151v-401h-66v467h467v-66h-401zM401 151h-401v66h467v-467h-66v401z" />
    <glyph glyph-name="SF450000" unicode="&#x2567;" horiz-adv-x="1000" 
d="M0 151v66h1000v-66h-1000zM467 349v401h66v-401h467v-66h-1000v66h467z" />
    <glyph glyph-name="SF460000" unicode="&#x2568;" horiz-adv-x="1000" 
d="M0 217v66h401v467h66v-467h66v467h66v-467h401v-66h-1000z" />
    <glyph glyph-name="SF470000" unicode="&#x2564;" horiz-adv-x="1000" 
d="M0 349h1000v-66h-1000v66zM467 151h-467v66h1000v-66h-467v-401h-66v401z" />
    <glyph glyph-name="SF480000" unicode="&#x2565;" horiz-adv-x="1000" 
d="M401 217h-401v66h1000v-66h-401v-467h-66v467h-66v-467h-66v467z" />
    <glyph glyph-name="SF490000" unicode="&#x2559;" horiz-adv-x="1000" 
d="M533 283v467h66v-467h401v-66h-599v533h66v-467h66z" />
    <glyph glyph-name="SF500000" unicode="&#x2558;" horiz-adv-x="1000" 
d="M467 750h66v-401h467v-66h-467v-66h467v-66h-533v599z" />
    <glyph glyph-name="SF510000" unicode="&#x2552;" horiz-adv-x="1000" 
d="M467 -250v599h533v-66h-467v-66h467v-66h-467v-401h-66z" />
    <glyph glyph-name="SF520000" unicode="&#x2553;" horiz-adv-x="1000" 
d="M533 217h-66v-467h-66v533h599v-66h-401v-467h-66v467z" />
    <glyph glyph-name="SF530000" unicode="&#x256b;" horiz-adv-x="1000" 
d="M401 217h-401v66h401v467h66v-467h66v467h66v-467h401v-66h-401v-467h-66v467h-66v-467h-66v467z" />
    <glyph glyph-name="SF540000" unicode="&#x256a;" horiz-adv-x="1000" 
d="M467 217v66h-467v66h467v401h66v-401h467v-66h-467v-66h467v-66h-467v-401h-66v401h-467v66h467z" />
    <glyph glyph-name="SF040000" unicode="&#x2518;" horiz-adv-x="1000" 
d="M0 217v66h467v467h66v-533h-533z" />
    <glyph glyph-name="SF010000" unicode="&#x250c;" horiz-adv-x="1000" 
d="M1000 283v-66h-467v-467h-66v533h533z" />
    <glyph glyph-name="block" unicode="&#x2588;" horiz-adv-x="1000" 
d="M0 -250v1000h1000v-1000h-1000z" />
    <glyph glyph-name="rtblock" unicode="&#x2590;" horiz-adv-x="1000" 
d="M500 -250v1000h500v-1000h-500z" />
    <glyph glyph-name="lfblock" unicode="&#x258c;" horiz-adv-x="1000" 
d="M0 -250v1000h500v-1000h-500z" />
    <glyph glyph-name="dnblock" unicode="&#x2584;" horiz-adv-x="1000" 
d="M0 -250v500h1000v-500h-1000z" />
    <glyph glyph-name="upblock" unicode="&#x2580;" horiz-adv-x="1000" 
d="M0 250v500h1000v-500h-1000z" />
    <glyph glyph-name="house" unicode="&#x2302;" horiz-adv-x="751" 
d="M84 0v401l291 328l292 -328v-401h-583zM135 51h481v328l-241 270l-240 -270v-328z" />
    <glyph glyph-name="uni2126" unicode="&#x2126;" horiz-adv-x="667" 
d="M29 0v88h160c-111 68 -160 152 -160 277c0 180 132 318 305 318c174 0 305 -137 305 -318c0 -125 -49 -210 -160 -277h160v-88h-265v79c113 63 164 149 164 274c0 70 -18 123 -60 171c-40 46 -88 70 -143 70c-49 0 -97 -20 -135 -57c-47 -47 -70 -106 -70 -185
c0 -123 54 -212 165 -273v-79h-266z" />
    <glyph glyph-name="triagrt" unicode="&#x25ba;" horiz-adv-x="667" 
d="M636 337l-566 -200v400z" />
    <glyph glyph-name="triaglf" unicode="&#x25c4;" horiz-adv-x="667" 
d="M31 337l566 200v-400z" />
    <glyph glyph-name="musicalnotedbl" unicode="&#x266b;" horiz-adv-x="667" 
d="M215 645l381 -56v-446c0 -49 -8 -79 -29 -108c-28 -40 -74 -64 -121 -64c-44 0 -71 23 -71 61c0 61 57 115 122 115c18 0 35 -3 53 -11v367l-289 44v-348c0 -49 -8 -79 -29 -108c-28 -40 -74 -64 -121 -64c-44 0 -71 23 -71 61c0 61 57 115 122 115c18 0 35 -3 53 -11
v453z" />
    <glyph glyph-name="Alpha" unicode="&#x391;" horiz-adv-x="585" 
d="M242 669h100l228 -669h-107l-49 156h-243l-50 -156h-106zM387 245l-95 300l-94 -300h189z" />
    <glyph glyph-name="Beta" unicode="&#x392;" horiz-adv-x="570" 
d="M83 667h152c84 0 122 -4 159 -16c64 -23 103 -79 103 -151c0 -76 -34 -120 -110 -144c99 -23 146 -77 146 -167c0 -81 -47 -149 -118 -172c-45 -14 -78 -17 -194 -17h-138v667zM184 389h59c54 0 83 4 107 16c28 14 45 45 45 83s-19 69 -49 82c-23 9 -48 12 -109 12h-53
v-193zM184 85h62c75 0 103 3 129 15c32 14 51 50 51 95c0 48 -23 84 -62 99c-27 10 -51 12 -116 12h-64v-221z" />
    <glyph glyph-name="Gamma" unicode="&#x393;" horiz-adv-x="496" 
d="M83 0v667h393v-89h-287v-578h-106z" />
    <glyph glyph-name="uni0394" unicode="&#x394;" horiz-adv-x="595" 
d="M15 0l230 669h107l228 -669h-565zM442 89l-146 460l-145 -460h291z" />
    <glyph glyph-name="Epsilon" unicode="&#x395;" horiz-adv-x="520" 
d="M186 390h268v-89h-268v-212h300v-89h-403v667h395v-89h-292v-188z" />
    <glyph glyph-name="Zeta" unicode="&#x396;" horiz-adv-x="497" 
d="M52 667h420v-72l-324 -506h315v-89h-437v81l321 499h-295v87z" />
    <glyph glyph-name="Eta" unicode="&#x397;" horiz-adv-x="659" 
d="M186 391h288v276h103v-667h-103v306h-288v-306h-103v667h103v-276z" />
    <glyph glyph-name="Theta" unicode="&#x398;" horiz-adv-x="660" 
d="M331 679c172 0 287 -139 287 -345c0 -207 -115 -346 -287 -346c-174 0 -288 138 -288 350c0 202 118 341 288 341zM331 590c-110 0 -180 -99 -180 -253c0 -161 68 -260 180 -260c110 0 179 99 179 257c0 157 -69 256 -179 256zM221 376h218v-85h-218v85z" />
    <glyph glyph-name="Iota" unicode="&#x399;" horiz-adv-x="269" 
d="M186 0h-104v667h104v-667z" />
    <glyph glyph-name="Kappa" unicode="&#x39a;" horiz-adv-x="593" 
d="M444 667h121l-260 -312l281 -355h-135l-263 352zM83 667h103v-667h-103v667z" />
    <glyph glyph-name="Lambda" unicode="&#x39b;" horiz-adv-x="587" 
d="M576 0h-110l-174 549l-173 -549h-108l230 669h107z" />
    <glyph glyph-name="Mu" unicode="&#x39c;" horiz-adv-x="791" 
d="M83 667h148l164 -555l166 555h147v-667h-95v553l-165 -553h-106l-164 553v-553h-95v667z" />
    <glyph glyph-name="Nu" unicode="&#x39d;" horiz-adv-x="668" 
d="M83 667h111l293 -510v510h98v-667h-107l-297 509v-509h-98v667z" />
    <glyph glyph-name="Xi" unicode="&#x39e;" horiz-adv-x="535" 
d="M67 301v89h401v-89h-401zM34 0v89h466v-89h-466zM43 578v89h449v-89h-449z" />
    <glyph glyph-name="Omicron" unicode="&#x39f;" horiz-adv-x="660" 
d="M331 679c172 0 287 -139 287 -345c0 -207 -115 -346 -287 -346c-174 0 -288 138 -288 350c0 202 118 341 288 341zM331 590c-110 0 -180 -99 -180 -253c0 -161 68 -260 180 -260c110 0 179 99 179 257c0 157 -69 256 -179 256z" />
    <glyph glyph-name="Pi" unicode="&#x3a0;" horiz-adv-x="659" 
d="M186 582v-582h-103v667h494v-667h-103v582h-288z" />
    <glyph glyph-name="Rho" unicode="&#x3a1;" horiz-adv-x="547" 
d="M83 667h134c100 0 144 -4 187 -19c75 -25 121 -97 121 -188c0 -88 -45 -158 -118 -183c-40 -14 -82 -18 -177 -18h-44v-259h-103v667zM186 348h44c70 0 91 2 119 10c43 12 69 51 69 103c0 48 -21 85 -56 101c-28 12 -58 16 -133 16h-43v-230z" />
    <glyph glyph-name="Sigma" unicode="&#x3a3;" horiz-adv-x="488" 
d="M27 0v81l220 251l-197 263v72h425v-87l-288 -1l182 -247l-209 -243h315v-89h-448z" />
    <glyph glyph-name="Tau" unicode="&#x3a4;" horiz-adv-x="484" 
d="M16 667h453v-89h-176v-578h-103v578h-174v89z" />
    <glyph glyph-name="Upsilon" unicode="&#x3a5;" horiz-adv-x="539" 
d="M5 667h116l150 -287l147 287h115l-213 -396l1 -271h-104l1 271z" />
    <glyph glyph-name="Phi" unicode="&#x3a6;" horiz-adv-x="718" 
d="M408 511v-371c108 0 178 73 178 184c0 60 -20 113 -53 144c-29 25 -79 43 -125 43zM310 140v371c-21 0 -38 -3 -58 -9c-51 -15 -79 -38 -98 -78c-14 -28 -22 -64 -22 -100c0 -111 70 -184 178 -184zM408 667v-65c166 -2 280 -113 280 -274s-114 -272 -280 -273v-55h-98
v55c-166 1 -280 112 -280 273s114 272 280 274v65h98z" />
    <glyph glyph-name="Chi" unicode="&#x3a7;" horiz-adv-x="565" 
d="M30 667h118l136 -230l138 230h118l-197 -319l208 -348h-118l-149 254l-152 -254h-117l208 348z" />
    <glyph glyph-name="Psi" unicode="&#x3a8;" horiz-adv-x="673" 
d="M389 130v-130h-104v129c-82 8 -155 45 -193 98c-32 44 -39 76 -39 190v250h103v-251c0 -96 6 -123 35 -154c22 -23 48 -35 94 -44v449h104v-448c43 7 72 21 93 43c29 31 35 58 35 154v251h103v-250c0 -79 -1 -97 -10 -129c-23 -87 -103 -144 -221 -158z" />
    <glyph glyph-name="uni03A9" unicode="&#x3a9;" horiz-adv-x="695" 
d="M385 0v152c98 12 155 88 155 208c0 144 -72 230 -192 230c-121 0 -193 -86 -193 -229c0 -121 56 -197 155 -209v-152h-263v89h180v9c-55 10 -101 41 -135 92c-29 45 -45 108 -45 181c0 188 118 308 301 308c182 0 300 -120 300 -308c0 -88 -22 -157 -64 -206
c-34 -38 -70 -59 -116 -67v-9h180v-89h-263z" />
    <glyph glyph-name="Upsilon1" unicode="&#x3d2;" horiz-adv-x="541" 
d="M-3 605l59 75c112 -68 198 -189 215 -304c15 113 102 236 214 304l59 -75c-79 -58 -121 -101 -156 -160c-42 -71 -66 -164 -66 -255v-190h-103v190c0 91 -24 184 -66 255c-35 59 -77 102 -156 160z" />
    <glyph glyph-name="alpha" unicode="&#x3b1;" horiz-adv-x="570" 
d="M410 359l21 116h100l-66 -234l75 -241h-97l-29 125c-37 -95 -91 -138 -171 -138c-121 0 -204 102 -204 250c0 147 84 251 203 251c81 0 130 -38 168 -129zM375 235c-38 127 -73 173 -130 173c-63 0 -105 -68 -105 -171c0 -101 42 -170 104 -170c58 0 93 46 131 168z" />
    <glyph glyph-name="beta" unicode="&#x3b2;" horiz-adv-x="529" 
d="M71 -197l-1 643c0 76 5 102 24 139c32 62 99 98 184 98c116 0 188 -67 188 -174c0 -81 -40 -131 -118 -150c99 -22 144 -74 144 -170c0 -120 -74 -200 -184 -200c-64 0 -101 19 -139 69v-255h-98zM251 395h14c61 0 100 41 100 105c0 65 -36 103 -98 103
c-37 0 -69 -18 -85 -48c-11 -20 -13 -35 -13 -85v-253c0 -90 45 -144 119 -144c64 0 103 46 103 123c0 80 -44 122 -128 121h-12v78z" />
    <glyph glyph-name="gamma" unicode="&#x3b3;" horiz-adv-x="463" 
d="M182 -2l-174 477h103l120 -368l121 368h102l-174 -477v-195h-98v195z" />
    <glyph glyph-name="delta" unicode="&#x3b4;" horiz-adv-x="521" 
d="M228 477l-136 121v73h342v-81h-201l125 -110c92 -81 125 -144 125 -241c0 -148 -92 -252 -222 -252s-222 104 -222 251c0 134 76 231 189 239zM261 408c-71 0 -121 -69 -121 -169c0 -104 48 -172 121 -172c72 0 121 69 121 170c0 102 -49 171 -121 171z" />
    <glyph glyph-name="epsilon" unicode="&#x3b5;" horiz-adv-x="461" 
d="M418 333l-96 -7c-11 56 -39 82 -90 82c-48 0 -80 -26 -80 -66c0 -23 11 -43 30 -54c17 -9 42 -15 59 -14h4l23 1v-78l-19 1c-76 0 -111 -21 -111 -67c0 -38 32 -62 85 -62c60 0 91 26 103 87l96 -6c-5 -42 -23 -82 -51 -111c-34 -36 -79 -52 -147 -52
c-113 0 -187 55 -187 138c0 60 36 97 109 112c-64 20 -95 58 -95 114c0 83 70 137 180 137c105 0 173 -56 187 -155z" />
    <glyph glyph-name="zeta" unicode="&#x3b6;" horiz-adv-x="406" 
d="M279 590h-206v81h340v-71c-122 -89 -173 -136 -218 -200c-39 -56 -57 -108 -57 -166c0 -61 17 -110 47 -139c25 -24 39 -29 111 -42c83 -14 105 -30 105 -78c0 -16 -3 -33 -10 -55c-10 -33 -10 -33 -45 -98l-9 -19h-92c4 9 9 19 14 28c5 12 11 22 17 30
c21 36 29 57 29 77c0 31 -4 35 -52 43c-58 9 -88 19 -118 40c-60 41 -96 117 -96 206c0 133 73 244 240 363z" />
    <glyph glyph-name="eta" unicode="&#x3b7;" horiz-adv-x="527" 
d="M58 475h95c7 -19 9 -35 10 -65c33 51 81 76 143 76c61 0 112 -28 135 -73c16 -31 19 -52 19 -140v-470h-98v454c0 58 -3 81 -13 101c-13 27 -39 41 -73 41c-39 0 -73 -20 -91 -54c-11 -21 -16 -49 -16 -92v-253h-98v309c0 116 0 120 -13 166z" />
    <glyph glyph-name="theta" unicode="&#x3b8;" horiz-adv-x="521" 
d="M141 372h240c-9 146 -54 232 -122 232c-64 0 -110 -89 -118 -232zM380 294h-239c8 -139 54 -226 120 -226c65 0 111 87 119 226zM261 684c129 0 221 -146 221 -350s-92 -349 -221 -349c-131 0 -222 145 -222 354c0 199 94 345 222 345z" />
    <glyph glyph-name="iota" unicode="&#x3b9;" horiz-adv-x="242" 
d="M71 475h100v-475h-100v475z" />
    <glyph glyph-name="kappa" unicode="&#x3ba;" horiz-adv-x="511" 
d="M357 475h119l-188 -217l203 -258h-133l-187 256zM71 475h98v-475h-98v475z" />
    <glyph glyph-name="lambda" unicode="&#x3bb;" horiz-adv-x="463" 
d="M185 497l-60 174h100l63 -182l166 -489h-104l-117 377l-121 -377h-102z" />
    <glyph glyph-name="uni03BC" unicode="&#x3bc;" horiz-adv-x="528" 
d="M166 1v-198h-98v672h98v-280c0 -45 6 -72 18 -88c15 -20 41 -31 71 -31c39 0 70 18 88 51c11 20 16 46 16 87v261h98v-329c0 -107 0 -107 12 -146h-94c-5 14 -9 36 -10 59c-31 -49 -70 -70 -130 -70c-24 0 -46 4 -69 12z" />
    <glyph glyph-name="nu" unicode="&#x3bd;" horiz-adv-x="469" 
d="M10 475h103l121 -368l120 368h103l-169 -479h-109z" />
    <glyph glyph-name="xi" unicode="&#x3be;" horiz-adv-x="406" 
d="M385 671v-71c-42 0 -80 -2 -100 -6c-59 -12 -94 -46 -94 -91c0 -50 48 -77 135 -79v-81c-89 -1 -105 -3 -133 -22c-34 -22 -52 -63 -52 -116c0 -57 20 -98 58 -123c25 -16 33 -19 98 -30c46 -8 59 -11 75 -21c19 -12 29 -31 29 -56c0 -35 -17 -87 -49 -148h-92
c32 63 45 99 45 123c0 19 -9 25 -51 31c-138 19 -212 99 -212 226c0 97 51 166 138 185c-58 22 -87 55 -87 102c0 41 19 72 58 96h-106v81h340z" />
    <glyph glyph-name="omicron" unicode="&#x3bf;" horiz-adv-x="521" 
d="M261 488c129 0 221 -105 221 -251s-92 -250 -221 -250c-131 0 -222 104 -222 254c0 142 94 247 222 247zM261 408c-71 0 -121 -69 -121 -169c0 -104 48 -172 121 -172c71 0 120 69 120 170s-49 171 -120 171z" />
    <glyph glyph-name="pi" unicode="&#x3c0;" horiz-adv-x="536" 
d="M358 397h-166v-397h-98v397h-67v78h496v-78h-67v-397h-98v397z" />
    <glyph glyph-name="rho" unicode="&#x3c1;" horiz-adv-x="524" 
d="M65 -197v414c0 71 5 108 21 147c34 80 103 124 196 124c56 0 96 -15 130 -49c47 -47 72 -115 72 -200c0 -147 -78 -250 -190 -250c-56 0 -94 20 -131 69v-255h-98zM275 409c-70 0 -114 -66 -114 -170c0 -100 45 -166 114 -166c68 0 108 63 108 168
c0 104 -41 168 -108 168z" />
    <glyph glyph-name="sigma" unicode="&#x3c3;" horiz-adv-x="529" 
d="M513 475v-81c-9 -1 -18 -1 -20 -1c-18 0 -35 1 -63 3c37 -43 53 -91 53 -159c0 -146 -92 -250 -222 -250s-222 104 -222 250c0 152 92 251 233 251c21 0 29 -1 78 -7c30 -4 42 -5 63 -6h33h67zM261 408c-71 0 -121 -69 -121 -169c0 -104 48 -172 121 -172
c72 0 121 69 121 170c0 102 -49 171 -121 171z" />
    <glyph glyph-name="tau" unicode="&#x3c4;" horiz-adv-x="381" 
d="M239 0h-98v397h-138v78h374v-78h-138v-397z" />
    <glyph glyph-name="upsilon" unicode="&#x3c5;" horiz-adv-x="525" 
d="M457 475v-283c0 -81 -12 -121 -49 -157c-34 -34 -78 -49 -145 -49c-68 0 -112 15 -146 49c-37 36 -49 76 -49 157v283h98v-291c0 -43 4 -61 19 -81c17 -23 46 -36 78 -36c36 0 69 18 84 48c9 17 12 33 12 69v291h98z" />
    <glyph glyph-name="phi1" unicode="&#x3d5;" horiz-adv-x="614" 
d="M259 64v425c18 2 28 3 38 3h16h17c146 0 246 -104 246 -255c0 -142 -90 -245 -220 -250v-184h-97v184c-131 5 -220 108 -220 253c0 93 37 165 111 216l45 -55c-39 -41 -59 -95 -59 -162c0 -101 48 -169 123 -175zM356 411v-347c75 6 123 74 123 173
c0 100 -49 169 -123 174z" />
    <glyph glyph-name="chi" unicode="&#x3c7;" horiz-adv-x="442" 
d="M269 170l180 -367h-113l-119 258l-118 -258h-106l177 359l-153 313h113l92 -209l94 209h103z" />
    <glyph glyph-name="psi" unicode="&#x3c8;" horiz-adv-x="618" 
d="M358 471v-402c35 3 61 17 79 43c13 19 16 34 16 72v291h97v-287c0 -79 -16 -119 -60 -154c-35 -26 -74 -40 -132 -46v-185h-98v185c-58 6 -97 20 -132 46c-44 35 -60 75 -60 154v287h97v-291c0 -44 6 -63 26 -84c18 -19 39 -28 69 -31v402h98z" />
    <glyph glyph-name="omega" unicode="&#x3c9;" horiz-adv-x="605" 
d="M146 474l50 -75c-25 -21 -32 -31 -42 -61c-9 -27 -15 -69 -15 -110c0 -100 24 -161 64 -161c32 0 50 38 50 104v112h100v-112c0 -66 18 -104 50 -104c40 0 64 61 64 162c0 55 -9 106 -23 134c-8 15 -13 21 -30 35l40 82c49 -36 64 -53 83 -100c19 -45 30 -100 30 -154
c0 -143 -65 -239 -160 -239c-51 0 -83 21 -104 70c-21 -49 -53 -70 -104 -70c-97 0 -160 96 -160 243c0 115 31 185 107 244z" />
    <glyph glyph-name="sigma1" unicode="&#x3c2;" horiz-adv-x="466" 
d="M440 318h-97c-10 63 -37 90 -89 90c-70 0 -114 -67 -114 -171c0 -65 16 -114 47 -143c25 -24 38 -29 111 -42c83 -14 105 -30 105 -78c0 -35 -22 -99 -60 -171h-93c36 68 57 123 57 145c0 19 -9 25 -52 32c-58 9 -89 19 -119 40c-62 43 -97 122 -97 220
c0 149 87 248 217 248c106 0 171 -60 184 -170z" />
    <glyph glyph-name="uniEA3E" unicode="&#xea3e;" horiz-adv-x="482" 
d="M142 275h143v-78h-143c11 -86 49 -130 112 -130c53 0 80 26 92 89l95 -9c-16 -68 -33 -98 -69 -125c-32 -23 -72 -35 -118 -35c-129 0 -215 99 -215 249c0 153 85 252 216 252c49 0 87 -12 120 -38c34 -27 48 -53 62 -113l-96 -8c-14 57 -38 79 -88 79
c-61 0 -99 -45 -111 -133z" />
    <glyph glyph-name="theta1" unicode="&#x3d1;" horiz-adv-x="550" 
d="M9 256h175v-111c0 -50 25 -78 70 -78c52 0 89 42 111 124c13 50 18 98 18 188h-29c-83 0 -125 8 -166 33c-49 30 -75 75 -75 134c0 83 62 139 154 139c113 0 184 -78 209 -228h54v-78h-48c1 -8 1 -14 1 -25c0 -233 -84 -368 -229 -368c-110 0 -169 59 -168 167v14h-77v89
zM375 457c-17 106 -46 149 -99 149c-37 0 -62 -27 -62 -65c0 -59 49 -84 161 -84z" />
    <glyph glyph-name="phi" unicode="&#x3c6;" horiz-adv-x="614" 
d="M356 -197h-97v184c-130 5 -220 108 -220 250c0 143 91 246 220 251v183h97v-183c129 -5 220 -108 220 -251c0 -142 -90 -245 -220 -250v-184zM259 64v347c-74 -5 -123 -74 -123 -174c0 -99 48 -167 123 -173zM356 411v-347c75 6 123 74 123 173c0 100 -49 169 -123 174z
" />
    <glyph glyph-name="iotadieresis" unicode="&#x3ca;" horiz-adv-x="242" 
d="M71 475h100v-475h-100v475zM47 678c32 0 58 -27 58 -59c0 -33 -26 -59 -59 -59s-59 26 -59 59s26 59 60 59zM198 678c32 0 58 -27 58 -59c0 -33 -26 -59 -59 -59c-32 0 -59 26 -59 59s26 59 60 59z" />
    <glyph glyph-name="upsilondieresis" unicode="&#x3cb;" horiz-adv-x="525" 
d="M457 475v-283c0 -81 -12 -121 -49 -157c-34 -34 -78 -49 -145 -49c-68 0 -112 15 -146 49c-37 36 -49 76 -49 157v283h98v-291c0 -43 4 -61 19 -81c17 -23 46 -36 78 -36c36 0 69 18 84 48c9 17 12 33 12 69v291h98zM177 679c33 0 60 -27 60 -60c0 -34 -27 -61 -60 -61
c-34 0 -61 27 -61 60c0 34 27 61 61 61zM350 680c33 0 60 -28 60 -61c0 -34 -27 -61 -61 -61s-61 27 -61 61s27 61 62 61z" />
    <glyph glyph-name="tonos" unicode="&#x384;" horiz-adv-x="166" 
d="M121 539h-77l-11 168h99z" />
    <glyph glyph-name="dieresistonos" unicode="&#x385;" horiz-adv-x="447" 
d="M94 679c33 0 60 -27 60 -60c0 -34 -27 -61 -60 -61c-34 0 -61 27 -61 60c0 34 27 61 61 61zM354 680c33 0 60 -28 60 -61c0 -34 -27 -61 -61 -61s-61 27 -61 61s27 61 62 61zM262 539h-77l-11 168h99z" />
    <glyph glyph-name="Alphatonos" unicode="&#x386;" horiz-adv-x="610" 
d="M267 669h100l228 -669h-107l-49 156h-243l-50 -156h-106zM412 245l-95 300l-94 -300h189zM143 539h-77l-11 168h99z" />
    <glyph glyph-name="Epsilontonos" unicode="&#x388;" horiz-adv-x="573" 
d="M238 390h268v-89h-268v-212h300v-89h-403v667h395v-89h-292v-188zM88 539h-77l-11 168h99z" />
    <glyph glyph-name="Etatonos" unicode="&#x389;" horiz-adv-x="712" 
d="M238 391h288v276h103v-667h-103v306h-288v-306h-103v667h103v-276zM88 539h-77l-11 168h99z" />
    <glyph glyph-name="Iotatonos" unicode="&#x38a;" horiz-adv-x="321" 
d="M239 0h-104v667h104v-667zM88 539h-77l-11 168h99z" />
    <glyph glyph-name="Omicrontonos" unicode="&#x38c;" horiz-adv-x="699" 
d="M369 679c172 0 287 -139 287 -345c0 -207 -115 -346 -287 -346c-174 0 -288 138 -288 350c0 202 118 341 288 341zM369 590c-110 0 -180 -99 -180 -253c0 -161 68 -260 180 -260c110 0 179 99 179 257c0 157 -69 256 -179 256zM88 539h-77l-11 168h99z" />
    <glyph glyph-name="Omegatonos" unicode="&#x38f;" horiz-adv-x="728" 
d="M88 539h-77l-11 168h99zM418 0v152c98 12 155 88 155 208c0 145 -72 230 -193 230s-192 -85 -192 -229c0 -121 56 -197 154 -209v-152h-262v89h179v9c-111 20 -179 123 -179 273c0 188 117 308 300 308s301 -120 301 -308c0 -88 -22 -157 -64 -206
c-34 -38 -70 -59 -116 -67v-9h180v-89h-263z" />
    <glyph glyph-name="Upsilontonos" unicode="&#x38e;" horiz-adv-x="643" 
d="M110 667h116l149 -287l148 287h115l-213 -396v-271h-103l1 271zM81 539h-77l-11 168h99z" />
    <glyph glyph-name="Iotadieresis" unicode="&#x3aa;" horiz-adv-x="269" 
d="M187 0h-104v667h104v-667zM56 863c34 0 62 -28 62 -63s-28 -63 -63 -63s-63 28 -63 63s28 63 64 63zM216 863c34 0 62 -28 62 -63s-28 -63 -63 -63s-63 28 -63 63s28 63 64 63z" />
    <glyph glyph-name="Upsilondieresis" unicode="&#x3ab;" horiz-adv-x="539" 
d="M178 866c36 0 65 -30 65 -65c0 -37 -29 -66 -65 -66c-37 0 -66 29 -66 65c0 37 29 66 66 66zM360 866c36 0 65 -30 65 -65c0 -37 -29 -66 -65 -66c-37 0 -66 29 -66 65c0 37 29 66 66 66zM5 667h116l150 -287l147 287h115l-213 -396l1 -271h-104l1 271z" />
    <glyph glyph-name="alphatonos" unicode="&#x3ac;" horiz-adv-x="570" 
d="M410 359l21 116h100l-66 -234l75 -241h-97l-29 125c-37 -95 -91 -138 -171 -138c-121 0 -204 102 -204 250c0 147 84 251 203 251c81 0 130 -38 168 -129zM375 235c-38 127 -73 173 -130 173c-63 0 -105 -68 -105 -171c0 -101 42 -170 104 -170c58 0 93 46 131 168z
M324 539h-77l-11 168h99z" />
    <glyph glyph-name="epsilontonos" unicode="&#x3ad;" horiz-adv-x="461" 
d="M270 539h-78l-10 168h98zM418 333l-96 -7c-11 56 -39 82 -90 82c-48 0 -80 -26 -80 -66c0 -23 11 -43 30 -54c17 -9 42 -15 59 -14h4l23 1v-78l-19 1c-76 0 -111 -21 -111 -67c0 -38 32 -62 85 -62c60 0 91 26 103 87l96 -6c-5 -42 -23 -82 -51 -111
c-34 -36 -79 -52 -147 -52c-113 0 -187 55 -187 138c0 60 36 97 109 112c-64 20 -95 58 -95 114c0 83 70 137 180 137c105 0 173 -56 187 -155z" />
    <glyph glyph-name="etatonos" unicode="&#x3ae;" horiz-adv-x="527" 
d="M58 475h95c7 -19 9 -35 10 -65c33 51 81 76 143 76c61 0 112 -28 135 -73c16 -31 19 -52 19 -140v-470h-98v454c0 58 -3 81 -13 101c-13 27 -39 41 -73 41c-39 0 -73 -20 -91 -54c-11 -21 -16 -49 -16 -92v-253h-98v309c0 116 0 120 -13 166zM303 539h-77l-11 168h99z
" />
    <glyph glyph-name="iotatonos" unicode="&#x3af;" horiz-adv-x="242" 
d="M71 475h100v-475h-100v475zM160 539h-77l-11 168h99z" />
    <glyph glyph-name="omicrontonos" unicode="&#x3cc;" horiz-adv-x="521" 
d="M261 488c129 0 221 -105 221 -251s-92 -250 -221 -250c-131 0 -222 104 -222 254c0 142 94 247 222 247zM261 408c-71 0 -121 -69 -121 -169c0 -104 48 -172 121 -172c71 0 120 69 120 170s-49 171 -120 171zM299 539h-77l-11 168h99z" />
    <glyph glyph-name="omegatonos" unicode="&#x3ce;" horiz-adv-x="605" 
d="M342 539h-77l-11 168h99zM146 474l50 -75c-25 -21 -32 -31 -42 -61c-9 -27 -15 -69 -15 -110c0 -100 24 -161 64 -161c32 0 50 38 50 104v112h100v-112c0 -66 18 -104 50 -104c40 0 64 61 64 162c0 55 -9 106 -23 134c-8 15 -13 21 -30 35l40 82c49 -36 64 -53 83 -100
c19 -45 30 -100 30 -154c0 -143 -65 -239 -160 -239c-51 0 -83 21 -104 70c-21 -49 -53 -70 -104 -70c-97 0 -160 96 -160 243c0 115 31 185 107 244z" />
    <glyph glyph-name="upsilontonos" unicode="&#x3cd;" horiz-adv-x="525" 
d="M457 475v-283c0 -81 -12 -121 -49 -157c-34 -34 -78 -49 -145 -49c-68 0 -112 15 -146 49c-37 36 -49 76 -49 157v283h98v-291c0 -43 4 -61 19 -81c17 -23 46 -36 78 -36c36 0 69 18 84 48c9 17 12 33 12 69v291h98zM301 539h-77l-11 168h99z" />
    <glyph glyph-name="iotadieresistonos" unicode="&#x390;" horiz-adv-x="242" 
d="M71 475h100v-475h-100v475zM-8 679c33 0 60 -27 60 -60c0 -34 -27 -61 -60 -61c-34 0 -61 27 -61 60c0 34 27 61 61 61zM252 680c33 0 60 -28 60 -61c0 -34 -27 -61 -61 -61s-61 27 -61 61s27 61 62 61zM160 539h-77l-11 168h99z" />
    <glyph glyph-name="upsilondieresistonos" unicode="&#x3b0;" horiz-adv-x="525" 
d="M457 475v-283c0 -81 -12 -121 -49 -157c-34 -34 -78 -49 -145 -49c-68 0 -112 15 -146 49c-37 36 -49 76 -49 157v283h98v-291c0 -43 4 -61 19 -81c17 -23 46 -36 78 -36c36 0 69 18 84 48c9 17 12 33 12 69v291h98zM134 679c33 0 60 -27 60 -60c0 -34 -27 -61 -60 -61
c-34 0 -61 27 -61 60c0 34 27 61 61 61zM393 680c33 0 60 -28 60 -61c0 -34 -27 -61 -61 -61s-61 27 -61 61s27 61 62 61zM301 539h-77l-11 168h99z" />
    <glyph glyph-name="afii10017" unicode="&#x410;" horiz-adv-x="585" 
d="M242 669h100l228 -669h-107l-49 156h-243l-50 -156h-106zM387 245l-95 300l-94 -300h189z" />
    <glyph glyph-name="afii10018" unicode="&#x411;" horiz-adv-x="552" 
d="M186 578v-171h31c99 0 144 -5 187 -19c75 -25 121 -97 121 -187c0 -88 -45 -158 -118 -183c-41 -14 -82 -18 -177 -18h-148v667h360v-89h-256zM186 89h44c70 0 91 2 119 10c43 12 69 51 69 102c0 48 -21 85 -56 101c-28 12 -58 16 -133 16h-43v-229z" />
    <glyph glyph-name="afii10019" unicode="&#x412;" horiz-adv-x="570" 
d="M83 667h152c84 0 122 -4 159 -16c64 -23 103 -79 103 -151c0 -76 -34 -120 -110 -144c99 -23 146 -77 146 -167c0 -81 -47 -149 -118 -172c-45 -14 -78 -17 -194 -17h-138v667zM184 389h59c54 0 83 4 107 16c28 14 45 45 45 83s-19 69 -49 82c-23 9 -48 12 -109 12h-53
v-193zM184 85h62c75 0 103 3 129 15c32 14 51 50 51 95c0 48 -23 84 -62 99c-27 10 -51 12 -116 12h-64v-221z" />
    <glyph glyph-name="afii10020" unicode="&#x413;" horiz-adv-x="496" 
d="M83 0v667h393v-89h-287v-578h-106z" />
    <glyph glyph-name="afii10021" unicode="&#x414;" horiz-adv-x="611" 
d="M523 667v-582h72v-186h-103v101h-379v-101h-103v186h24c46 0 70 33 76 104l38 478h375zM420 582h-177l-37 -403c-4 -52 -9 -74 -22 -94h236v497z" />
    <glyph glyph-name="afii10022" unicode="&#x415;" horiz-adv-x="520" 
d="M186 390h268v-89h-268v-212h300v-89h-403v667h395v-89h-292v-188z" />
    <glyph glyph-name="afii10024" unicode="&#x416;" horiz-adv-x="841" 
d="M369 667h103v-276h41l206 276h117l-240 -318l258 -349h-118l-223 306h-41v-306h-103v306h-41l-223 -306h-118l258 349l-240 318h117l206 -276h41v276z" />
    <glyph glyph-name="afii10025" unicode="&#x417;" horiz-adv-x="563" 
d="M141 468l-91 8c13 131 98 203 239 203c61 0 106 -12 141 -37c47 -32 73 -85 73 -146c0 -84 -44 -143 -120 -160c78 -19 120 -72 120 -152c0 -56 -24 -109 -65 -145c-39 -35 -88 -51 -154 -51c-85 0 -141 22 -184 71c-35 42 -49 79 -60 164l93 15
c10 -105 59 -160 142 -160c69 0 119 48 119 114c0 27 -11 54 -29 72c-20 20 -43 27 -84 27h-48v85h48c68 0 113 43 113 108c0 66 -42 105 -113 105c-77 0 -124 -40 -140 -121z" />
    <glyph glyph-name="afii10026" unicode="&#x418;" horiz-adv-x="668" 
d="M83 0v667h98v-484l306 437v47h98v-667h-98v483l-306 -436v-47h-98z" />
    <glyph glyph-name="afii10028" unicode="&#x41a;" horiz-adv-x="593" 
d="M444 667h121l-260 -312l281 -355h-135l-263 352zM83 667h103v-667h-103v667z" />
    <glyph glyph-name="afii10029" unicode="&#x41b;" horiz-adv-x="608" 
d="M526 667v-667h-103v582h-177l-37 -402c-5 -134 -53 -181 -182 -181v86c56 -1 80 29 86 105l38 477h375z" />
    <glyph glyph-name="afii10030" unicode="&#x41c;" horiz-adv-x="791" 
d="M83 667h148l164 -555l166 555h147v-667h-95v553l-165 -553h-106l-164 553v-553h-95v667z" />
    <glyph glyph-name="afii10031" unicode="&#x41d;" horiz-adv-x="659" 
d="M186 391h288v276h103v-667h-103v306h-288v-306h-103v667h103v-276z" />
    <glyph glyph-name="afii10032" unicode="&#x41e;" horiz-adv-x="660" 
d="M331 679c172 0 287 -139 287 -345c0 -207 -115 -346 -287 -346c-174 0 -288 138 -288 350c0 202 118 341 288 341zM331 590c-110 0 -180 -99 -180 -253c0 -161 68 -260 180 -260c110 0 179 99 179 257c0 157 -69 256 -179 256z" />
    <glyph glyph-name="afii10033" unicode="&#x41f;" horiz-adv-x="659" 
d="M186 582v-582h-103v667h494v-667h-103v582h-288z" />
    <glyph glyph-name="afii10034" unicode="&#x420;" horiz-adv-x="547" 
d="M83 667h134c100 0 144 -4 187 -19c75 -25 121 -97 121 -188c0 -88 -45 -158 -118 -183c-40 -14 -82 -18 -177 -18h-44v-259h-103v667zM186 348h44c70 0 91 2 119 10c43 12 69 51 69 103c0 48 -21 85 -56 101c-28 12 -58 16 -133 16h-43v-230z" />
    <glyph glyph-name="afii10035" unicode="&#x421;" horiz-adv-x="600" 
d="M556 465h-91c-16 82 -63 124 -138 124c-108 0 -176 -99 -176 -256s68 -255 178 -255c84 0 133 54 143 160h94c-10 -162 -92 -250 -234 -250c-176 0 -289 135 -289 344c0 120 35 216 102 278c49 44 114 69 183 69c133 0 216 -77 228 -214z" />
    <glyph glyph-name="afii10036" unicode="&#x422;" horiz-adv-x="484" 
d="M16 667h453v-89h-176v-578h-103v578h-174v89z" />
    <glyph glyph-name="afii10037" unicode="&#x423;" horiz-adv-x="533" 
d="M5 667h116l147 -352l154 352h111l-316 -667h-109l106 206z" />
    <glyph glyph-name="afii10038" unicode="&#x424;" horiz-adv-x="718" 
d="M408 55v-55h-98v55c-166 1 -280 114 -280 279c0 164 114 277 280 278v55h98v-55c166 -1 280 -114 280 -278c0 -165 -114 -278 -280 -279zM310 137v393c-108 -1 -178 -78 -178 -196s70 -196 178 -197zM408 530v-393c108 1 178 79 178 197s-70 195 -178 196z" />
    <glyph glyph-name="afii10039" unicode="&#x425;" horiz-adv-x="565" 
d="M30 667h118l136 -230l138 230h118l-197 -319l208 -348h-118l-149 254l-152 -254h-117l208 348z" />
    <glyph glyph-name="afii10040" unicode="&#x426;" horiz-adv-x="665" 
d="M577 85h71v-186h-103v101h-462v667h103v-582h288v582h103v-582z" />
    <glyph glyph-name="afii10041" unicode="&#x427;" horiz-adv-x="595" 
d="M409 0v273c-45 -30 -96 -44 -160 -44c-80 0 -137 28 -168 84c-15 26 -21 60 -21 111v243h104v-206c0 -58 5 -82 19 -104c20 -29 46 -41 93 -41c59 0 103 16 133 49v302h104v-667h-104z" />
    <glyph glyph-name="afii10042" unicode="&#x428;" horiz-adv-x="923" 
d="M513 85h225v582h103v-667h-758v667h103v-582h224v582h103v-582z" />
    <glyph glyph-name="afii10043" unicode="&#x429;" horiz-adv-x="929" 
d="M809 0h-726v667h103v-581h224v581h103v-581h225v581h103v-581h71v-187h-103v101z" />
    <glyph glyph-name="afii10046" unicode="&#x42c;" horiz-adv-x="547" 
d="M186 407h31c100 0 144 -5 187 -19c75 -25 121 -97 121 -187c0 -88 -45 -158 -118 -183c-40 -14 -82 -18 -177 -18h-148v667h104v-260zM186 89h44c70 0 91 2 119 10c43 12 69 51 69 102c0 48 -21 85 -56 101c-28 12 -58 16 -133 16h-43v-229z" />
    <glyph glyph-name="afii10045" unicode="&#x42b;" horiz-adv-x="788" 
d="M186 407h31c100 0 144 -5 187 -19c75 -25 121 -97 121 -187c0 -88 -45 -158 -118 -183c-40 -14 -82 -18 -177 -18h-148v667h104v-260zM186 89h44c70 0 91 2 119 10c43 12 69 51 69 102c0 48 -21 85 -56 101c-28 12 -58 16 -133 16h-43v-229zM706 0h-104v667h104v-667z
" />
    <glyph glyph-name="afii10044" unicode="&#x42a;" horiz-adv-x="643" 
d="M0 667h283v-260h31c100 0 144 -5 187 -19c75 -25 121 -97 121 -187c0 -88 -45 -158 -118 -183c-40 -14 -82 -18 -177 -18h-148v578h-179v89zM283 89h44c70 0 91 2 119 10c43 12 69 51 69 102c0 48 -21 85 -56 101c-28 12 -58 16 -133 16h-43v-229z" />
    <glyph glyph-name="afii10047" unicode="&#x42d;" horiz-adv-x="606" 
d="M233 376h219c-14 137 -76 213 -174 213c-75 0 -121 -42 -137 -124l-90 17c15 80 34 116 78 150c39 30 91 47 148 47c70 0 135 -25 184 -69c67 -62 102 -158 102 -278c0 -209 -113 -344 -290 -344c-98 0 -168 43 -207 127c-16 35 -24 71 -25 106l92 17
c10 -105 59 -160 144 -160c98 0 165 80 175 213h-219v85z" />
    <glyph glyph-name="afii10048" unicode="&#x42e;" horiz-adv-x="895" 
d="M186 391h95c21 178 129 288 284 288c171 0 287 -139 287 -345c0 -207 -115 -346 -287 -346c-164 0 -275 123 -287 318h-92v-306h-103v667h103v-276zM565 590c-109 0 -179 -99 -179 -253c0 -161 68 -260 179 -260c110 0 179 100 179 257s-69 256 -179 256z" />
    <glyph glyph-name="afii10049" unicode="&#x42f;" horiz-adv-x="582" 
d="M499 667v-667h-103v268h-103l-151 -268h-122l164 285c-84 34 -127 97 -127 184c0 77 38 141 101 171c45 21 87 27 198 27h143zM396 357v221h-41c-89 0 -111 -3 -139 -17c-33 -16 -52 -49 -52 -91c0 -49 24 -86 65 -101c27 -10 49 -12 121 -12h46z" />
    <glyph glyph-name="afii10050" unicode="&#x490;" horiz-adv-x="489" 
d="M476 749v-171h-287v-578h-106v667h287v82h106z" />
    <glyph glyph-name="afii10051" unicode="&#x402;" horiz-adv-x="605" 
d="M254 578v-184c47 30 95 43 160 43c80 0 137 -28 168 -83c15 -27 21 -60 21 -111v-237c0 -50 -2 -61 -16 -87c-39 -70 -94 -98 -192 -98c-4 0 -14 0 -24 1v85c7 -1 14 -1 16 -1c81 0 112 26 112 94v206c0 57 -5 82 -19 104c-19 28 -46 40 -93 40c-59 0 -104 -17 -133 -48
v-302h-104v578h-134v89h453v-89h-215z" />
    <glyph glyph-name="afii10053" unicode="&#x404;" horiz-adv-x="606" 
d="M153 376h219v-85h-219c10 -133 77 -213 175 -213c85 0 134 54 144 160l93 -14c-11 -85 -25 -123 -61 -164c-41 -48 -99 -72 -172 -72c-177 0 -290 134 -290 344c0 120 35 216 102 278c49 44 114 69 184 69c57 0 109 -17 148 -47c44 -34 63 -70 78 -150l-90 -17
c-16 82 -62 124 -137 124c-98 0 -160 -76 -174 -213z" />
    <glyph glyph-name="afii10054" unicode="&#x405;" horiz-adv-x="557" 
d="M493 482h-99c-6 68 -50 107 -119 107c-62 0 -109 -37 -109 -86c0 -24 13 -45 37 -59c20 -13 32 -18 114 -53c99 -41 129 -59 155 -88c26 -31 40 -71 40 -117c0 -120 -90 -198 -229 -198c-151 0 -235 79 -242 228h100c8 -91 57 -138 144 -138c71 0 121 38 121 91
c0 30 -14 53 -43 73c-21 14 -33 20 -110 53c-73 31 -115 55 -139 78c-34 33 -51 74 -51 121c0 108 89 185 215 185c80 0 146 -31 183 -87c21 -30 29 -60 32 -110z" />
    <glyph glyph-name="afii10055" unicode="&#x406;" horiz-adv-x="269" 
d="M186 0h-104v667h104v-667z" />
    <glyph glyph-name="uni04C0" unicode="&#x4c0;" horiz-adv-x="269" 
d="M186 0h-104v667h104v-667z" />
    <glyph glyph-name="afii10057" unicode="&#x408;" horiz-adv-x="313" 
d="M129 667h104v-532c0 -110 -3 -133 -21 -167c-27 -54 -88 -80 -184 -80c-7 0 -17 0 -31 1v86c68 0 99 8 116 31c14 17 16 33 16 128v533z" />
    <glyph glyph-name="afii10058" unicode="&#x409;" horiz-adv-x="886" 
d="M526 407h31c100 0 144 -5 187 -19c75 -25 121 -97 121 -187c0 -88 -45 -158 -118 -183c-40 -14 -82 -18 -177 -18h-148l1 582h-177l-37 -402c-5 -134 -53 -181 -182 -181v86c56 -1 80 29 86 105l38 477h375v-260zM526 89h44c70 0 91 2 119 10c43 12 69 51 69 102
c0 48 -21 85 -56 101c-28 12 -58 16 -133 16h-43v-229z" />
    <glyph glyph-name="afii10059" unicode="&#x40a;" horiz-adv-x="938" 
d="M474 398v269h104v-269h31c99 0 144 -4 187 -18c75 -25 121 -94 121 -183c0 -87 -45 -155 -118 -179c-40 -14 -82 -18 -177 -18h-148v313h-288v-313h-103v667h103v-269h288zM578 89h44c70 0 91 2 119 10c43 12 69 49 69 100c0 47 -21 83 -56 98c-27 12 -58 16 -133 16h-43
v-224z" />
    <glyph glyph-name="afii10060" unicode="&#x40b;" horiz-adv-x="751" 
d="M499 0v206c0 57 -5 82 -19 104c-19 28 -46 40 -93 40c-58 0 -104 -17 -133 -48v-302h-104v578h-134v89h453v-89h-215v-184c47 30 95 43 160 43c80 0 137 -28 168 -83c14 -26 21 -61 21 -111v-243h-104z" />
    <glyph glyph-name="afii10145" unicode="&#x40f;" horiz-adv-x="659" 
d="M381 0v-101h-103v101h-195v667h103v-582h288v582h103v-667h-196z" />
    <glyph glyph-name="afii61352" unicode="&#x2116;" horiz-adv-x="916" 
d="M83 667h111l294 -510v510h98v-667h-107l-298 509v-509h-98v667zM783 461c76 0 130 -61 130 -147s-54 -147 -130 -147c-78 0 -131 61 -131 149c0 84 55 145 131 145zM783 390c-33 0 -55 -31 -55 -75c0 -47 22 -77 55 -77c32 0 54 31 54 76s-22 76 -54 76zM652 130h261v-77
h-261v77z" />
    <glyph glyph-name="afii10023" unicode="&#x401;" horiz-adv-x="520" 
d="M186 390h268v-89h-268v-212h300v-89h-403v667h395v-89h-292v-188zM190 866c36 0 65 -29 65 -65c0 -37 -29 -66 -65 -66c-37 0 -66 29 -66 65c0 37 29 66 66 66zM373 866c36 0 65 -29 65 -65c0 -37 -29 -66 -65 -66c-37 0 -66 29 -66 65c0 37 29 66 66 66z" />
    <glyph glyph-name="afii10027" unicode="&#x419;" horiz-adv-x="668" 
d="M192 870h44c22 -48 55 -73 98 -73c44 0 77 24 98 73h44c-10 -84 -65 -138 -141 -138s-133 55 -143 138zM83 0v667h98v-484l306 437v47h98v-667h-98v483l-306 -436v-47h-98z" />
    <glyph glyph-name="afii10052" unicode="&#x403;" horiz-adv-x="496" 
d="M83 0v667h393v-89h-287v-578h-106zM191 725l153 151h127l-185 -151h-95z" />
    <glyph glyph-name="afii10056" unicode="&#x407;" horiz-adv-x="269" 
d="M187 0h-104v667h104v-667zM56 863c34 0 62 -28 62 -63s-28 -63 -63 -63s-63 28 -63 63s28 63 64 63zM216 863c34 0 62 -28 62 -63s-28 -63 -63 -63s-63 28 -63 63s28 63 64 63z" />
    <glyph glyph-name="afii10061" unicode="&#x40c;" horiz-adv-x="593" 
d="M444 667h121l-260 -312l281 -355h-135l-263 352zM83 667h103v-667h-103v667zM239 725l153 151h128l-186 -151h-95z" />
    <glyph glyph-name="afii10062" unicode="&#x40e;" horiz-adv-x="533" 
d="M124 870h44c22 -48 55 -73 99 -73c43 0 76 24 97 73h44c-10 -84 -65 -138 -141 -138s-133 55 -143 138zM5 667h116l147 -352l154 352h111l-316 -667h-109l106 206z" />
    <glyph glyph-name="afii10065" unicode="&#x430;" horiz-adv-x="495" 
d="M155 341h-95c6 49 21 79 52 103c33 27 84 42 142 42c80 0 137 -27 157 -74c12 -27 15 -52 15 -112v-185c0 -64 3 -87 15 -115h-91c-6 22 -8 33 -8 59c-26 -47 -71 -70 -136 -70c-100 0 -162 52 -162 136c0 66 38 115 109 142c44 17 72 23 178 42v13c0 61 -23 84 -83 84
c-54 0 -84 -21 -93 -65zM331 204v37c-138 -21 -186 -48 -186 -105c0 -41 33 -69 81 -69c41 0 76 20 92 52c9 18 13 44 13 85z" />
    <glyph glyph-name="afii10066" unicode="&#x431;" horiz-adv-x="521" 
d="M423 684v-80c-18 -9 -31 -12 -59 -12c-13 0 -18 1 -36 5c-25 5 -43 7 -57 7c-72 0 -117 -60 -137 -185c35 49 79 70 142 70c122 0 206 -103 206 -251c0 -147 -92 -251 -222 -251c-88 0 -165 52 -198 133c-17 42 -24 93 -24 168c0 138 29 257 79 321c40 52 85 75 150 75
c17 0 19 0 73 -9c11 -2 22 -3 31 -3c20 0 34 3 52 12zM260 409c-71 0 -121 -70 -121 -169c0 -105 48 -173 121 -173c72 0 121 69 121 170c0 102 -49 172 -121 172z" />
    <glyph glyph-name="afii10067" unicode="&#x432;" horiz-adv-x="453" 
d="M168 287h40c62 0 88 18 88 61c0 38 -20 51 -79 51h-49v-112zM168 76h29c46 0 61 2 78 9c23 10 37 32 37 59c0 47 -26 67 -89 67h-55v-135zM70 475h139c72 0 87 -1 114 -10c46 -14 74 -53 74 -104c0 -57 -28 -91 -89 -106c71 -17 104 -55 104 -120
c0 -58 -33 -107 -84 -123c-32 -10 -56 -12 -139 -12h-119v475z" />
    <glyph glyph-name="afii10068" unicode="&#x433;" horiz-adv-x="365" 
d="M71 475h274v-78h-174v-397h-100v475z" />
    <glyph glyph-name="afii10069" unicode="&#x434;" horiz-adv-x="520" 
d="M116 475h330v-397h54v-179h-98v101h-287v-101h-98v179h14c39 0 58 26 62 82zM168 78h180v319h-143l-24 -269c-2 -26 -5 -39 -13 -50z" />
    <glyph glyph-name="afii10070" unicode="&#x435;" horiz-adv-x="501" 
d="M462 216h-324c4 -96 48 -148 126 -148c48 0 79 19 100 62l88 -6c-26 -88 -94 -137 -191 -137c-134 0 -222 97 -222 245c0 154 87 256 219 256c125 0 205 -97 205 -251c0 -3 0 -12 -1 -21zM141 289h221c-9 80 -45 120 -107 120c-61 0 -98 -39 -114 -120z" />
    <glyph glyph-name="afii10072" unicode="&#x436;" horiz-adv-x="634" 
d="M269 475h95v-187h26l133 187h103l-156 -217l170 -258h-107l-143 210h-26v-210h-95v210h-26l-143 -210h-107l170 258l-156 217h103l133 -187h26v187z" />
    <glyph glyph-name="afii10073" unicode="&#x437;" horiz-adv-x="458" 
d="M141 329l-96 8c14 61 29 87 62 113c34 26 75 38 129 38c109 0 175 -52 175 -138c0 -39 -17 -72 -50 -94c-13 -9 -23 -13 -45 -17c37 -6 53 -12 71 -25c24 -19 38 -49 38 -83c0 -87 -73 -144 -187 -144c-79 0 -127 22 -163 72c-20 29 -33 62 -35 92l95 9l1 -4
c9 -38 14 -49 32 -64c18 -16 40 -23 68 -23c53 0 88 27 88 69s-26 59 -89 59h-41v78h37c33 0 44 4 60 18c12 12 19 29 19 48c0 41 -31 67 -80 67c-51 0 -75 -21 -89 -79z" />
    <glyph glyph-name="afii10074" unicode="&#x438;" horiz-adv-x="530" 
d="M361 0v309l-193 -270v-39h-98v475h98v-309l193 270v39h98v-475h-98z" />
    <glyph glyph-name="afii10076" unicode="&#x43a;" horiz-adv-x="511" 
d="M357 475h119l-188 -217l203 -258h-133l-187 256zM71 475h98v-475h-98v475z" />
    <glyph glyph-name="afii10077" unicode="&#x43b;" horiz-adv-x="509" 
d="M341 397h-142l-25 -269c-5 -59 -18 -85 -52 -107c-25 -16 -52 -22 -95 -22h-10v78c45 -1 65 23 69 82l23 316h330v-475h-98v397z" />
    <glyph glyph-name="afii10078" unicode="&#x43c;" horiz-adv-x="627" 
d="M354 0h-82l-110 333v-333h-92v475h124l119 -361l119 361h124v-475h-92v333z" />
    <glyph glyph-name="afii10079" unicode="&#x43d;" horiz-adv-x="530" 
d="M361 210h-193v-210h-98v475h98v-187h193v187h98v-475h-98v210z" />
    <glyph glyph-name="afii10080" unicode="&#x43e;" horiz-adv-x="521" 
d="M261 488c129 0 221 -105 221 -251s-92 -250 -221 -250c-131 0 -222 104 -222 254c0 142 94 247 222 247zM261 408c-71 0 -121 -69 -121 -169c0 -104 48 -172 121 -172c71 0 120 69 120 170s-49 171 -120 171z" />
    <glyph glyph-name="afii10081" unicode="&#x43f;" horiz-adv-x="530" 
d="M361 397h-193v-397h-98v475h389v-475h-98v397z" />
    <glyph glyph-name="afii10082" unicode="&#x440;" horiz-adv-x="529" 
d="M71 -197v525c0 84 -2 115 -9 147h93c5 -15 9 -40 9 -62c32 51 72 73 132 73c116 0 194 -99 194 -247c0 -147 -78 -250 -190 -250c-56 0 -94 20 -131 69v-255h-98zM281 403c-70 0 -114 -65 -114 -167c0 -98 45 -163 114 -163c68 0 108 61 108 165c0 102 -41 165 -108 165z
" />
    <glyph glyph-name="afii10083" unicode="&#x441;" horiz-adv-x="482" 
d="M440 318h-97c-10 63 -37 90 -89 90c-70 0 -114 -67 -114 -172c0 -106 43 -169 115 -169c56 0 84 30 92 99h96c-7 -111 -79 -179 -188 -179c-130 0 -216 100 -216 249c0 153 85 252 217 252c106 0 171 -60 184 -170z" />
    <glyph glyph-name="afii10084" unicode="&#x442;" horiz-adv-x="381" 
d="M239 0h-98v397h-138v78h374v-78h-138v-397z" />
    <glyph glyph-name="afii10085" unicode="&#x443;" horiz-adv-x="471" 
d="M16 475h104l117 -378l120 378h103l-159 -452c-43 -123 -55 -146 -95 -179c-37 -30 -85 -44 -147 -44c-8 0 -18 0 -32 1v85l18 1h7c78 3 103 22 130 99z" />
    <glyph glyph-name="afii10086" unicode="&#x444;" horiz-adv-x="694" 
d="M299 671h97v-230c18 30 53 47 97 47c106 0 163 -89 163 -254c0 -159 -58 -247 -163 -247c-44 0 -79 17 -97 47v-231h-97v231c-18 -30 -53 -47 -97 -47c-105 0 -163 88 -163 247c0 165 57 254 163 254c44 0 79 -17 97 -47v230zM396 258v-20v-21c0 -104 25 -153 78 -153
c55 0 85 60 85 171c0 116 -29 176 -85 176c-53 0 -78 -49 -78 -153zM299 217v21v20c0 104 -25 153 -78 153c-56 0 -85 -60 -85 -176c0 -111 30 -171 85 -171c53 0 78 49 78 153z" />
    <glyph glyph-name="afii10087" unicode="&#x445;" horiz-adv-x="473" 
d="M27 475h117l92 -150l94 150h118l-151 -222l172 -253h-119l-114 175l-114 -175h-119l174 253z" />
    <glyph glyph-name="afii10088" unicode="&#x446;" horiz-adv-x="534" 
d="M415 0h-345v475h98v-397h193v397h98v-397h54v-179h-98v101z" />
    <glyph glyph-name="afii10091" unicode="&#x449;" horiz-adv-x="730" 
d="M611 0h-541v475h98v-397h145v397h98v-397h146v397h98v-397h54v-179h-98v101z" />
    <glyph glyph-name="afii10092" unicode="&#x44a;" horiz-adv-x="492" 
d="M130 397h-130v78h228v-167h64c63 0 98 -9 130 -34c35 -28 50 -62 50 -116c0 -57 -20 -99 -61 -128c-31 -23 -61 -30 -124 -30h-157v397zM228 230v-152h39c73 0 104 23 104 78c0 53 -27 74 -95 74h-48z" />
    <glyph glyph-name="afii10093" unicode="&#x44b;" horiz-adv-x="638" 
d="M467 475h100v-475h-100v475zM70 0v475h98v-167h64c63 0 98 -9 130 -34c35 -28 50 -62 50 -116c0 -57 -20 -99 -61 -128c-31 -23 -61 -30 -124 -30h-157zM168 230v-152h39c73 0 104 23 104 78c0 53 -27 74 -95 74h-48z" />
    <glyph glyph-name="afii10094" unicode="&#x44c;" horiz-adv-x="433" 
d="M70 0v475h98v-167h64c63 0 98 -9 130 -34c35 -28 50 -62 50 -116c0 -57 -20 -99 -61 -128c-31 -23 -61 -30 -124 -30h-157zM168 230v-152h39c73 0 104 23 104 78c0 53 -27 74 -95 74h-48z" />
    <glyph glyph-name="afii10095" unicode="&#x44d;" horiz-adv-x="482" 
d="M198 275h143c-12 88 -50 133 -111 133c-50 0 -74 -22 -88 -79l-96 8c14 60 28 86 62 113c33 26 71 38 120 38c131 0 216 -99 216 -252c0 -150 -86 -249 -215 -249c-46 0 -86 12 -118 35c-36 27 -53 57 -69 125l95 9c12 -63 39 -89 92 -89c63 0 101 44 112 130h-143v78z
" />
    <glyph glyph-name="afii10096" unicode="&#x44e;" horiz-adv-x="724" 
d="M168 288h77c20 122 105 200 218 200c129 0 221 -105 221 -251s-92 -250 -221 -250c-121 0 -207 87 -221 223h-74v-210h-98v475h98v-187zM463 408c-71 0 -121 -69 -121 -169c0 -104 48 -172 121 -172c71 0 120 69 120 170c0 102 -49 171 -120 171z" />
    <glyph glyph-name="afii10097" unicode="&#x44f;" horiz-adv-x="464" 
d="M41 0l91 182c-55 26 -80 68 -80 134c0 58 20 100 61 129c31 23 61 30 124 30h157v-475h-98v166h-64h-7h-3l-79 -166h-102zM296 244v153h-39c-73 0 -104 -23 -104 -78c0 -54 27 -75 95 -75h48z" />
    <glyph glyph-name="afii10098" unicode="&#x491;" horiz-adv-x="358" 
d="M345 526v-129h-174v-397h-100v475h174v51h100z" />
    <glyph glyph-name="afii10099" unicode="&#x452;" horiz-adv-x="530" 
d="M169 537v-116c35 43 81 65 137 65c58 0 111 -26 135 -68c18 -29 22 -56 22 -145l1 -273c0 -64 -16 -107 -53 -141c-36 -33 -79 -46 -152 -46h-24v85h16c82 0 113 28 113 102l1 257c0 41 -1 57 -6 78c-8 39 -40 64 -83 64c-38 0 -73 -21 -91 -55c-11 -22 -16 -51 -16 -93
v-251h-98v537h-60v67h60v67h98v-67h134v-67h-134z" />
    <glyph glyph-name="afii10101" unicode="&#x454;" horiz-adv-x="482" 
d="M142 275h143v-78h-143c11 -86 49 -130 112 -130c53 0 80 26 92 89l95 -9c-16 -68 -33 -98 -69 -125c-32 -23 -72 -35 -118 -35c-129 0 -215 99 -215 249c0 153 85 252 216 252c49 0 87 -12 120 -38c34 -27 48 -53 62 -113l-96 -8c-14 57 -38 79 -88 79
c-61 0 -99 -45 -111 -133z" />
    </font>
</defs>
</svg>
